v 0.0295945574 0.00953937881 0.0328460038
v 0.0136934165 0.00954241864 0.0328460038
v 0.0295945574 0.00939242542 0.751543999
v 0.0136934165 0.00939540472 0.751543999
v 0.0136905592 -0.00965447724 0.751540899
v 0.00695540942 -0.00686342968 0.751540899
v 0.0136905592 -0.00950746331 0.0328418911
v 0.00695540942 -0.00671647675 0.0328429937
v 0.0041665677 -0.00012749889 0.751542985
v 0.0041665677 1.94699878e-05 0.032844007
v 0.00695856847 0.00660739793 0.751543999
v 0.00695856847 0.00675441045 0.0328460038
v 0.0295905042 -0.00951050315 0.0328418911
v 0.0295905042 -0.00965745654 0.751540899
v 0.0363265444 -0.00672249636 0.0328429937
v 0.0363265444 -0.00686944975 0.751540899
v 0.0391174201 1.24699891e-05 0.032844007
v 0.0391174201 -0.000134498885 0.751542985
v 0.0363285188 0.00674839038 0.0328460038
v 0.0363285188 0.00660143699 0.751543999
vt 0.995940924 0.00949853566
vt 0.995989501 0.0190000497
vt 0.00161927904 3.74228985e-05
vt 0.00161927904 3.74228985e-05
vt 0.995989501 0.0190000497
vt 0.000391792011 0.00509482622
vt 0.00117164804 1.38121004e-05
vt 0.000492730993 0.00112414302
vt 0.999986291 0.00949853566
vt 0.999986291 0.00949853566
vt 0.000492730993 0.00112414302
vt 0.998606503 0.0118374201
vt 0.998606503 0.0118374201
vt 0.000492730993 0.00112414302
vt 0.000144749996 0.00243830611
vt 0.998606503 0.0118374201
vt 0.000144749996 0.00243830611
vt 0.997480929 0.0142038995
vt 0.997480929 0.0142038995
vt 0.000144749996 0.00243830611
vt 1.38121004e-05 0.00380986906
vt 0.997480929 0.0142038995
vt 1.38121004e-05 0.00380986906
vt 0.996607304 0.0165989902
vt 0.996607304 0.0165989902
vt 1.38121004e-05 0.00380986906
vt 0.000391792011 0.00509482622
vt 0.996607304 0.0165989902
vt 0.000391792011 0.00509482622
vt 0.995989501 0.0190000497
vt 0.999986291 0.00949853566
vt 0.998428106 0.0190916602
vt 0.00117164804 1.38121004e-05
vt 0.00117164804 1.38121004e-05
vt 0.998428106 0.0190916602
vt 0.00167614198 0.00628733588
vt 0.998428106 0.0190916602
vt 0.997425377 0.0167117696
vt 0.00167614198 0.00628733588
vt 0.00167614198 0.00628733588
vt 0.997425377 0.0167117696
vt 0.00136548199 0.00501465704
vt 0.00136548199 0.00501465704
vt 0.997425377 0.0167117696
vt 0.996677399 0.0143160801
vt 0.00136548199 0.00501465704
vt 0.996677399 0.0143160801
vt 0.001258909 0.00368559291
vt 0.001258909 0.00368559291
vt 0.996677399 0.0143160801
vt 0.996181726 0.01190418
vt 0.001258909 0.00368559291
vt 0.996181726 0.01190418
vt 0.00125581003 0.00190573896
vt 0.00125581003 0.00190573896
vt 0.996181726 0.01190418
vt 0.995940924 0.00949853566
vt 0.00125581003 0.00190573896
vt 0.995940924 0.00949853566
vt 0.00161927904 3.74228985e-05
vn 0.000191104002 1 0.000204465279
vn 0.000187437006 1 0.000204548283
vn -0.38283211 -0.923817992 -0.000188965612
vn -0.382826 -0.923820376 -0.000188902617
vn -0.92393887 -0.382540107 -7.8221783e-05
vn -0.923939109 -0.3825396 -7.82261777e-05
vn -0.923768222 0.382952392 7.83133582e-05
vn -0.923769176 0.382950008 7.83376599e-05
vn -0.38248691 0.923960924 0.000189007624
vn -0.382485807 0.923961401 0.000188994614
vn -0.000191280007 -1 -0.000204548283
vn -0.000187448997 -1 -0.00020446429
vn 0.382433712 -0.923982978 -0.000188923615
vn 0.382432401 -0.923983395 -0.000188933613
vn 0.923822403 -0.382821411 -7.82814677e-05
vn 0.923822284 -0.382821888 -7.82724674e-05
vn 0.923939109 0.3825396 7.8213081e-05
vn 0.923939407 0.382539093 7.82181814e-05
vn 0.382878691 0.92379868 0.000188895618
vn 0.382879615 0.923798323 0.000188884616
f 1/1/1 2/2/1 3/3/1
f 3/4/2 2/5/2 4/6/2
f 5/7/3 6/8/3 7/9/3
f 7/10/4 6/11/4 8/12/4
f 8/13/5 6/14/5 9/15/5
f 8/16/6 9/17/6 10/18/6
f 10/19/7 9/20/7 11/21/7
f 10/22/8 11/23/8 12/24/8
f 12/25/9 11/26/9 4/27/9
f 12/28/10 4/29/10 2/30/10
f 7/31/11 13/32/11 5/33/11
f 5/34/12 13/35/12 14/36/12
f 13/37/13 15/38/13 14/39/13
f 14/40/14 15/41/14 16/42/14
f 16/43/15 15/44/15 17/45/15
f 16/46/16 17/47/16 18/48/16
f 18/49/17 17/50/17 19/51/17
f 18/52/18 19/53/18 20/54/18
f 20/55/19 19/56/19 1/57/19
f 20/58/20 1/59/20 3/60/20
