v -1.56885717 0.563551545 1.70251611
v -1.56884716 0.563543677 1.70954649
v -1.19460104 0.563572109 1.70196541
v -1.4985523 0.56355536 1.70241261
v -1.2648959 0.563560665 1.70909929
v -1.19459102 0.563564956 1.70899598
v -1.26490639 0.563568473 1.70206881
v -1.49854229 0.563547611 1.70944309
vt 0.242291495 0.425908804
vt 0.242311001 0.426097006
vt 0.242291495 0.426097214
vt 0.243534893 0.424216986
vt 0.243515402 0.424028814
vt 0.243534893 0.424028695
vt 0.242291495 0.425908804
vt 0.242311001 0.425908715
vt 0.242311001 0.426097006
vt 0.243534893 0.424216986
vt 0.243515402 0.424217105
vt 0.243515402 0.424028814
vn -5.13870009e-06 0.0999999568 0.000104194471
vn -5.26416989e-06 0.0999999568 0.000109910463
vn -5.94078028e-06 0.0999999419 0.000108110471
vn -5.53158998e-06 0.0999999419 0.000113898073
f 7/1/1 6/2/1 3/3/1
f 1/4/2 8/5/2 4/6/2
f 7/7/3 5/8/3 6/9/3
f 1/10/4 2/11/4 8/12/4
