v 3.7756705 -0.964591801 2.5536738
v 3.77564341 -1.05793899 2.49973905
v 3.72877069 -1.05793899 2.49547744
v 3.72880889 -0.867564321 2.57038552
v 3.77568155 -0.867564321 2.57464701
v 3.72880768 0.178416848 2.57038605
v 3.7756808 0.178416252 2.57464755
v 3.72427199 0.262099564 2.55054688
v 3.77114397 0.262099564 2.55480844
v 3.72876999 0.350862324 2.49547815
v 3.77564189 0.350861728 2.49973965
v 3.56842219 -1.05793941 2.46338832
v 3.56844928 -0.97879982 2.5173232
v 3.56845956 -0.867564499 2.53829628
v 3.56845879 0.17841655 2.53829676
v 3.5639235 0.262993634 2.51845759
v 3.5684207 0.350861907 2.4633891
v 3.50611447 -0.979465008 2.51084709
v 3.50612517 -0.86756444 2.53182
v 3.5061244 0.17841661 2.53182054
v 3.50362348 0.263888717 2.51198047
v 3.44525748 -0.964592099 2.51680619
v 3.4452674 -0.867564499 2.53777915
v 3.4452666 0.17841655 2.53777987
v 3.44073059 0.262099206 2.51794082
v 3.44069808 0.347355485 2.45459127
v 3.50359367 0.347355485 2.45449686
v 3.50608616 -1.05932081 2.45449483
v 3.44522541 -1.05932081 2.45458829
v 3.38612049 -0.964592159 2.53894603
v 3.3861255 -0.867564499 2.55004638
v 3.38612511 0.17841655 2.55041528
v 3.38159548 0.262099147 2.54385692
v 3.38157149 0.347355485 2.49759907
v 3.38609879 -1.05932081 2.49759448
v 3.33391031 -0.964592159 2.57382673
v 3.33390798 -0.867564499 2.57085347
v 3.33390798 0.17841655 2.57208496
v 3.32938757 0.262099147 2.58101863
v 3.32937606 0.347355425 2.56067389
v 3.33390298 -1.05932087 2.55985403
v 3.31115749 0.347355425 2.59672666
v 3.31568398 -1.05932087 2.59556019
v 3.02972551 -1.04194397 2.27015316
v 3.05982043 -1.04194397 2.27015316
v 3.05982043 -1.24397796 2.27015302
v 3.02972551 -1.24397796 2.27015302
v 3.02972551 -1.04194409 2.51611894
v 3.02972551 -1.24397802 2.51611882
v 3.05982043 -1.24397802 2.51611882
v 3.05982043 -1.04194409 2.51611894
v 3.00260397 0.688007593 2.98490989
v 3.00260176 0.687363982 0.899402857
v 3.00260242 0.39426291 2.67592812
v 3.00260242 0.394263685 1.46394917
v 3.00260492 -1.39642346 2.98490858
v 3.00260397 -1.1062758 2.67592734
v 3.00260337 -1.39642298 0.898722529
v 3.00260337 -0.838826269 1.20564348
v 3.00260242 0.135435253 1.20590723
v 3.05978902 0.0919415951 1.29498768
v 3.05978902 -0.801489145 1.29509002
v 3.0597895 -1.0174619 2.58821386
v 3.05978837 0.309587955 2.58896357
v 3.05978837 0.309033573 1.50901824
v 3.00260397 -1.10627502 1.47344598
v 3.0597895 -1.01686817 1.50944015
v 3.0597895 -1.01706666 2.26636547
v 3.00260397 -1.10627556 2.26614672
v 3.0597895 -1.01726431 2.52548033
v 3.00260397 -1.10627568 2.52546382
v 3.00260397 -1.25134933 2.52546376
v 3.00260397 -1.25134939 2.26614663
v 3.0597895 -1.25109601 2.26636532
v 3.0597895 -1.25129366 2.52548015
v 3.41567408 -1.01746142 2.58821326
v 3.41567328 0.309588194 2.58896273
v 3.86233775 0.0919423103 1.29498726
v 3.86233929 -0.80148831 1.29508966
v 3.86233775 0.309034348 1.50901791
v 3.86233929 0.309588432 2.58896315
v 3.86233929 -1.01686752 1.50943986
v 3.86233929 -1.01746106 2.5882135
v -2.88039348 0.731826663 2.91599363
v -2.88046358 0.613889873 3.0341239
v -2.88037489 0.616515398 2.96993494
v -2.8803458 0.667641759 2.91872483
v -2.90837953 0.667618632 2.9186855
v -2.9084091 0.61649251 2.96989584
v -2.90849684 0.613866568 3.0340848
v -2.90842817 0.731803656 2.91595423
v 2.03666498 0.731830716 2.9159922
v 2.0365962 0.613893688 3.03412282
v 2.0366831 0.61651969 2.96993387
v 2.03671398 0.667645693 2.91872346
v 1.97728004 0.667873621 2.91911459
v 1.97725012 0.61674732 2.97032487
v 1.97716107 0.614121616 3.03451383
v 1.97723105 0.732058764 2.91638333
v 1.0525191 0.731829643 2.91599256
v 1.05244996 0.613892496 3.0341239
v 1.05253818 0.616518497 2.96993387
v 1.05256798 0.667644739 2.91872388
v 0.993134042 0.667872667 2.91911495
v 0.993104001 0.616746366 2.97032583
v 0.993016025 0.614120841 3.03451383
v 0.99308612 0.732056737 2.9163835
v 0.0687890257 0.73182869 2.91599256
v 0.0687189306 0.613891542 3.0341239
v 0.0688080992 0.616517305 2.96993387
v 0.0688379015 0.667643785 2.91872388
v 0.00940420286 0.667871714 2.91911495
v 0.00937416212 0.616745591 2.97032583
v 0.00928594725 0.614119887 3.0345149
v 0.00935508864 0.732056737 2.9163835
v -0.913759211 0.731827736 2.91599315
v -0.913828353 0.613890588 3.0341239
v -0.913741568 0.616516709 2.96993494
v -0.913710097 0.667642713 2.91872406
v -0.973144034 0.66787076 2.91911513
v -0.973174552 0.616744816 2.97032583
v -0.97326229 0.614118934 3.0345149
v -0.973192195 0.732055664 2.91638398
v -1.89711235 0.731826663 2.91599333
v -1.89718149 0.613889635 3.0341239
v -1.89709328 0.616515934 2.96993494
v -1.89706323 0.667641759 2.91872424
v -1.95649717 0.667869687 2.91911536
v -1.95652626 0.616743684 2.97032583
v -1.95661495 0.614117801 3.0345149
v -1.95654533 0.73205471 2.91638428
v -1.958477 0.732055664 2.91638428
v -1.95854709 0.614118516 3.0345149
v -1.95847938 0.583338916 3.00378585
v -1.95840834 0.701275706 2.88565534
v -2.88034151 0.700518727 2.88435888
v -2.88041256 0.582582533 3.00248981
v -2.88047932 0.613361895 3.03321886
v -2.88041017 0.731299639 2.91508782
v -0.97358034 0.732055664 2.91638398
v -0.973650435 0.61411947 3.0345149
v -0.973582247 0.583340049 3.00378585
v -0.973513106 0.701277733 2.88565511
v -1.89544533 0.700520754 2.8843587
v -1.89551447 0.582583845 3.00248981
v -1.89558361 0.613363206 3.03321886
v -1.89551447 0.731300712 2.91508782
v 0.00818206923 0.732056737 2.9163835
v 0.00811221258 0.614120424 3.0345149
v 0.00818111555 0.58334136 3.00378585
v 0.0082497801 0.701277733 2.88565493
v -0.91368244 0.700521708 2.88435858
v -0.913752059 0.582584441 3.00248885
v -0.913820246 0.613364398 3.03321791
v -0.913751105 0.731300712 2.91508764
v 0.992290994 0.732057691 2.9163835
v 0.992221137 0.61412102 3.03451383
v 0.99229004 0.58334136 3.00378478
v 0.992358943 0.701278687 2.88565463
v 0.0704260077 0.700521708 2.88435823
v 0.0703568663 0.582585394 3.00248885
v 0.0702891554 0.613364935 3.03321791
v 0.0703580584 0.731301665 2.91508746
v 1.97632696 0.732058764 2.91638303
v 1.97625699 0.614122152 3.03451383
v 1.97632601 0.583342314 3.00378478
v 1.97639599 0.701279759 2.88565415
v 1.05446388 0.700522661 2.88435793
v 1.05439307 0.58258605 3.00248885
v 1.05432608 0.613365531 3.03321791
v 1.05439522 0.731302738 2.91508728
v 2.96282508 0.732059717 2.91638285
v 2.96275433 0.614122748 3.03451383
v 2.96282287 0.583343089 3.00378478
v 2.96289202 0.701279759 2.88565397
v 2.04095997 0.700523615 2.88435745
v 2.04089 0.582586646 3.00248885
v 2.04082205 0.613366485 3.03321791
v 2.04089203 0.731303692 2.91508669
v -1.95796154 -1.44722331 2.91599208
v -1.95789287 -1.32928646 3.03412259
v -1.95798061 -1.3319124 2.96993363
v -1.95801113 -1.3830384 2.91872329
v -1.89857815 -1.38326645 2.91911459
v -1.89854715 -1.33214045 2.97032452
v -1.89881323 -1.32951474 3.03451359
v -1.89888237 -1.44745135 2.91638303
v -2.90768431 -1.44747543 2.91642249
v -2.90761516 -1.32953829 3.03455353
v -2.90770338 -1.33216363 2.97036457
v -2.90773247 -1.38329029 2.91915417
v -2.87970064 -1.3832674 2.91911477
v -2.87967155 -1.33214122 2.97032559
v -2.87958238 -1.32951587 3.03451455
v -2.8796501 -1.44745243 2.91638333
v -1.89845941 -1.32951474 3.03451359
v -1.89852856 -1.44745135 2.91638321
v -2.88070248 -1.44745243 2.91638321
v -2.88063381 -1.32951587 3.03451359
v -2.88070248 -1.29873586 3.00378466
v -2.88077257 -1.41667235 2.88565421
v -1.95883844 -1.41591644 2.88435733
v -1.9587693 -1.29797882 3.00248861
v -1.95870159 -1.3287589 3.03321755
v -1.95877025 -1.44669533 2.91508639
v -1.89888141 -1.29873472 3.00378466
v -1.89895008 -1.41667128 2.88565415
v -0.977018336 -1.41591537 2.88435733
v -0.976948241 -1.2979781 3.00248861
v -0.97688053 -1.32875794 3.0332166
v -0.976949195 -1.44669437 2.91508639
v -0.912386397 -1.4474504 2.91638255
v -0.912314871 -1.32951421 3.03451359
v -0.912384013 -1.29873377 3.00378466
v -0.912454108 -1.41667032 2.88565391
v 0.00947811262 -1.41591442 2.88435715
v 0.00954796927 -1.29797691 3.00248766
v 0.00961711066 -1.32875687 3.0332166
v 0.00954677718 -1.44669342 2.91508621
v 0.0716510023 -1.44744933 2.91638225
v 0.0717210974 -1.32951325 3.03451359
v 0.0716531481 -1.29873264 3.00378466
v 0.071583053 -1.41666937 2.88565356
v 0.993515035 -1.41591442 2.88435686
v 0.99358513 -1.29797626 3.00248766
v 0.993653079 -1.3287558 3.0332166
v 0.993583223 -1.44669235 2.91508603
v 1.05576088 -1.44744837 2.91638207
v 1.05583002 -1.32951248 3.03451252
v 1.05576207 -1.29873186 3.00378358
v 1.05569317 -1.41666842 2.88565326
v 1.97762515 -1.41591334 2.88435656
v 1.97769394 -1.29797548 3.00248766
v 1.97776308 -1.32875508 3.0332166
v 1.97769394 -1.44669139 2.91508555
v 2.03752317 -1.44744837 2.9163819
v 2.03759315 -1.32951134 3.03451252
v 2.03752508 -1.29873109 3.00378358
v 2.03745498 -1.41666842 2.88565296
v 2.95938708 -1.41591132 2.88435638
v 2.95945706 -1.29797447 3.00248766
v 2.95952495 -1.32875448 3.0332166
v 2.95945497 -1.44669139 2.91508526
v 2.95909413 -1.44721842 2.91599077
v 2.95916392 -1.32928205 3.03412151
v 2.95907619 -1.33190787 2.96993256
v 2.95904644 -1.38303435 2.91872215
v 2.98712738 -1.44719541 2.91595131
v 2.98719718 -1.32925934 3.03408265
v 2.98707875 -1.38301134 2.91868287
v 2.9871104 -1.33188474 2.96989357
v -0.97592924 -1.44722235 2.91599208
v -0.975860098 -1.32928568 3.03412259
v -0.975948313 -1.33191127 2.96993363
v -0.975978354 -1.38303733 2.91872329
v -0.914078215 -1.38326538 2.91911429
v -0.914048174 -1.33213937 2.97032452
v -0.914313296 -1.32951421 3.03451359
v -0.914383391 -1.4474504 2.91638303
v 0.0104069914 -1.44722128 2.91599172
v 0.0104768481 -1.32928455 3.03412259
v 0.0103879179 -1.33191031 2.96993363
v 0.0103578772 -1.38303638 2.91872269
v 0.0710129942 -1.38326538 2.91911381
v 0.0710432734 -1.33213866 2.97032452
v 0.0707781519 -1.32951325 3.03451359
v 0.0707071032 -1.44744933 2.91638225
v 0.995119115 -1.44722033 2.91599172
v 0.995188018 -1.32928395 3.03412259
v 0.995100995 -1.33190954 2.96993363
v 0.995070001 -1.3830353 2.91872269
v 1.05572512 -1.38326442 2.91911381
v 1.05575516 -1.33213747 2.97032452
v 1.05548908 -1.32951248 3.03451359
v 1.05542018 -1.44744837 2.91638225
v 1.97710504 -1.44721937 2.91599113
v 1.97717502 -1.32928318 3.03412259
v 1.97708704 -1.33190858 2.96993256
v 1.97705712 -1.38303435 2.91872251
v 2.03771104 -1.38326335 2.91911364
v 2.03774109 -1.33213711 2.97032452
v 2.03747596 -1.32951134 3.03451252
v 2.03740503 -1.44744837 2.91638207
vt 0.81565237 0.696792901
vt 0.734261096 0.710796893
vt 0.734202027 0.696792901
vt 0.815711677 0.71094662
vt 0.734202027 0.725650907
vt 0.734261096 0.710796893
vt 0.710391402 0.696792901
vt 0.734202027 0.521752417
vt 0.734202027 0.696792901
vt 0.710450709 0.710796893
vt 0.734202027 0.696792901
vt 0.734261096 0.710796893
vt 0.710391402 0.725650907
vt 0.734261096 0.710796893
vt 0.734202027 0.725650907
vt 0.81565237 0.521752417
vt 0.81565237 0.50313741
vt 0.847317815 0.521752417
vt 0.847317815 0.521752417
vt 0.81565237 0.696792901
vt 0.81565237 0.521752417
vt 0.847317576 0.696792901
vt 0.815711677 0.71094662
vt 0.81565237 0.696792901
vt 0.755092025 0.759693086
vt 0.724174201 0.775930405
vt 0.724174023 0.757204115
vt 0.755092025 0.775930405
vt 0.724174082 0.950970888
vt 0.724174201 0.775930405
vt 0.755092025 0.950970888
vt 0.723199189 0.965274274
vt 0.724174082 0.950970888
vt 0.75547123 0.979242086
vt 0.723199189 0.965274274
vt 0.755151093 0.96497488
vt 0.755092025 0.743840575
vt 0.724174023 0.757204115
vt 0.724174023 0.743840575
vt 0.785140216 0.759693086
vt 0.755092025 0.775930405
vt 0.755092025 0.759693086
vt 0.785140216 0.775930405
vt 0.755092025 0.950970888
vt 0.755092025 0.775930405
vt 0.785140097 0.950970888
vt 0.755151093 0.96497488
vt 0.755092025 0.950970888
vt 0.785519421 0.979242086
vt 0.755151093 0.96497488
vt 0.785199523 0.96497488
vt 0.785140216 0.743840575
vt 0.755092025 0.759693086
vt 0.755092025 0.743840575
vt 0.811672509 0.759693086
vt 0.785140216 0.775930405
vt 0.785140216 0.759693086
vt 0.811672509 0.775930405
vt 0.785140097 0.950970888
vt 0.785140216 0.775930405
vt 0.81167239 0.950970888
vt 0.785199523 0.96497488
vt 0.785140097 0.950970888
vt 0.812051594 0.979242086
vt 0.785199523 0.96497488
vt 0.811731398 0.96497488
vt 0.811672509 0.743840575
vt 0.785140216 0.759693086
vt 0.785140216 0.743840575
vt 0.185255095 0.685781717
vt 0.238179699 0.656536102
vt 0.238179699 0.685781717
vt 0.155830398 0.656536102
vt 0.185255095 0.592718422
vt 0.185255095 0.656536102
vt 0.267006487 0.656536102
vt 0.238179699 0.592718422
vt 0.267006487 0.592718422
vt 0.238179699 0.656536102
vt 0.185255095 0.592718422
vt 0.238179699 0.592718422
vt 0.511230111 0.416331112
vt 0.212186903 0.445011914
vt 0.198213205 0.416415602
vt 0.115054898 0.888315797
vt 0.0206791107 0.987503886
vt 0.115054898 0.499251306
vt 0.115054898 0.888315797
vt 0.568528414 0.860158324
vt 0.597157717 0.888315797
vt 0.115054898 0.499251306
vt 0.142290995 0.860398829
vt 0.115054898 0.888315797
vt 0.212186903 0.445011914
vt 0.115054898 0.499251306
vt 0.198213205 0.416415602
vt 0.568528414 0.513854802
vt 0.511230111 0.416331112
vt 0.597157717 0.502300203
vt 0.568528414 0.513854802
vt 0.597157717 0.756769717
vt 0.568528414 0.756839871
vt 0.597157717 0.840014517
vt 0.568528414 0.860158324
vt 0.568528414 0.840020001
vt 0.572220683 0.314658701
vt 0.634359598 0.301102608
vt 0.634378612 0.314810097
vt 0.643686473 0.756839871
vt 0.568528414 0.840020001
vt 0.568528414 0.756839871
vt 0.537446678 0.314550012
vt 0.572250128 0.300951391
vt 0.572220683 0.314658701
vt 0.669152319 0.31460771
vt 0.634359598 0.301102608
vt 0.690455616 0.300776005
vt 0.142290995 0.860398829
vt 0.568528414 0.701534927
vt 0.568528414 0.860158324
vt 0.604720414 0.0123187304
vt 0.365852386 0.295765311
vt 0.365852386 0.0123187304
vt 0.365852386 0.0123187304
vt 0.307810605 0.295765311
vt 0.307810605 0.0123187304
vt 0.604720414 0.0123187304
vt 0.696009219 0.295765311
vt 0.604720414 0.295765311
vt 0.238179699 0.592718422
vt 0.185255095 0.561749399
vt 0.238179699 0.561749399
vt 0.307697713 0.175594002
vt 0.0192063991 0.295765311
vt 0.0192065202 0.0123187304
vt 0.832736373 0.719963789
vt 0.844278276 0.728906512
vt 0.832736492 0.728906393
vt 0.822489679 0.719963908
vt 0.832736492 0.728906393
vt 0.822489798 0.728906512
vt 0.854525208 0.719963789
vt 0.844278276 0.728906512
vt 0.844278276 0.719963908
vt 0.832731426 0.728900671
vt 0.84427321 0.719447911
vt 0.84427321 0.72892791
vt 0.84427321 0.72892791
vt 0.854519725 0.719527721
vt 0.854519606 0.729007781
vt 0.822484672 0.719464898
vt 0.832731426 0.728900671
vt 0.822484791 0.728944778
vt 0.832731485 0.729016304
vt 0.844273329 0.719563603
vt 0.84427321 0.729043484
vt 0.84427321 0.729043484
vt 0.854519725 0.719643414
vt 0.854519725 0.729123473
vt 0.822484791 0.719580412
vt 0.832731485 0.729016304
vt 0.822484672 0.729060292
vt 0.832731485 0.728893578
vt 0.844273329 0.719440877
vt 0.844273329 0.728920698
vt 0.844273329 0.728920698
vt 0.854519725 0.719520628
vt 0.854519725 0.729000688
vt 0.822484672 0.719457805
vt 0.832731485 0.728893578
vt 0.822484791 0.728937685
vt 0.832731426 0.729008973
vt 0.844273388 0.719556212
vt 0.844273329 0.729036212
vt 0.844273329 0.729036212
vt 0.854519725 0.719636202
vt 0.854519725 0.729116201
vt 0.822484672 0.719573081
vt 0.832731426 0.729008973
vt 0.822484612 0.72905302
vt 0.832731485 0.729023576
vt 0.844273329 0.719570875
vt 0.844273329 0.729050815
vt 0.844273329 0.729050815
vt 0.854519725 0.719650626
vt 0.854519725 0.729130685
vt 0.822484672 0.719587803
vt 0.832731485 0.729023576
vt 0.822484791 0.729067624
vt 0.917966008 0.607634425
vt 0.981425703 0.59109962
vt 0.981425703 0.607634425
vt 0.981425822 0.607634425
vt 0.917966425 0.591099322
vt 0.981426001 0.59109962
vt 0.931011319 0.9636482
vt 0.994471014 0.613158405
vt 0.994470775 0.963648617
vt 0.712716103 0.993740201
vt 0.700665116 0.738292813
vt 0.712716103 0.738292873
vt 0.700665414 0.738292694
vt 0.712716401 0.993740201
vt 0.700664878 0.993740201
vt 0.981426179 0.607634425
vt 0.917966604 0.591099679
vt 0.981426418 0.591099679
vt 0.981425822 0.607634425
vt 0.917966306 0.591099322
vt 0.981425822 0.591099679
vt 0.533316612 0.552317202
vt 0.182826594 0.488857299
vt 0.533317029 0.488857597
vt 0.71271652 0.993740201
vt 0.700665414 0.738292813
vt 0.712715924 0.738292873
vt 0.70083338 0.993740201
vt 0.712884724 0.738292813
vt 0.712884724 0.993740201
vt 0.981426179 0.607634425
vt 0.917966485 0.591099918
vt 0.981426477 0.591099918
vt 0.981426001 0.607634425
vt 0.917966306 0.591099322
vt 0.98142612 0.59109962
vt 0.858517408 0.963057876
vt 0.92197752 0.612567425
vt 0.921977282 0.963058174
vt 0.700665176 0.99374038
vt 0.712716281 0.738292515
vt 0.712716281 0.993740201
vt 0.700833917 0.993740201
vt 0.712884724 0.738292396
vt 0.712884486 0.993740201
vt 0.981426477 0.607634485
vt 0.917966485 0.591099679
vt 0.981426477 0.591099679
vt 0.981425822 0.607634425
vt 0.917966425 0.591099203
vt 0.981426001 0.591099501
vt 0.533410788 0.552420199
vt 0.182919994 0.488959998
vt 0.533411205 0.488960713
vt 0.712884486 0.993740201
vt 0.700833917 0.738292217
vt 0.712884486 0.738292277
vt 0.700665176 0.993740201
vt 0.71271652 0.738292098
vt 0.712716281 0.993740022
vt 0.981425703 0.607634306
vt 0.917965889 0.59109962
vt 0.981425703 0.59109962
vt 0.981426179 0.607634425
vt 0.917966485 0.591099322
vt 0.981426179 0.59109962
vt 0.931013227 0.963596821
vt 0.9944731 0.613107204
vt 0.9944731 0.963597119
vt 0.712716103 0.99374032
vt 0.700665116 0.738292992
vt 0.712716699 0.738293111
vt 0.700665116 0.738292813
vt 0.712716103 0.993740201
vt 0.700665474 0.993740201
vt 0.917966008 0.607634425
vt 0.981425822 0.59109962
vt 0.981425822 0.607634425
vt 0.981426001 0.607634425
vt 0.917966127 0.591099322
vt 0.98142612 0.59109962
vt 0.533306479 0.552211821
vt 0.182816207 0.488751411
vt 0.533306897 0.488751799
vt 0.700665116 0.99374038
vt 0.712716222 0.738292575
vt 0.712716222 0.993740201
vt 0.700833797 0.993740201
vt 0.712884903 0.738292575
vt 0.712884426 0.993740201
vt 0.832808793 0.729128301
vt 0.844500303 0.719553888
vt 0.844499886 0.729156315
vt 0.844601512 0.728897929
vt 0.832707286 0.719682574
vt 0.844601512 0.719682515
vt 0.844601512 0.728897929
vt 0.855161071 0.719682693
vt 0.855161011 0.728898525
vt 0.822147727 0.719682574
vt 0.832707286 0.728898287
vt 0.822148025 0.728898287
vt 0.856759608 0.60730201
vt 0.903607309 0.595095515
vt 0.903607607 0.60730201
vt 0.857147574 0.606695473
vt 0.903995514 0.594489276
vt 0.903995275 0.606695771
vt 0.858380914 0.963559628
vt 0.922033012 0.612009108
vt 0.922032893 0.963559926
vt 0.701128483 0.994172096
vt 0.713335514 0.735430717
vt 0.713334918 0.994171977
vt 0.701152503 0.736352324
vt 0.713358104 0.995080113
vt 0.701152503 0.995080173
vt 0.981617212 0.591099203
vt 0.917965174 0.607684314
vt 0.917965174 0.591099203
vt 0.917966127 0.591190279
vt 0.981617928 0.607775629
vt 0.917965889 0.607775271
vt 0.533852875 0.552400827
vt 0.182301894 0.488748103
vt 0.533853173 0.488748789
vt 0.700913429 0.736401379
vt 0.713088572 0.994491875
vt 0.700912297 0.994491696
vt 0.712992728 0.736401618
vt 0.700816929 0.994491875
vt 0.700817525 0.736401618
vt 0.857664824 0.606947422
vt 0.903016508 0.595130682
vt 0.903016508 0.606947601
vt 0.858378172 0.60658443
vt 0.903730273 0.594768107
vt 0.903729975 0.606584787
vt 0.930903614 0.964082301
vt 0.994508624 0.612791002
vt 0.994508624 0.964082479
vt 0.701025307 0.991612971
vt 0.712841809 0.741132498
vt 0.712841809 0.991612911
vt 0.700956821 0.741132379
vt 0.712773204 0.991612792
vt 0.700956225 0.991612911
vt 0.981616974 0.591099203
vt 0.917965293 0.607684314
vt 0.917965174 0.591099203
vt 0.981617689 0.591190279
vt 0.917965829 0.607774615
vt 0.917965889 0.591189921
vt 0.533853471 0.552400827
vt 0.182301894 0.488748103
vt 0.533853889 0.488748699
vt 0.700913429 0.736401021
vt 0.713088572 0.994491875
vt 0.700912714 0.994491875
vt 0.712992728 0.994492114
vt 0.700817525 0.736401081
vt 0.712992728 0.736401021
vt 0.857161999 0.606624901
vt 0.9040097 0.594418228
vt 0.9040097 0.606624901
vt 0.857180595 0.606696129
vt 0.904028296 0.594489872
vt 0.904028296 0.606696427
vt 0.922077477 0.96356082
vt 0.858425975 0.612009227
vt 0.922077775 0.612009227
vt 0.71336782 0.994172513
vt 0.701161504 0.735430777
vt 0.71336782 0.735430777
vt 0.701185107 0.995080829
vt 0.713391423 0.736352503
vt 0.713391185 0.995080709
vt 0.981617212 0.591099203
vt 0.917965889 0.607684314
vt 0.917965829 0.591099322
vt 0.917965412 0.591191411
vt 0.981617212 0.607776403
vt 0.917965412 0.607776225
vt 0.5338521 0.552400112
vt 0.182301894 0.488748699
vt 0.533852279 0.488748312
vt 0.700913012 0.736402094
vt 0.713089108 0.994491875
vt 0.700912476 0.994491875
vt 0.712992728 0.736402094
vt 0.700816929 0.994491875
vt 0.700816929 0.736402214
vt 0.844314814 0.719631016
vt 0.83261162 0.728698492
vt 0.83261162 0.719631195
vt 0.822725773 0.719871223
vt 0.833115697 0.728938699
vt 0.822725773 0.728938699
vt 0.855208874 0.719871223
vt 0.844819129 0.728938699
vt 0.84481889 0.719871223
vt 0.832596183 0.729284406
vt 0.844299912 0.71930021
vt 0.844299614 0.729311526
vt 0.843795478 0.729071319
vt 0.854185522 0.719138503
vt 0.854185522 0.729092777
vt 0.821702719 0.719075799
vt 0.832092226 0.729044318
vt 0.821702302 0.729030073
vt 0.8327384 0.729082823
vt 0.844442129 0.719300628
vt 0.844441772 0.729110718
vt 0.844441772 0.729110718
vt 0.854831576 0.719380617
vt 0.854831576 0.729133308
vt 0.822349012 0.719316781
vt 0.8327384 0.729082823
vt 0.822348475 0.729069471
vt 0.832696319 0.72908318
vt 0.84439981 0.719300985
vt 0.844399571 0.729111016
vt 0.844399571 0.729111016
vt 0.854789615 0.719380915
vt 0.854789615 0.729133427
vt 0.822306812 0.719317079
vt 0.832696319 0.72908318
vt 0.822306275 0.72906971
vt 0.832819402 0.729082823
vt 0.844523013 0.719300628
vt 0.844522774 0.729110718
vt 0.844522774 0.729110718
vt 0.854912817 0.719380617
vt 0.854912817 0.729133308
vt 0.822430015 0.719316781
vt 0.832819402 0.729082823
vt 0.822429478 0.729069471
vt 0.822429478 0.729115486
vt 0.822430015 0.7195701
vt 0.990471184 0.612469375
vt 0.844499886 0.729156315
vt 0.844500303 0.719553888
vt 0.8548792 0.719635129
vt 0.710391402 0.505515099
vt 0.710391402 0.489893913
vt 0.734202027 0.489893913
vt 0.829915702 0.737533271
vt 0.845361888 0.731918097
vt 0.839257777 0.737533391
vt 0.834948719 0.743840575
vt 0.811672509 0.775930405
vt 0.811672509 0.759693086
vt 0.984430075 0.1415499
vt 0.696009219 0.295765311
vt 0.898380816 0.0123187304
vt 0.690378308 0.987503886
vt 0.643768013 0.756769717
vt 0.690378428 0.317804694
vt 0.845817983 0.73171401
vt 0.829779088 0.737544477
vt 0.823440909 0.73171401
vt 0.81565237 0.696792901
vt 0.734202027 0.521752417
vt 0.81565237 0.521752417
vt 0.81565237 0.696792901
vt 0.815711677 0.71094662
vt 0.734261096 0.710796893
vt 0.815711677 0.71094662
vt 0.81565237 0.725650907
vt 0.734202027 0.725650907
vt 0.710391402 0.696792901
vt 0.710391402 0.521752417
vt 0.734202027 0.521752417
vt 0.710450709 0.710796893
vt 0.710391402 0.696792901
vt 0.734202027 0.696792901
vt 0.710391402 0.725650907
vt 0.710450709 0.710796893
vt 0.734261096 0.710796893
vt 0.81565237 0.521752417
vt 0.734202027 0.521752417
vt 0.81565237 0.50313741
vt 0.710391402 0.521752417
vt 0.710391402 0.505515099
vt 0.734202027 0.521752417
vt 0.81565237 0.50313741
vt 0.847317517 0.503026128
vt 0.847317815 0.521752417
vt 0.734202027 0.521752417
vt 0.710391402 0.505515099
vt 0.81565237 0.50313741
vt 0.847317815 0.521752417
vt 0.847317576 0.696792901
vt 0.81565237 0.696792901
vt 0.847317576 0.696792901
vt 0.846342623 0.711096406
vt 0.815711677 0.71094662
vt 0.755092025 0.759693086
vt 0.755092025 0.775930405
vt 0.724174201 0.775930405
vt 0.755092025 0.775930405
vt 0.755092025 0.950970888
vt 0.724174082 0.950970888
vt 0.755092025 0.950970888
vt 0.755151093 0.96497488
vt 0.723199189 0.965274274
vt 0.75547123 0.979242086
vt 0.723519206 0.979242086
vt 0.723199189 0.965274274
vt 0.755092025 0.743840575
vt 0.755092025 0.759693086
vt 0.724174023 0.757204115
vt 0.785140216 0.759693086
vt 0.785140216 0.775930405
vt 0.755092025 0.775930405
vt 0.785140216 0.775930405
vt 0.785140097 0.950970888
vt 0.755092025 0.950970888
vt 0.785140097 0.950970888
vt 0.785199523 0.96497488
vt 0.755151093 0.96497488
vt 0.785519421 0.979242086
vt 0.75547123 0.979242086
vt 0.755151093 0.96497488
vt 0.785140216 0.743840575
vt 0.785140216 0.759693086
vt 0.755092025 0.759693086
vt 0.811672509 0.759693086
vt 0.811672509 0.775930405
vt 0.785140216 0.775930405
vt 0.811672509 0.775930405
vt 0.81167239 0.950970888
vt 0.785140097 0.950970888
vt 0.81167239 0.950970888
vt 0.811731398 0.96497488
vt 0.785199523 0.96497488
vt 0.812051594 0.979242086
vt 0.785519421 0.979242086
vt 0.785199523 0.96497488
vt 0.811672509 0.743840575
vt 0.811672509 0.759693086
vt 0.785140216 0.759693086
vt 0.185255095 0.685781717
vt 0.185255095 0.656536102
vt 0.238179699 0.656536102
vt 0.155830398 0.656536102
vt 0.155830398 0.592718422
vt 0.185255095 0.592718422
vt 0.267006487 0.656536102
vt 0.238179699 0.656536102
vt 0.238179699 0.592718422
vt 0.238179699 0.656536102
vt 0.185255095 0.656536102
vt 0.185255095 0.592718422
vt 0.511230111 0.416331112
vt 0.4992342 0.445044994
vt 0.212186903 0.445011914
vt 0.690378428 0.317804694
vt 0.597157717 0.502300203
vt 0.511230111 0.416331112
vt 0.690378428 0.317804694
vt 0.511230111 0.416331112
vt 0.0208859406 0.318022698
vt 0.643768013 0.840014517
vt 0.643768013 0.756769717
vt 0.690378308 0.987503886
vt 0.597157717 0.888315797
vt 0.597157717 0.840014517
vt 0.643768013 0.840014517
vt 0.597157717 0.888315797
vt 0.643768013 0.840014517
vt 0.690378308 0.987503886
vt 0.0208859406 0.318022698
vt 0.511230111 0.416331112
vt 0.198213205 0.416415602
vt 0.0208859406 0.318022698
vt 0.198213205 0.416415602
vt 0.115054898 0.499251306
vt 0.597157717 0.888315797
vt 0.690378308 0.987503886
vt 0.115054898 0.888315797
vt 0.0208859406 0.318022698
vt 0.115054898 0.499251306
vt 0.0206791107 0.987503886
vt 0.115054898 0.888315797
vt 0.690378308 0.987503886
vt 0.0206791107 0.987503886
vt 0.115054898 0.888315797
vt 0.142290995 0.860398829
vt 0.568528414 0.860158324
vt 0.115054898 0.499251306
vt 0.142290995 0.513719201
vt 0.142290995 0.860398829
vt 0.212186903 0.445011914
vt 0.142290995 0.513719201
vt 0.115054898 0.499251306
vt 0.568528414 0.513854802
vt 0.4992342 0.445044994
vt 0.511230111 0.416331112
vt 0.568528414 0.513854802
vt 0.597157717 0.502300203
vt 0.597157717 0.756769717
vt 0.597157717 0.840014517
vt 0.597157717 0.888315797
vt 0.568528414 0.860158324
vt 0.572220683 0.314658701
vt 0.572250128 0.300951391
vt 0.634359598 0.301102608
vt 0.643686473 0.756839871
vt 0.643750012 0.840020001
vt 0.568528414 0.840020001
vt 0.537446678 0.314550012
vt 0.516153693 0.300776005
vt 0.572250128 0.300951391
vt 0.669152319 0.31460771
vt 0.634378612 0.314810097
vt 0.634359598 0.301102608
vt 0.142290995 0.860398829
vt 0.142290995 0.701534927
vt 0.568528414 0.701534927
vt 0.604720414 0.0123187304
vt 0.604720414 0.295765311
vt 0.365852386 0.295765311
vt 0.365852386 0.0123187304
vt 0.365852386 0.295765311
vt 0.307810605 0.295765311
vt 0.604720414 0.0123187304
vt 0.696009219 0.0123187304
vt 0.696009219 0.295765311
vt 0.238179699 0.592718422
vt 0.185255095 0.592718422
vt 0.185255095 0.561749399
vt 0.0192065202 0.0123187304
vt 0.307810605 0.0123187304
vt 0.307697713 0.175594002
vt 0.307697713 0.175594002
vt 0.307810605 0.295765311
vt 0.0192063991 0.295765311
vt 0.832736373 0.719963789
vt 0.844278276 0.719963908
vt 0.844278276 0.728906512
vt 0.822489679 0.719963908
vt 0.832736373 0.719963789
vt 0.832736492 0.728906393
vt 0.854525208 0.719963789
vt 0.854525089 0.728906512
vt 0.844278276 0.728906512
vt 0.832731426 0.728900671
vt 0.832731426 0.719420671
vt 0.84427321 0.719447911
vt 0.84427321 0.72892791
vt 0.84427321 0.719447911
vt 0.854519725 0.719527721
vt 0.822484672 0.719464898
vt 0.832731426 0.719420671
vt 0.832731426 0.728900671
vt 0.832731485 0.729016304
vt 0.832731485 0.719536304
vt 0.844273329 0.719563603
vt 0.84427321 0.729043484
vt 0.844273329 0.719563603
vt 0.854519725 0.719643414
vt 0.822484791 0.719580412
vt 0.832731485 0.719536304
vt 0.832731485 0.729016304
vt 0.832731485 0.728893578
vt 0.832731485 0.719413579
vt 0.844273329 0.719440877
vt 0.844273329 0.728920698
vt 0.844273329 0.719440877
vt 0.854519725 0.719520628
vt 0.822484672 0.719457805
vt 0.832731485 0.719413579
vt 0.832731485 0.728893578
vt 0.832731426 0.729008973
vt 0.832731426 0.719528973
vt 0.844273388 0.719556212
vt 0.844273329 0.729036212
vt 0.844273388 0.719556212
vt 0.854519725 0.719636202
vt 0.822484672 0.719573081
vt 0.832731426 0.719528973
vt 0.832731426 0.729008973
vt 0.832731485 0.729023576
vt 0.832731605 0.719543517
vt 0.844273329 0.719570875
vt 0.844273329 0.729050815
vt 0.844273329 0.719570875
vt 0.854519725 0.719650626
vt 0.822484672 0.719587803
vt 0.832731605 0.719543517
vt 0.832731485 0.729023576
vt 0.917966008 0.607634425
vt 0.917966008 0.591099679
vt 0.981425703 0.59109962
vt 0.981425822 0.607634425
vt 0.917965889 0.607634187
vt 0.917966425 0.591099322
vt 0.931011319 0.9636482
vt 0.931011379 0.613158405
vt 0.994471014 0.613158405
vt 0.712716103 0.993740201
vt 0.700664878 0.99374038
vt 0.700665116 0.738292813
vt 0.700665414 0.738292694
vt 0.71271652 0.738292813
vt 0.712716401 0.993740201
vt 0.981426179 0.607634425
vt 0.917966485 0.607634425
vt 0.917966604 0.591099679
vt 0.981425822 0.607634425
vt 0.917966127 0.607634127
vt 0.917966306 0.591099322
vt 0.533316612 0.552317202
vt 0.182826594 0.552317202
vt 0.182826594 0.488857299
vt 0.71271652 0.993740201
vt 0.700665176 0.99374038
vt 0.700665414 0.738292813
vt 0.70083338 0.993740201
vt 0.700833917 0.738292813
vt 0.712884724 0.738292813
vt 0.981426179 0.607634425
vt 0.917966485 0.607634425
vt 0.917966485 0.591099918
vt 0.981426001 0.607634425
vt 0.917966008 0.607634127
vt 0.917966306 0.591099322
vt 0.858517408 0.963057876
vt 0.858517826 0.612567425
vt 0.92197752 0.612567425
vt 0.700665176 0.99374038
vt 0.700665414 0.738292396
vt 0.712716281 0.738292515
vt 0.700833917 0.993740201
vt 0.700833917 0.738292217
vt 0.712884724 0.738292396
vt 0.981426477 0.607634485
vt 0.917966485 0.607634425
vt 0.917966485 0.591099679
vt 0.981425822 0.607634425
vt 0.917966127 0.607634187
vt 0.917966425 0.591099203
vt 0.533410788 0.552420199
vt 0.182919994 0.55242002
vt 0.182919994 0.488959998
vt 0.712884486 0.993740201
vt 0.700833321 0.99374032
vt 0.700833917 0.738292217
vt 0.700665176 0.993740201
vt 0.700665593 0.738291979
vt 0.71271652 0.738292098
vt 0.981425703 0.607634306
vt 0.917966008 0.607634425
vt 0.917965889 0.59109962
vt 0.981426179 0.607634425
vt 0.917966127 0.607634187
vt 0.917966485 0.591099322
vt 0.931013227 0.963596821
vt 0.931013525 0.613107204
vt 0.9944731 0.613107204
vt 0.712716103 0.99374032
vt 0.700665116 0.99374038
vt 0.700665116 0.738292992
vt 0.700665116 0.738292813
vt 0.712716222 0.738293111
vt 0.712716103 0.993740201
vt 0.917966008 0.607634425
vt 0.917965829 0.591099799
vt 0.981425822 0.59109962
vt 0.981426001 0.607634425
vt 0.917966127 0.607634127
vt 0.917966127 0.591099322
vt 0.533306479 0.552211821
vt 0.182816207 0.552211225
vt 0.182816207 0.488751411
vt 0.700665116 0.99374038
vt 0.700665414 0.738292575
vt 0.712716222 0.738292575
vt 0.700833797 0.993740201
vt 0.700833917 0.738292396
vt 0.712884903 0.738292575
vt 0.832808793 0.729128301
vt 0.83280921 0.719525814
vt 0.844500303 0.719553888
vt 0.844601512 0.728897929
vt 0.832707286 0.728898287
vt 0.832707286 0.719682574
vt 0.844601512 0.728897929
vt 0.844601512 0.719682515
vt 0.855161071 0.719682693
vt 0.822147727 0.719682574
vt 0.832707286 0.719682574
vt 0.832707286 0.728898287
vt 0.856759608 0.60730201
vt 0.856759608 0.595095515
vt 0.903607309 0.595095515
vt 0.857147574 0.606695473
vt 0.857147574 0.594489098
vt 0.903995514 0.594489276
vt 0.858380914 0.963559628
vt 0.858381093 0.612009108
vt 0.922033012 0.612009108
vt 0.701128483 0.994172096
vt 0.701128483 0.735430717
vt 0.713335514 0.735430717
vt 0.701152503 0.736352324
vt 0.713358283 0.736352324
vt 0.713358104 0.995080113
vt 0.981617212 0.591099203
vt 0.981617212 0.607684076
vt 0.917965174 0.607684314
vt 0.917966127 0.591190279
vt 0.981617808 0.591190875
vt 0.981617928 0.607775629
vt 0.533852875 0.552400827
vt 0.182301894 0.552400112
vt 0.182301894 0.488748103
vt 0.700913429 0.736401379
vt 0.713089108 0.736401379
vt 0.713088572 0.994491875
vt 0.712992728 0.736401618
vt 0.712992728 0.994492114
vt 0.700816929 0.994491875
vt 0.857664824 0.606947422
vt 0.857664526 0.595130801
vt 0.903016508 0.595130682
vt 0.858378172 0.60658443
vt 0.858378172 0.594767928
vt 0.903730273 0.594768107
vt 0.930903614 0.964082301
vt 0.93090409 0.612791002
vt 0.994508624 0.612791002
vt 0.701025307 0.991612971
vt 0.701025307 0.741132498
vt 0.712841809 0.741132498
vt 0.700956821 0.741132379
vt 0.712773502 0.741132379
vt 0.712773204 0.991612792
vt 0.981616974 0.591099203
vt 0.981617212 0.607684016
vt 0.917965293 0.607684314
vt 0.981617689 0.591190279
vt 0.981617928 0.607774973
vt 0.917965829 0.607774615
vt 0.533853471 0.552400827
vt 0.182301894 0.552399874
vt 0.182301894 0.488748103
vt 0.700913429 0.736401021
vt 0.713089108 0.736400902
vt 0.713088572 0.994491875
vt 0.712992728 0.994492114
vt 0.70081681 0.994491875
vt 0.700817525 0.736401081
vt 0.857161999 0.606624901
vt 0.857161999 0.594418406
vt 0.9040097 0.594418228
vt 0.857180595 0.606696129
vt 0.857180595 0.594489694
vt 0.904028296 0.594489872
vt 0.922077477 0.96356082
vt 0.858425796 0.963560522
vt 0.858425975 0.612009227
vt 0.71336782 0.994172513
vt 0.701161325 0.994172692
vt 0.701161504 0.735430777
vt 0.701185107 0.995080829
vt 0.701185524 0.736352324
vt 0.713391423 0.736352503
vt 0.981617212 0.591099203
vt 0.98161751 0.607683897
vt 0.917965889 0.607684314
vt 0.917965412 0.591191411
vt 0.981617093 0.591191709
vt 0.981617212 0.607776403
vt 0.5338521 0.552400112
vt 0.182301894 0.552400112
vt 0.182301894 0.488748699
vt 0.700913012 0.736402094
vt 0.71308881 0.736401975
vt 0.713089108 0.994491875
vt 0.712992728 0.736402094
vt 0.712992728 0.994492114
vt 0.700816929 0.994491875
vt 0.844314814 0.719631016
vt 0.844314992 0.728698492
vt 0.83261162 0.728698492
vt 0.822725773 0.719871223
vt 0.833115697 0.719871283
vt 0.833115697 0.728938699
vt 0.855208874 0.719871223
vt 0.855208993 0.728938878
vt 0.844819129 0.728938699
vt 0.832596183 0.729284406
vt 0.832596719 0.71927309
vt 0.844299912 0.71930021
vt 0.843795478 0.729071319
vt 0.843795776 0.719060004
vt 0.854185522 0.719138503
vt 0.821702719 0.719075799
vt 0.832092524 0.719033003
vt 0.832092226 0.729044318
vt 0.8327384 0.729082823
vt 0.832738817 0.71927309
vt 0.844442129 0.719300628
vt 0.844441772 0.729110718
vt 0.844442129 0.719300628
vt 0.854831576 0.719380617
vt 0.822349012 0.719316781
vt 0.832738817 0.71927309
vt 0.8327384 0.729082823
vt 0.832696319 0.72908318
vt 0.832696676 0.719273329
vt 0.84439981 0.719300985
vt 0.844399571 0.729111016
vt 0.84439981 0.719300985
vt 0.854789615 0.719380915
vt 0.822306812 0.719317079
vt 0.832696676 0.719273329
vt 0.832696319 0.72908318
vt 0.832819402 0.729082823
vt 0.8328197 0.71927309
vt 0.844523013 0.719300628
vt 0.844522774 0.729110718
vt 0.844523013 0.719300628
vt 0.854912817 0.719380617
vt 0.822430015 0.719316781
vt 0.8328197 0.71927309
vt 0.832819402 0.729082823
vt 0.83280921 0.719525814
vt 0.990471184 0.612469375
vt 0.822430015 0.7195701
vt 0.980092585 0.612637818
vt 0.822429478 0.729115486
vt 0.990471184 0.612469375
vt 0.8548792 0.719635129
vt 0.985328317 0.612334728
vt 0.844499886 0.729156315
vt 0.985329211 0.612436473
vt 0.844499886 0.729156315
vt 0.985328317 0.612334728
vt 0.734202027 0.489893913
vt 0.81565237 0.489893913
vt 0.81565237 0.50313741
vt 0.81565237 0.50313741
vt 0.710391402 0.505515099
vt 0.734202027 0.489893913
vt 0.829915702 0.737533271
vt 0.823811471 0.731918097
vt 0.845361888 0.731918097
vt 0.835327923 0.979242086
vt 0.812051594 0.979242086
vt 0.811731398 0.96497488
vt 0.811731398 0.96497488
vt 0.81167239 0.950970888
vt 0.835327923 0.979242086
vt 0.811672509 0.759693086
vt 0.811672509 0.743840575
vt 0.834948719 0.743840575
vt 0.81167239 0.950970888
vt 0.811672509 0.775930405
vt 0.835327923 0.979242086
vt 0.834948719 0.743840575
vt 0.835327923 0.979242086
vt 0.811672509 0.775930405
vt 0.898380816 0.0123187304
vt 0.967657804 0.0123187304
vt 0.984430075 0.1415499
vt 0.984430075 0.1415499
vt 0.984430313 0.295765311
vt 0.696009219 0.295765311
vt 0.967657804 0.0123187304
vt 0.984430313 0.0123187304
vt 0.984430075 0.1415499
vt 0.696009219 0.295765311
vt 0.696009219 0.0123187304
vt 0.898380816 0.0123187304
vt 0.597157717 0.502300203
vt 0.690378428 0.317804694
vt 0.643768013 0.756769717
vt 0.643768013 0.756769717
vt 0.597157717 0.756769717
vt 0.597157717 0.502300203
vt 0.845817983 0.73171401
vt 0.839479685 0.737544477
vt 0.829779088 0.737544477
vt 0.81565237 0.696792901
vt 0.734202027 0.696792901
vt 0.734202027 0.521752417
vn 0 0.100000001 6.5168301e-08
vn 0 6.5168301e-08 -0.100000001
vn -0.100000001 0 0
vn 0 -6.5168301e-08 0.100000001
vn 0.0150062395 -0.011032586 -0.098250173
vn 0.0133185005 -0.0377245098 -0.0916486755
vn 0.0141303707 -0.0110997558 -0.0983723998
vn 0.0152777405 -0.0329420008 -0.0931741223
vn 0.0121893696 -0.0528409034 -0.0840194076
vn 0.00899689738 -0.0110629462 -0.098978132
vn 0.0140936403 0.0109075345 -0.0983991772
vn 0.00838062074 -0.0378256701 -0.0921899304
vn 0.00768480822 -0.0528444871 -0.0845482498
vn 0.0149695696 0.00922290608 -0.0984421298
vn 0.0143653899 0.0319140106 -0.093675673
vn 0.000683617487 0.00977523252 -0.0995187387
vn 0.000387585111 -0.0114535745 -0.099341169
vn -0.0204414297 0.0338758416 -0.0918399617
vn 0.00330520212 0.033604499 -0.0941265896
vn -0.0164434593 0.00889930502 -0.0982365236
vn -0.0151007697 -0.0118046654 -0.0981459022
vn -0.00111395109 -0.0360401608 -0.0932730734
vn -0.0239329208 -0.0568230785 -0.0787296295
vn -0.0237652604 -0.0378558896 -0.089454703
vn -0.0228315797 0.0544955544 -0.080678083
vn -0.000125122009 0.0576563515 -0.0817051455
vn -0.0469447784 0.0207623262 -0.0858202428
vn -0.0307145305 0.00318016019 -0.0951131135
vn -0.0316086225 -0.0068636816 -0.0946244448
vn -0.0571023226 -0.043459978 -0.0696459413
vn -0.0501863435 -0.0198284965 -0.0841912329
vn -0.0583440028 0.0378471911 -0.0718579739
vn -0.0644778013 0.00371422875 -0.0763467029
vn -0.0602171719 -0.000881947693 -0.0798317939
vn -0.0580810905 -0.000704938779 -0.0814008117
vn -0.0779827759 -0.0206614919 -0.0590913855
vn -0.0542714484 -0.000439410273 -0.0839905813
vn -0.0788532421 0.0152078988 -0.0595893227
vn 0 -0.100000001 -7.50899176e-10
vn -0.0841552615 -1.46905013e-05 0.0540175326
vn -0.100000001 5.14323006e-07 3.35175545e-13
vn -0.0837692991 -6.15250855e-08 -0.0546141528
vn -0.0828710943 -0.0559677146 -3.64732067e-08
vn -0.0853813216 -0.0367544927 0.0368664674
vn -0.0840461627 0.0383413061 0.0382908359
vn -0.0841878131 0.0539667904 1.4148769e-05
vn -0.0841333792 0.0540513285 0.000170158717
vn -0.000443094934 0.0999990329 -1.27762334e-07
vn 2.86733994e-05 6.5168301e-08 -0.100000001
vn -0.000382447208 -6.51678249e-08 0.0999992713
vn -1.72896009e-07 5.64929651e-05 -0.0999999866
vn 5.22891987e-08 1.14524319e-05 0.100000001
vn 9.66971001e-08 -0.0702067837 0.0712110102
vn -3.91063004e-08 0.0705411509 0.0708798021
vn 1.01028e-07 -0.0999999866 5.13251289e-05
vn 0.000156068811 -0.0707700774 -0.0706510693
vn 8.89283037e-05 -0.0999164134 -0.00408726837
vn 0.000143218014 -0.00425140327 -0.0999094918
vn -0.000735920621 -0.0707665384 -0.0706509501
vn -0.000409901113 -0.0999155864 -0.00408747699
vn -0.000673609902 -0.00425190898 -0.0999073088
vn -0.000736796821 -0.0707668588 -0.0706506222
vn -0.00041063418 -0.0999156162 -0.00408711936
vn -0.000673383416 -0.0042522368 -0.0999072939
vn -0.000737607421 -0.0707672313 -0.0706502497
vn -0.000410711713 -0.0999155715 -0.00408790633
vn -0.000673359609 -0.00425215997 -0.0999072939
vn -0.000736331916 -0.0707671121 -0.0706503689
vn -0.000410699809 -0.0999155864 -0.00408783415
vn -0.000673371542 -0.00425186194 -0.0999073088
vn -0.000736063754 -0.0707667992 -0.0706506819
vn -0.000410223001 -0.0999155566 -0.00408836547
vn -0.000673371542 -0.00425174227 -0.0999073163
vn 0.0999998674 8.24929011e-05 0.000141000754
vn -0.0999998823 -7.77644091e-05 -0.000137901341
vn 0.000157392002 -0.0707689151 -0.0706522316
vn -4.15023023e-05 -0.0706523135 0.0707689747
vn 4.15732029e-05 0.0706512406 -0.0707700551
vn 0.0999998823 8.1967708e-05 0.000139898053
vn -0.0999998823 -8.1967708e-05 -0.000141429962
vn 0.000157356204 -0.070768781 -0.0706523657
vn -4.15501017e-05 -0.070652701 0.0707685947
vn 4.15085015e-05 0.0706519857 -0.07076931
vn 0.0999998674 8.30187055e-05 0.000141751749
vn -0.0999998674 -8.30181089e-05 -0.000139898053
vn 0.000157487302 -0.0707684681 -0.0706526786
vn -4.16177027e-05 -0.0706525669 0.0707687438
vn 4.15663017e-05 0.070653446 -0.0707678497
vn 0.0999998674 8.30183126e-05 0.000141835262
vn -0.0999998823 -7.98659021e-05 -0.000139570257
vn 0.000157332397 -0.0707688183 -0.070652321
vn -4.15262002e-05 -0.0706524178 0.0707688928
vn 4.14806018e-05 0.0706524253 -0.0707688779
vn 0.0999998823 8.24927047e-05 0.000141525248
vn -0.0999998823 -7.88150137e-05 -0.000138914562
vn 0.000157356204 -0.0707688406 -0.0706523061
vn -4.14905007e-05 -0.0706522167 0.0707690865
vn 4.15258e-05 0.0706522837 -0.070769012
vn 0.0999998823 8.23615046e-05 0.000140696764
vn -0.0999998674 -8.03905059e-05 -0.000140285454
vn 0.000157374103 -0.0707688108 -0.0706523508
vn -4.15065006e-05 -0.0706523731 0.0707689226
vn 4.15973009e-05 0.070652388 -0.0707689151
vn 0.000736343849 0.0707666725 -0.0706508085
vn -0.000154203095 0.0707689077 -0.070652239
vn -8.55879989e-05 0.0999164432 -0.00408629188
vn -0.000142967707 0.00425161002 -0.0999094769
vn -0.0999998823 -8.24927993e-05 0.000142210643
vn 0.0999998674 7.9339894e-05 -0.000139570155
vn -0.000157409901 0.070768632 -0.0706525072
vn 4.14500028e-05 0.0706522763 0.0707690269
vn -4.15505019e-05 -0.0706533268 -0.0707679763
vn -0.0999998674 -8.24924937e-05 0.000140648946
vn 0.0999998674 8.19682973e-05 -0.000140517848
vn -0.000157392002 0.0707686916 -0.0706524476
vn 4.15616014e-05 0.0706520453 0.0707692504
vn -4.16147996e-05 -0.0706532001 -0.070768103
vn -0.0999998823 -8.27547919e-05 0.000141912547
vn 0.0999998674 8.22301954e-05 -0.000141757657
vn -0.000157481394 0.0707685277 -0.0706526116
vn 4.15287032e-05 0.0706520975 0.0707692057
vn -4.15026989e-05 -0.070653066 -0.0707682371
vn -0.0999998674 -8.03897929e-05 0.000140052944
vn 0.0999998674 8.17047985e-05 -0.000140285352
vn -0.000157451592 0.070768334 -0.0706528127
vn 4.15256036e-05 0.0706513599 0.0707699507
vn -4.14915994e-05 -0.0706545711 -0.0707667321
vn -0.0999998674 -8.09157937e-05 0.000139570155
vn 0.0999998674 8.26241958e-05 -0.000141042343
vn -0.000157385992 0.0707686916 -0.0706524476
vn 4.14423994e-05 0.0706513971 0.070769906
vn -4.16701005e-05 -0.0706543699 -0.0707669407
vn -0.0999998823 -8.15724998e-05 0.000140285352
vn 0.0999998674 8.06531971e-05 -0.000140017146
vn -0.000157392002 0.0707688555 -0.0706522837
vn 4.1466501e-05 0.0706518367 0.0707694665
vn -4.1515701e-05 -0.0706520751 -0.0707692206
vn -0.000155740898 0.0707689002 -0.0706522539
vn -8.65799011e-05 0.0999164209 -0.00408682181
vn -0.000143533907 0.00425170641 -0.0999094695
vn 0.000707131578 0.0707666725 -0.0706510916
vn 0.000396901334 0.0999157429 -0.0040849871
vn 0.00065024494 0.00424836855 -0.0999076143
vn 0.000721895602 0.0707662106 -0.0706514269
vn 0.000405418774 0.0999157205 -0.0040846467
vn 0.000663441431 0.00424870104 -0.09990751
vn 0.000721377088 0.0707668141 -0.070650816
vn 0.000405097002 0.0999157205 -0.00408492098
vn 0.000663185143 0.0042487313 -0.09990751
vn 0.000722694327 0.0707666352 -0.0706509948
vn 0.000404560531 0.0999156758 -0.00408570189
vn 0.000663679792 0.00424866611 -0.09990751
vn 0.000677645206 0.00424855202 -0.0999074206
vn 0.000410234876 0.0999155715 -0.00408807397
vn 0.0123663004 0.0351884775 -0.0927838758
vn 0.00784650352 0.0498715974 -0.0863206759
vn 0.0112738302 0.0500883199 -0.0858141109
vn -0.0999998674 -8.72667006e-05 0.000140106538
vn -0.0869274065 0.00527371932 -0.0491509251
vn 4.44873986e-05 0.0999999717 7.347067e-05
vn -0.100000001 -1.51251044e-07 7.3141905e-08
vn -0.0999998674 -8.1967708e-05 -0.000140041157
vn 0.0166419297 -0.0529745631 -0.0831669569
vn 0.00900312047 0.0105138747 -0.0990373865
vn -0.000122070305 -0.0567193478 -0.0823583826
vn 0 -0.100000001 -7.51302798e-10
vn -0.0842539743 6.16436819e-06 0.0538634434
vn -0.100000001 -9.89070088e-08 1.60854938e-07
vn -0.100000001 -7.16175919e-08 1.41431954e-07
vn -0.100000001 -8.11201005e-07 -5.28645866e-13
vn -0.100000001 -1.72451081e-07 1.40726897e-07
vn -0.100000001 -1.0026406e-07 9.02321347e-08
vn -0.100000001 -1.03215051e-07 8.90497347e-08
vn -0.100000001 -9.87330253e-08 1.82295935e-07
vn -0.100000001 -7.15313361e-14 1.09764009e-07
vn -0.100000001 -4.73841517e-08 5.32987997e-07
vn -0.083540082 3.098042e-05 -0.0549641214
vn -0.0830473006 -0.0557059124 2.85919978e-05
vn -0.0849123448 -0.037082959 0.0376131758
vn -0.0843320936 0.0379094444 0.0380916335
vn -0.0842420831 0.0538820326 3.51140059e-08
vn -0.0840786621 0.0541366823 3.52799567e-08
vn -9.74151044e-05 0.099999927 7.63330681e-05
vn 2.86464001e-05 6.5168301e-08 -0.100000001
vn -0.000382506812 -6.5167832e-08 0.0999992788
vn -2.2616301e-07 5.6474968e-05 -0.0999999866
vn 4.25615028e-08 1.1463032e-05 0.100000001
vn 1.01345996e-07 -0.0702068061 0.0712109953
vn -3.9435502e-08 0.0705411881 0.0708797723
vn 6.40030962e-08 -0.0999999866 5.13141349e-05
vn 5.3710103e-08 -0.0999999866 5.13385312e-05
vn 0.000156801907 -0.0707678497 -0.070653297
vn 8.72755045e-05 -0.0999163985 -0.00408744114
vn 0.000144553109 -0.00425109267 -0.0999095067
vn -0.000736606133 -0.0707667992 -0.0706506819
vn -0.000409740227 -0.0999155566 -0.00408816803
vn -0.000673812581 -0.00425188476 -0.0999073088
vn -0.000736391521 -0.0707664266 -0.0706510618
vn -0.000409799832 -0.0999155715 -0.00408828212
vn -0.000673675502 -0.00425191503 -0.0999073088
vn -0.000736391521 -0.0707665533 -0.0706509277
vn -0.00041075339 -0.0999155864 -0.00408765022
vn -0.000673818518 -0.004251868 -0.0999073088
vn -0.000736606133 -0.0707674548 -0.0706500262
vn -0.000410234876 -0.0999155715 -0.00408815639
vn -0.00067406887 -0.00425146194 -0.0999073237
vn -0.000736379588 -0.0707678497 -0.0706496313
vn -0.000409924891 -0.0999155566 -0.00408822205
vn -0.000674074807 -0.00425143773 -0.0999073237
vn 0.0999998674 7.9865109e-05 0.000141918659
vn -0.0999998674 -8.24907111e-05 -0.000140649048
vn 0.000157439703 -0.0707686916 -0.0706524551
vn -4.15142022e-05 -0.0706529841 0.0707683191
vn 4.15092036e-05 0.0706517249 -0.0707695633
vn 0.0999998823 8.01306087e-05 0.000138336458
vn -0.0999998674 -8.14411105e-05 -0.000141429962
vn 0.000157451592 -0.0707685724 -0.0706525818
vn -4.15142022e-05 -0.0706527308 0.0707685873
vn 4.1634401e-05 0.0706541613 -0.0707671419
vn 0.0999998823 8.11809077e-05 0.000140196062
vn -0.0999998674 -8.22313086e-05 -0.00014126896
vn 0.000157362199 -0.0707688183 -0.0706523284
vn -4.15502982e-05 -0.0706530288 0.0707682744
vn 4.15508002e-05 0.0706529468 -0.0707683489
vn 0.0999998823 8.17056061e-05 0.00013988615
vn -0.0999998823 -8.27548065e-05 -0.000139570257
vn 0.00015746351 -0.0707683936 -0.0706527457
vn -4.15389004e-05 -0.0706525818 0.070768714
vn 4.15623035e-05 0.0706530362 -0.0707682744
vn 0.0999998823 8.17060063e-05 0.000141525248
vn -0.0999998674 -8.38055057e-05 -0.000141429962
vn 0.000157451592 -0.0707684979 -0.0706526488
vn -4.15108007e-05 -0.0706527904 0.0707685128
vn 4.15065006e-05 0.070653297 -0.0707680061
vn 0.0999998823 7.85515149e-05 0.000138634452
vn -0.0999998674 -8.07841061e-05 -0.000140285454
vn 0.000157385992 -0.0707688481 -0.0706522912
vn -4.15023023e-05 -0.0706522241 0.0707690865
vn 4.15618015e-05 0.070651859 -0.0707694441
vn 0.000736403454 0.0707661137 -0.0706513673
vn -0.000157236995 0.0707692802 -0.070651859
vn -8.52252997e-05 0.0999164432 -0.00408655358
vn -0.000144326608 0.00425178325 -0.0999094695
vn -0.0999998674 -8.40690918e-05 0.000142210643
vn 0.0999998823 8.40695939e-05 -0.000139570155
vn -0.000157427698 0.0707686618 -0.0706524849
vn 4.15021022e-05 0.0706519336 0.0707693696
vn -4.16008006e-05 -0.0706519857 -0.0707693249
vn -0.0999998823 -8.19671986e-05 0.000140190052
vn 0.0999998674 8.27565964e-05 -0.000141429846
vn -0.000157409901 0.0707686767 -0.0706524551
vn 4.1511099e-05 0.070651032 0.0707702711
vn -4.15023023e-05 -0.0706519932 -0.0707692951
vn -0.0999998674 -8.09167977e-05 0.000141000652
vn 0.0999998674 8.19680936e-05 -0.000141757657
vn -0.000157409901 0.0707687363 -0.0706524178
vn 4.15733994e-05 0.0706516355 0.0707696527
vn -4.16118019e-05 -0.0706516206 -0.0707696825
vn -0.0999998674 -8.0916594e-05 0.000140517848
vn 0.0999998674 8.19692941e-05 -0.000140291348
vn -0.000157314513 0.0707688257 -0.0706523061
vn 4.15903014e-05 0.0706526414 0.0707686767
vn -4.16696021e-05 -0.070651859 -0.0707694367
vn -0.0999998674 -8.19673951e-05 0.000139802549
vn 0.0999998674 8.30199933e-05 -0.000141435754
vn -0.000157326402 0.0707683861 -0.0706527531
vn 4.1499803e-05 0.0706522763 0.0707690269
vn -4.15262002e-05 -0.0706520826 -0.0707692057
vn -0.0999998674 -8.14419982e-05 0.000140285352
vn 0.0999998823 8.07845936e-05 -0.000140017146
vn -0.000157475399 0.0707684755 -0.0706526563
vn 4.14940987e-05 0.0706520826 0.0707692206
vn -4.15262002e-05 -0.0706520528 -0.0707692504
vn -0.000157964198 0.0707685277 -0.0706526041
vn -8.76136037e-05 0.0999164134 -0.00408682786
vn -0.00014403461 0.0042515574 -0.0999094918
vn 0.00070683955 0.0707668066 -0.0706509724
vn 0.000394034287 0.099915646 -0.0040879189
vn 0.00064674014 0.00425168825 -0.0999074876
vn 0.000722646713 0.0707673505 -0.0706502795
vn 0.000402444595 0.0999156013 -0.00408785278
vn 0.000660473132 0.0042515574 -0.0999074057
vn 0.000722867204 0.0707673207 -0.0706503093
vn 0.000401824713 0.0999156162 -0.00408751983
vn 0.000660467136 0.00425157463 -0.0999074057
vn 0.000722879078 0.0707672462 -0.0706503764
vn 0.000402647216 0.0999156311 -0.00408718595
vn 0.000660234597 0.00425201515 -0.0999073908
vn 0.000673872186 0.00425175345 -0.0999073088
vn 4.19337011e-05 0.00425633742 -0.0999093726
vn 0.000413149508 0.0999156758 -0.00408530235
vn 0 0.0999165401 -0.00408480782
vn 0.0163157489 0.0555578396 -0.0815298855
vn -0.0999998823 -7.77645837e-05 0.000138217147
vn -0.0858168006 -0.00859110709 -0.0506129675
vn 4.19405005e-05 0.0999999717 7.63466669e-05
vn -8.54299032e-08 0.0999999866 5.50153673e-05
vn -1.20044007e-07 0.0999995098 0.000314789562
vn -7.72304034e-08 0.100000001 2.62261674e-05
vn -0.100000001 9.7382582e-08 3.09043635e-08
vn -0.0999998674 -8.24195013e-05 -0.000139993455
f 15/1/5 8/2/6 6/3/7
f 16/4/8 10/5/9 8/6/6
f 7/7/10 4/8/11 6/9/7
f 9/10/12 6/11/7 8/12/6
f 11/13/13 8/14/6 10/15/9
f 14/16/14 13/17/15 19/18/16
f 19/19/16 15/20/5 14/21/14
f 20/22/17 16/23/8 15/24/5
f 22/25/18 19/26/16 18/27/19
f 23/28/20 20/29/17 19/30/16
f 24/31/21 21/32/22 20/33/17
f 26/34/23 21/35/22 25/36/24
f 29/37/25 18/38/19 28/39/26
f 30/40/27 23/41/20 22/42/18
f 31/43/28 24/44/21 23/45/20
f 32/46/29 25/47/24 24/48/21
f 34/49/30 25/50/24 33/51/31
f 35/52/32 22/53/18 29/54/25
f 36/55/33 31/56/28 30/57/27
f 37/58/34 32/59/29 31/60/28
f 38/61/35 33/62/31 32/63/29
f 40/64/36 33/65/31 39/66/37
f 41/67/38 30/68/27 35/69/32
f 51/70/4 49/71/4 50/72/4
f 51/73/1 44/74/1 48/75/1
f 47/76/39 50/77/39 49/78/39
f 49/79/3 44/80/3 47/81/3
f 59/82/40 61/83/40 60/84/40
f 54/85/41 52/86/41 55/87/41
f 54/88/42 63/89/42 57/90/42
f 55/91/43 64/92/43 54/93/43
f 61/94/44 55/95/44 60/96/44
f 67/97/45 59/98/45 66/99/45
f 67/100/46 69/101/46 68/102/46
f 71/103/47 63/104/47 70/105/47
f 72/106/48 74/107/48 73/108/48
f 74/109/3 70/110/3 68/111/3
f 71/112/49 75/113/49 72/114/49
f 69/115/50 74/116/50 68/117/50
f 64/118/51 76/119/51 63/120/51
f 62/121/52 78/122/52 61/123/52
f 61/124/53 80/125/53 65/126/53
f 62/127/54 82/128/54 79/129/54
f 47/130/2 45/131/2 46/132/2
f 77/133/55 65/134/55 80/135/55
f 89/136/56 87/137/56 86/138/56
f 90/139/57 86/140/57 85/141/57
f 91/142/58 87/143/58 88/144/58
f 96/145/59 94/146/59 97/147/59
f 97/148/60 93/149/60 98/150/60
f 92/151/61 96/152/61 99/153/61
f 104/154/62 102/155/62 105/156/62
f 105/157/63 101/158/63 106/159/63
f 100/160/64 104/161/64 107/162/64
f 112/163/65 110/164/65 113/165/65
f 113/166/66 109/167/66 114/168/66
f 108/169/67 112/170/67 115/171/67
f 120/172/68 118/173/68 121/174/68
f 121/175/69 117/176/69 122/177/69
f 116/178/70 120/179/70 123/180/70
f 128/181/71 126/182/71 129/183/71
f 129/184/72 125/185/72 130/186/72
f 124/187/73 128/188/73 131/189/73
f 135/190/74 133/191/74 134/192/74
f 138/193/75 136/194/75 137/195/75
f 136/196/76 134/197/76 137/198/76
f 138/199/77 134/200/77 133/201/77
f 132/202/78 136/203/78 139/204/78
f 142/205/79 140/206/79 141/207/79
f 146/208/80 144/209/80 145/210/80
f 144/211/81 142/212/81 145/213/81
f 146/214/82 142/215/82 141/216/82
f 147/217/83 143/218/83 144/219/83
f 150/220/84 148/221/84 149/222/84
f 154/223/85 152/224/85 153/225/85
f 152/226/86 150/227/86 153/228/86
f 153/229/87 149/230/87 154/231/87
f 155/232/88 151/233/88 152/234/88
f 158/235/89 156/236/89 157/237/89
f 162/238/90 160/239/90 161/240/90
f 160/241/91 158/242/91 161/243/91
f 162/244/92 158/245/92 157/246/92
f 163/247/93 159/248/93 160/249/93
f 166/250/94 164/251/94 165/252/94
f 170/253/95 168/254/95 169/255/95
f 168/256/96 166/257/96 169/258/96
f 170/259/97 166/260/97 165/261/97
f 164/262/98 168/263/98 171/264/98
f 175/265/99 173/266/99 174/267/99
f 178/268/100 176/269/100 177/270/100
f 176/271/101 174/272/101 177/273/101
f 177/274/102 173/275/102 178/276/102
f 179/277/103 175/278/103 176/279/103
f 184/280/104 182/281/104 185/282/104
f 193/283/105 191/284/105 190/285/105
f 193/286/106 189/287/106 194/288/106
f 188/289/107 192/290/107 195/291/107
f 201/292/108 199/293/108 200/294/108
f 205/295/109 203/296/109 204/297/109
f 202/298/110 200/299/110 203/300/110
f 203/301/111 199/302/111 204/303/111
f 198/304/112 202/305/112 205/306/112
f 207/307/113 186/308/113 206/309/113
f 210/310/114 208/311/114 209/312/114
f 208/313/115 206/314/115 209/315/115
f 210/316/116 206/317/116 186/318/116
f 211/319/117 207/320/117 208/321/117
f 215/322/118 213/323/118 214/324/118
f 219/325/119 217/326/119 218/327/119
f 216/328/120 214/329/120 217/330/120
f 217/331/121 213/332/121 218/333/121
f 212/334/122 216/335/122 219/336/122
f 223/337/123 221/338/123 222/339/123
f 227/340/124 225/341/124 226/342/124
f 224/343/125 222/344/125 225/345/125
f 226/346/126 222/347/126 221/348/126
f 220/349/127 224/350/127 227/351/127
f 231/352/128 229/353/128 230/354/128
f 235/355/129 233/356/129 234/357/129
f 233/358/130 231/359/130 230/360/130
f 234/361/131 230/362/131 229/363/131
f 235/364/132 231/365/132 232/366/132
f 239/367/133 237/368/133 238/369/133
f 242/370/134 240/371/134 241/372/134
f 240/373/135 238/374/135 241/375/135
f 242/376/136 238/377/136 237/378/136
f 243/379/137 239/380/137 240/381/137
f 250/382/138 246/383/138 251/384/138
f 249/385/139 246/386/139 245/387/139
f 248/388/140 247/389/140 250/390/140
f 256/391/141 254/392/141 257/393/141
f 257/394/142 253/395/142 258/396/142
f 252/397/143 256/398/143 259/399/143
f 264/400/144 262/401/144 265/402/144
f 265/403/145 261/404/145 266/405/145
f 260/406/146 264/407/146 267/408/146
f 272/409/147 270/410/147 273/411/147
f 273/412/148 269/413/148 274/414/148
f 268/415/149 272/416/149 275/417/149
f 280/418/150 278/419/150 281/420/150
f 281/421/151 277/422/151 282/423/151
f 276/424/152 280/425/152 283/426/152
f 187/427/153 180/428/153 184/429/153
f 185/430/154 182/431/154 181/432/154
f 1/433/155 2/434/156 3/435/157
f 191/436/158 189/437/158 190/438/158
f 43/439/159 37/440/34 36/441/33
f 76/442/160 82/443/160 68/444/160
f 56/445/161 73/446/161 58/447/161
f 91/448/162 89/449/162 90/450/162
f 15/451/5 4/452/11 14/453/14
f 15/454/5 16/455/8 8/456/6
f 16/457/8 17/458/163 10/459/9
f 7/460/10 5/461/164 4/462/11
f 9/463/12 7/464/10 6/465/7
f 11/466/13 9/467/12 8/468/6
f 14/469/14 4/470/11 13/471/15
f 5/472/164 1/473/155 4/474/11
f 13/475/15 18/476/19 19/477/16
f 4/478/11 1/479/155 13/480/15
f 19/481/16 20/482/17 15/483/5
f 20/484/17 21/485/22 16/486/8
f 22/487/18 23/488/20 19/489/16
f 23/490/20 24/491/21 20/492/17
f 24/493/21 25/494/24 21/495/22
f 26/496/23 27/497/165 21/498/22
f 29/499/25 22/500/18 18/501/19
f 30/502/27 31/503/28 23/504/20
f 31/505/28 32/506/29 24/507/21
f 32/508/29 33/509/31 25/510/24
f 34/511/30 26/512/23 25/513/24
f 35/514/32 30/515/27 22/516/18
f 36/517/33 37/518/34 31/519/28
f 37/520/34 38/521/35 32/522/29
f 38/523/35 39/524/37 33/525/31
f 40/526/36 34/527/30 33/528/31
f 41/529/38 36/530/33 30/531/27
f 51/532/4 48/533/4 49/534/4
f 51/535/1 45/536/1 44/537/1
f 47/538/166 46/539/166 50/540/166
f 49/541/3 48/542/3 44/543/3
f 59/544/167 62/545/167 61/546/167
f 58/547/168 66/548/168 59/549/168
f 58/550/169 59/551/169 53/552/169
f 72/553/170 73/554/170 56/555/170
f 57/556/3 71/557/3 72/558/3
f 57/559/171 72/560/171 56/561/171
f 53/562/172 59/563/172 60/564/172
f 53/565/173 60/566/173 55/567/173
f 57/568/174 56/569/174 54/570/174
f 53/571/175 55/572/175 52/573/175
f 54/574/176 56/575/176 52/576/176
f 54/577/177 64/578/177 63/579/177
f 55/580/178 65/581/178 64/582/178
f 61/583/179 65/584/179 55/585/179
f 67/586/180 62/587/180 59/588/180
f 67/589/181 66/590/181 69/591/181
f 71/592/182 57/593/182 63/594/182
f 72/595/183 75/596/183 74/597/183
f 74/598/3 75/599/3 70/600/3
f 71/601/184 70/602/184 75/603/184
f 69/604/185 73/605/185 74/606/185
f 64/607/186 77/608/186 76/609/186
f 62/610/187 79/611/187 78/612/187
f 61/613/188 78/614/188 80/615/188
f 62/616/189 67/617/189 82/618/189
f 47/619/2 44/620/2 45/621/2
f 80/622/190 81/623/190 77/624/190
f 77/625/191 64/626/191 65/627/191
f 89/628/192 88/629/192 87/630/192
f 90/631/193 89/632/193 86/633/193
f 91/634/194 84/635/194 87/636/194
f 96/637/195 95/638/195 94/639/195
f 97/640/196 94/641/196 93/642/196
f 92/643/197 95/644/197 96/645/197
f 104/646/198 103/647/198 102/648/198
f 105/649/199 102/650/199 101/651/199
f 100/652/200 103/653/200 104/654/200
f 112/655/201 111/656/201 110/657/201
f 113/658/202 110/659/202 109/660/202
f 108/661/203 111/662/203 112/663/203
f 120/664/204 119/665/204 118/666/204
f 121/667/205 118/668/205 117/669/205
f 116/670/206 119/671/206 120/672/206
f 128/673/207 127/674/207 126/675/207
f 129/676/208 126/677/208 125/678/208
f 124/679/209 127/680/209 128/681/209
f 135/682/210 132/683/210 133/684/210
f 138/685/211 139/686/211 136/687/211
f 136/688/212 135/689/212 134/690/212
f 138/691/213 137/692/213 134/693/213
f 132/694/214 135/695/214 136/696/214
f 142/697/215 143/698/215 140/699/215
f 146/700/216 147/701/216 144/702/216
f 144/703/217 143/704/217 142/705/217
f 146/706/218 145/707/218 142/708/218
f 147/709/219 140/710/219 143/711/219
f 150/712/220 151/713/220 148/714/220
f 154/715/221 155/716/221 152/717/221
f 152/718/222 151/719/222 150/720/222
f 153/721/223 150/722/223 149/723/223
f 155/724/224 148/725/224 151/726/224
f 158/727/225 159/728/225 156/729/225
f 162/730/226 163/731/226 160/732/226
f 160/733/227 159/734/227 158/735/227
f 162/736/228 161/737/228 158/738/228
f 163/739/229 156/740/229 159/741/229
f 166/742/230 167/743/230 164/744/230
f 170/745/231 171/746/231 168/747/231
f 168/748/232 167/749/232 166/750/232
f 170/751/233 169/752/233 166/753/233
f 164/754/234 167/755/234 168/756/234
f 175/757/235 172/758/235 173/759/235
f 178/760/236 179/761/236 176/762/236
f 176/763/237 175/764/237 174/765/237
f 177/766/238 174/767/238 173/768/238
f 179/769/239 172/770/239 175/771/239
f 184/772/240 183/773/240 182/774/240
f 193/775/241 192/776/241 191/777/241
f 193/778/242 190/779/242 189/780/242
f 188/781/243 191/782/243 192/783/243
f 201/784/244 198/785/244 199/786/244
f 205/787/245 202/788/245 203/789/245
f 202/790/246 201/791/246 200/792/246
f 203/793/247 200/794/247 199/795/247
f 198/796/248 201/797/248 202/798/248
f 207/799/249 187/800/249 186/801/249
f 210/802/250 211/803/250 208/804/250
f 208/805/251 207/806/251 206/807/251
f 210/808/252 209/809/252 206/810/252
f 211/811/253 187/812/253 207/813/253
f 215/814/254 212/815/254 213/816/254
f 219/817/255 216/818/255 217/819/255
f 216/820/256 215/821/256 214/822/256
f 217/823/257 214/824/257 213/825/257
f 212/826/258 215/827/258 216/828/258
f 223/829/259 220/830/259 221/831/259
f 227/832/260 224/833/260 225/834/260
f 224/835/261 223/836/261 222/837/261
f 226/838/262 225/839/262 222/840/262
f 220/841/263 223/842/263 224/843/263
f 231/844/264 228/845/264 229/846/264
f 235/847/265 232/848/265 233/849/265
f 233/850/266 232/851/266 231/852/266
f 234/853/267 233/854/267 230/855/267
f 235/856/268 228/857/268 231/858/268
f 239/859/269 236/860/269 237/861/269
f 242/862/270 243/863/270 240/864/270
f 240/865/271 239/866/271 238/867/271
f 242/868/272 241/869/272 238/870/272
f 243/871/273 236/872/273 239/873/273
f 250/874/274 247/875/274 246/876/274
f 249/877/275 251/878/275 246/879/275
f 248/880/276 244/881/276 247/882/276
f 256/883/277 255/884/277 254/885/277
f 257/886/278 254/887/278 253/888/278
f 252/889/279 255/890/279 256/891/279
f 264/892/280 263/893/280 262/894/280
f 265/895/281 262/896/281 261/897/281
f 260/898/282 263/899/282 264/900/282
f 272/901/283 271/902/283 270/903/283
f 273/904/284 270/905/284 269/906/284
f 268/907/285 271/908/285 272/909/285
f 280/910/286 279/911/286 278/912/286
f 281/913/287 278/914/287 277/915/287
f 276/916/288 279/917/288 280/918/288
f 183/919/289 184/920/289 180/921/289
f 197/922/290 187/923/290 184/924/290
f 181/925/291 186/926/291 185/927/291
f 196/928/292 185/929/292 186/930/292
f 3/931/157 12/932/293 13/933/15
f 13/934/15 1/935/155 3/936/157
f 191/937/294 188/938/294 189/939/294
f 42/940/295 40/941/36 39/942/37
f 39/943/37 38/944/35 42/945/295
f 36/946/33 41/947/38 43/948/159
f 38/949/35 37/950/34 42/951/295
f 43/952/159 42/953/295 37/954/34
f 68/955/296 70/956/296 76/957/296
f 76/958/297 83/959/297 82/960/297
f 70/961/298 63/962/298 76/963/298
f 82/964/299 67/965/299 68/966/299
f 66/967/300 58/968/300 73/969/300
f 73/970/3 69/971/3 66/972/3
f 91/973/301 88/974/301 89/975/301
f 15/976/5 6/977/7 4/978/11
