v -2.85149334 -1.35997343 2.90026456
v -2.85149334 -1.38068736 2.92097837
v -2.85147236 -1.31059152 2.94964659
v -2.85147331 -1.30417156 2.94080758
v -2.85147426 -1.30079424 2.93041795
v -2.85147617 -1.30079591 2.91949344
v -2.85147951 -1.30417043 2.90910298
v -2.85148952 -1.32981998 2.89046901
v -2.85149238 -1.35113424 2.8938446
v -2.85147236 -1.33130538 2.97036064
v -2.38696239 -1.31068766 2.94955063
v -2.38696525 -1.30088997 2.93032229
v -2.38696716 -1.3008917 2.91939729
v -2.38697002 -1.3042658 2.90900713
v -2.38697336 -1.31068861 2.90016967
v -2.38698147 -1.34084088 2.89037132
v -2.38698242 -1.35122961 2.8937487
v -2.38696239 -1.33140165 2.9702636
v -2.38698337 -1.36006927 2.90016854
v -2.38698337 -1.38078332 2.9208824
v -1.87046144 -1.35997343 2.90026438
v -1.87046144 -1.38068736 2.92097825
v -1.87044046 -1.31059134 2.94964659
v -1.87044094 -1.30417156 2.94080663
v -1.87044332 -1.30079424 2.93041778
v -1.87044523 -1.30079567 2.91949314
v -1.87044714 -1.30417001 2.90910274
v -1.87045143 -1.31059283 2.90026593
v -1.87045429 -1.31942952 2.89384317
v -1.87045715 -1.32981998 2.89046884
v -1.87045906 -1.34074473 2.89046729
v -1.87046001 -1.35113412 2.89384431
v -1.87044046 -1.33130533 2.97036064
v -1.40593241 -1.30426729 2.94071162
v -1.40593288 -1.30088979 2.93032211
v -1.40593527 -1.30089128 2.91939729
v -1.4059386 -1.30426562 2.90900689
v -1.40594099 -1.31068861 2.90016967
v -1.40594528 -1.31952536 2.89374679
v -1.40594719 -1.32991594 2.89037269
v -1.4059491 -1.34084088 2.89037114
v -1.4059305 -1.33140147 2.9702636
v -1.40595148 -1.36006832 2.9001683
v -1.40595148 -1.38078237 2.92088223
v -0.883869151 -1.35997236 2.90026438
v -0.883869151 -1.38068628 2.92097825
v -0.88384817 -1.31059092 2.94964659
v -0.8838496 -1.30417138 2.94080663
v -0.883851508 -1.30079383 2.9304176
v -0.883853415 -1.3007952 2.91949314
v -0.883856276 -1.30416948 2.90910256
v -0.883859137 -1.31059206 2.90026563
v -0.883862475 -1.31942916 2.89384317
v -0.883865336 -1.32981962 2.89046884
v -0.883867243 -1.34074455 2.89046729
v -0.883869151 -1.35113406 2.89384431
v -0.88384817 -1.33130515 2.97035956
v -0.419340113 -1.30426711 2.94071054
v -0.419347266 -1.30426538 2.90900689
v -0.419349173 -1.31068838 2.90016949
v -0.419352511 -1.3195253 2.89374667
v -0.419354895 -1.32991582 2.89037269
v -0.419358233 -1.34084028 2.89037085
v -0.41933916 -1.33140087 2.9702636
v -0.419360617 -1.36006832 2.90016812
v -0.419360617 -1.38078237 2.92088223
v 0.100183031 -1.35997236 2.90026438
v 0.100183031 -1.38068628 2.92097813
v 0.100204011 -1.31059039 2.94964552
v 0.100203058 -1.30417097 2.94080663
v 0.100202104 -1.30079347 2.93041742
v 0.100200197 -1.30079478 2.91949284
v 0.100197097 -1.3041693 2.90910256
v 0.100187084 -1.32981944 2.8904686
v 0.100185176 -1.35113364 2.89384413
v 0.100204011 -1.33130491 2.97035956
v 0.564713975 -1.31068689 2.94954967
v 0.564713022 -1.30426675 2.94071054
v 0.564711114 -1.30088919 2.93032163
v 0.564708969 -1.3008911 2.919397
v 0.564707061 -1.30426532 2.90900666
v 0.564703962 -1.3106882 2.90016949
v 0.564700147 -1.31952471 2.89374667
v 0.564692995 -1.35122925 2.8937481
v 0.564713975 -1.33140051 2.9702636
v 0.564692995 -1.36006832 2.90016812
v 0.564692995 -1.38078237 2.92088193
v 1.08418896 -1.35997236 2.90026414
v 1.08418896 -1.38068628 2.92097795
v 1.08421089 -1.31059015 2.94964552
v 1.08420899 -1.30417079 2.94080663
v 1.08420899 -1.30079329 2.93041718
v 1.08420612 -1.3007946 2.91949266
v 1.08420303 -1.30416888 2.90910238
v 1.08419397 -1.32981902 2.89046824
v 1.08419206 -1.34074414 2.89046687
v 1.08418991 -1.35113341 2.89384395
v 1.08421089 -1.33130437 2.97035956
v 1.5487199 -1.31068647 2.94954967
v 1.54871704 -1.30088919 2.93032134
v 1.54871514 -1.30089092 2.91939664
v 1.54871204 -1.30426502 2.90900642
v 1.54870917 -1.31068802 2.90016913
v 1.54870608 -1.31952435 2.89374661
v 1.54870298 -1.32991534 2.89037228
v 1.54869988 -1.35122901 2.89374775
v 1.5487199 -1.33140028 2.9702636
v 1.54869892 -1.36006832 2.90016794
v 1.54869892 -1.38078237 2.92088175
v 2.06592908 -1.3599714 2.90026397
v 2.06592908 -1.38068533 2.92097777
v 2.06595006 -1.31058979 2.94964552
v 2.0659491 -1.30417061 2.94080663
v 2.06594815 -1.30079287 2.93041712
v 2.065946 -1.30079442 2.91949248
v 2.0659441 -1.3041687 2.9091022
v 2.06593408 -1.32981884 2.89046806
v 2.06593003 -1.35113293 2.89384377
v 2.06595006 -1.33130395 2.97035956
v 2.53046002 -1.31068629 2.94954967
v 2.53045704 -1.30088884 2.93032116
v 2.53045501 -1.30089045 2.91939652
v 2.53045215 -1.30426466 2.90900618
v 2.53045013 -1.31068766 2.90016913
v 2.53044607 -1.31952411 2.89374661
v 2.53044309 -1.32991517 2.8903721
v 2.53044011 -1.35122883 2.89374751
v 2.53046002 -1.3314001 2.9702636
v 2.53043809 -1.36006832 2.90016776
v 2.53043809 -1.38078129 2.92088157
v -1.98684452 0.646059752 2.90026569
v -1.98684452 0.666773677 2.92097956
v -1.9868655 0.596678376 2.9496479
v -1.98686407 0.590258598 2.94080782
v -1.98686216 0.586881399 2.93041903
v -1.98686025 0.58688271 2.91949469
v -1.98685739 0.590256929 2.90910399
v -1.98685406 0.596679688 2.90026718
v -1.98685119 0.60551697 2.89384449
v -1.98684929 0.615907013 2.89047009
v -1.98684643 0.626831889 2.89046854
v -1.986845 0.637221336 2.89384592
v -1.9868655 0.617392182 2.97036183
v -2.45137356 0.596774399 2.94955182
v -2.45137356 0.590355039 2.94071281
v -2.45137117 0.586977243 2.93032354
v -2.45136927 0.586978912 2.91939861
v -2.45136593 0.590353012 2.90900832
v -2.45136307 0.596775949 2.90017092
v -2.45135925 0.605612814 2.89374822
v -2.45135734 0.616003692 2.89037412
v -2.45135496 0.626927674 2.89037263
v -2.45135448 0.637317181 2.89374995
v -2.45137356 0.617488146 2.97026587
v -2.45135305 0.646156669 2.90016985
v -2.45135305 0.66686976 2.92088372
v -1.00204752 0.646060705 2.90026569
v -1.00204752 0.666774631 2.92097956
v -1.0020685 0.596678972 2.9496479
v -1.00206707 0.590259016 2.94080782
v -1.00206611 0.586881936 2.93041879
v -1.00206325 0.586882889 2.91949439
v -1.00206135 0.590257287 2.90910399
v -1.00205753 0.596680105 2.90026689
v -1.00205562 0.605517268 2.89384449
v -1.00205229 0.615907192 2.89047009
v -1.00204943 0.626832306 2.89046854
v -1.002048 0.637221634 2.89384562
v -1.0020685 0.617392361 2.97036076
v -1.46657703 0.596774578 2.94955182
v -1.46657608 0.590355039 2.94071281
v -1.46657513 0.586977422 2.93032336
v -1.46657322 0.586978912 2.91939855
v -1.46657036 0.59035331 2.90900815
v -1.4665675 0.596775949 2.90017092
v -1.46656416 0.605612814 2.89374804
v -1.4665613 0.616003871 2.89037395
v -1.46655939 0.626928031 2.89037246
v -1.46655748 0.637317181 2.89374977
v -1.46657846 0.617488325 2.97026491
v -1.46655605 0.646156669 2.90016985
v -1.46655605 0.66686976 2.92088372
v -0.0205819402 0.646060705 2.90026569
v -0.0205819402 0.666774631 2.9209795
v -0.0206029211 0.596678972 2.94964683
v -0.0206029211 0.590259016 2.94080782
v -0.0206010137 0.586881936 2.93041861
v -0.0205979143 0.586882889 2.91949409
v -0.0205950533 0.590257883 2.90910381
v -0.0205919538 0.596680105 2.90026659
v -0.0205888544 0.605517268 2.89384425
v -0.0205857549 0.615907371 2.89046991
v -0.0205838476 0.626832485 2.89046836
v -0.0205831323 0.637221634 2.89384544
v -0.0206029211 0.617392957 2.97036076
v -0.48511217 0.596774995 2.94955087
v -0.485111216 0.590355396 2.94071186
v -0.485110262 0.586977422 2.93032318
v -0.485108355 0.58697921 2.91939843
v -0.485106448 0.59035331 2.90900815
v -0.485102156 0.596776247 2.90017074
v -0.485098342 0.60561341 2.89374793
v -0.485096434 0.61600405 2.89037395
v -0.485093573 0.626928627 2.89037216
v -0.485092143 0.637317538 2.89374959
v -0.48511217 0.617488682 2.97026491
v -0.485091189 0.646156669 2.90016943
v -0.485091189 0.66686976 2.92088354
v 0.964060089 0.646060705 2.90026569
v 0.964060089 0.666774631 2.92097932
v 0.964039108 0.59667933 2.94964683
v 0.964039108 0.590259373 2.94080782
v 0.964042207 0.586882114 2.93041843
v 0.964044115 0.586883307 2.91949391
v 0.964046022 0.590257883 2.90910363
v 0.964050075 0.596680641 2.90026641
v 0.964052936 0.605517566 2.89384407
v 0.964056035 0.615907729 2.89046949
v 0.964058181 0.626832843 2.89046836
v 0.964059135 0.637221992 2.89384526
v 0.964039108 0.617393315 2.97036076
v 0.499529859 0.596775532 2.94955087
v 0.499529859 0.590355396 2.94071186
v 0.499531051 0.58697778 2.93032289
v 0.499534151 0.586979508 2.91939825
v 0.499537012 0.590353608 2.90900785
v 0.499540111 0.596776485 2.90017074
v 0.499543926 0.605613768 2.89374793
v 0.499545833 0.61600405 2.89037377
v 0.499548932 0.626928985 2.89037198
v 0.499550125 0.637317955 2.89374942
v 0.499529859 0.6174891 2.97026491
v 0.499551317 0.646156669 2.90016943
v 0.499551317 0.666870713 2.92088324
v 1.94678404 0.646061659 2.90026546
v 1.94678404 0.666775703 2.92097908
v 1.94676401 0.596679688 2.94964683
v 1.94676497 0.590260327 2.94080782
v 1.94676616 0.58688271 2.93041843
v 1.94676902 0.58688426 2.91949373
v 1.94677105 0.590258598 2.90910345
v 1.9467751 0.596681356 2.90026623
v 1.94677701 0.605518162 2.89384371
v 1.94678011 0.615908146 2.89046931
v 1.94678213 0.62683326 2.89046818
v 1.94678404 0.637222588 2.89384526
v 1.94676401 0.617393494 2.97036076
v 1.482255 0.596775949 2.94955087
v 1.48225596 0.590355814 2.94071186
v 1.48225715 0.586978197 2.93032259
v 1.48225906 0.586979866 2.91939789
v 1.48226215 0.590354085 2.90900767
v 1.48226502 0.596776903 2.90017056
v 1.48226788 0.605614007 2.89374793
v 1.48227098 0.616004467 2.89037359
v 1.48227312 0.626928985 2.89037198
v 1.48227503 0.637318492 2.893749
v 1.482255 0.6174891 2.97026491
v 1.48227598 0.646156669 2.90016925
v 1.48227598 0.666870713 2.92088306
v 2.93467661 0.646061659 2.90026528
v 2.93467661 0.666775703 2.9209789
v 2.93465545 0.596680105 2.94964683
v 2.9346564 0.590260744 2.94080782
v 2.93465736 0.586882889 2.93041825
v 2.9346598 0.586884499 2.9194935
v 2.9346629 0.590258598 2.90910345
v 2.9346663 0.596681535 2.90026623
v 2.93466916 0.605518699 2.89384353
v 2.93467118 0.615908682 2.89046913
v 2.93467339 0.626833737 2.89046788
v 2.93467565 0.637222946 2.89384502
v 2.93465545 0.617393911 2.9703598
v 2.47014703 0.596775949 2.94955087
v 2.47014799 0.590355992 2.94071186
v 2.47014906 0.586978555 2.93032259
v 2.47015109 0.586980104 2.91939777
v 2.47015407 0.590354681 2.90900737
v 2.47015705 0.59677726 2.90017039
v 2.47016003 0.605614364 2.89374787
v 2.47016313 0.616004825 2.89037335
v 2.47016515 0.626929164 2.89037186
v 2.47016706 0.637318671 2.893749
v 2.47014703 0.617489636 2.97026491
v 2.47016706 0.646157622 2.90016925
v 2.47016706 0.666871667 2.92088288
v -2.85148237 -1.31059283 2.90026611
v -2.85148619 -1.3194297 2.89384341
v -2.85149143 -1.34074491 2.89046729
v -2.38696335 -1.30426729 2.94071162
v -2.38697622 -1.31952584 2.89374697
v -2.38697956 -1.32991594 2.89037269
v -1.40593098 -1.31068766 2.94955063
v -1.40595148 -1.35122961 2.89374846
v -0.41933916 -1.31068707 2.94954967
v -0.419341544 -1.30088937 2.93032193
v -0.419344405 -1.30089122 2.91939718
v -0.419360617 -1.35122943 2.89374828
v 0.100192806 -1.3105917 2.90026534
v 0.100190183 -1.31942898 2.893843
v 0.100185176 -1.34074432 2.89046711
v 0.564697048 -1.32991558 2.89037251
v 0.56469514 -1.34083968 2.89037067
v 1.08419897 -1.3105917 2.90026516
v 1.08419706 -1.31942874 2.89384282
v 1.548718 -1.30426633 2.94071054
v 1.54869988 -1.34083951 2.89037055
v 2.06593897 -1.31059152 2.90026498
v 2.06593611 -1.31942838 2.89384246
v 2.06593098 -1.34074378 2.89046687
v 2.53045907 -1.30426615 2.94071054
v 2.53044011 -1.34083933 2.89037049
vt 1.35836697 0.248549506
vt 1.36425197 0.0179750305
vt 1.36425197 0.248549506
vt 1.42321599 0.0179750305
vt 1.41732001 0.248549506
vt 1.41732001 0.0179750305
vt 1.41732001 0.248549506
vt 1.41142404 0.0179750305
vt 1.41732001 0.0179750305
vt 1.40552795 0.248549506
vt 1.41142404 0.0179750305
vt 1.41142404 0.248549506
vt 1.39963198 0.248549506
vt 1.40552902 0.0179750305
vt 1.40552795 0.248549506
vt 1.39963198 0.248549506
vt 1.393736 0.0179750305
vt 1.39963198 0.0179750305
vt 1.393736 0.248549506
vt 1.38784003 0.0179750305
vt 1.393736 0.0179750305
vt 1.38194299 0.248549506
vt 1.38784003 0.0179750305
vt 1.38783896 0.248549506
vt 1.37604594 0.248549506
vt 1.38194299 0.0179750305
vt 1.38194299 0.248549506
vt 1.37604594 0.248549506
vt 1.37014902 0.0179750305
vt 1.37604594 0.0179750305
vt 1.36425197 0.248549506
vt 1.37014902 0.0179750305
vt 1.37014902 0.248549506
vt 1.42910004 0.248549506
vt 1.42321599 0.0179750305
vt 1.42910004 0.0179750305
vt 1.35836697 0.248549506
vt 1.36425197 0.0179750305
vt 1.36425197 0.248549506
vt 1.42321599 0.248549506
vt 1.41732001 0.0179750305
vt 1.42321599 0.0179750305
vt 1.41142404 0.248549506
vt 1.41732001 0.0179750305
vt 1.41732001 0.248549506
vt 1.40552795 0.248549506
vt 1.41142404 0.0179750305
vt 1.41142404 0.248549506
vt 1.40552795 0.248549506
vt 1.39963198 0.0179750305
vt 1.40552902 0.0179750305
vt 1.393736 0.248549506
vt 1.39963198 0.0179750305
vt 1.39963198 0.248549506
vt 1.393736 0.248549506
vt 1.38784003 0.0179750305
vt 1.393736 0.0179750305
vt 1.38194299 0.248549506
vt 1.38784003 0.0179750305
vt 1.38783896 0.248549506
vt 1.38194299 0.248549506
vt 1.37604594 0.0179750305
vt 1.38194299 0.0179750305
vt 1.37014902 0.248549506
vt 1.37604594 0.0179750305
vt 1.37604594 0.248549506
vt 1.36425197 0.248549506
vt 1.37014902 0.0179750305
vt 1.37014902 0.248549506
vt 1.42910004 0.0179750305
vt 1.42321599 0.248549506
vt 1.42321599 0.0179750305
vt 1.35836697 0.248549506
vt 1.36425197 0.0179750305
vt 1.36425197 0.248549506
vt 1.42321599 0.248549506
vt 1.41732001 0.0179750305
vt 1.42321599 0.0179750305
vt 1.41142404 0.248549506
vt 1.41732001 0.0179750305
vt 1.41732001 0.248549506
vt 1.40552795 0.248549506
vt 1.41142404 0.0179750305
vt 1.41142404 0.248549506
vt 1.39963198 0.248549506
vt 1.40552902 0.0179750305
vt 1.40552795 0.248549506
vt 1.39963198 0.248549506
vt 1.393736 0.0179750305
vt 1.39963198 0.0179750305
vt 1.393736 0.248549506
vt 1.38784003 0.0179750305
vt 1.393736 0.0179750305
vt 1.38194299 0.248549506
vt 1.38784003 0.0179750305
vt 1.38783896 0.248549506
vt 1.37604594 0.248549506
vt 1.38194299 0.0179750305
vt 1.38194299 0.248549506
vt 1.37014902 0.248549506
vt 1.37604594 0.0179750305
vt 1.37604594 0.248549506
vt 1.36425197 0.248549506
vt 1.37014902 0.0179750305
vt 1.37014902 0.248549506
vt 1.42910004 0.248549506
vt 1.42321599 0.0179750305
vt 1.42910004 0.0179750305
vt 1.35836697 0.248549506
vt 1.36425197 0.0179750305
vt 1.36425197 0.248549506
vt 1.42321599 0.0179750305
vt 1.41732001 0.248549506
vt 1.41732001 0.0179750305
vt 1.41732001 0.248549506
vt 1.41142404 0.0179750305
vt 1.41732001 0.0179750305
vt 1.40552795 0.248549506
vt 1.41142404 0.0179750305
vt 1.41142404 0.248549506
vt 1.39963198 0.248549506
vt 1.40552902 0.0179750305
vt 1.40552795 0.248549506
vt 1.393736 0.248549506
vt 1.39963198 0.0179750305
vt 1.39963198 0.248549506
vt 1.38783896 0.248549506
vt 1.393736 0.0179750305
vt 1.393736 0.248549506
vt 1.38783896 0.248549506
vt 1.38194299 0.0179750305
vt 1.38784003 0.0179750305
vt 1.38194299 0.248549506
vt 1.37604594 0.0179750305
vt 1.38194299 0.0179750305
vt 1.37604594 0.248549506
vt 1.37014902 0.0179750305
vt 1.37604594 0.0179750305
vt 1.36425197 0.248549506
vt 1.37014902 0.0179750305
vt 1.37014902 0.248549506
vt 1.42910004 0.248549506
vt 1.42321599 0.0179750305
vt 1.42910004 0.0179750305
vt 1.35836697 0.248549506
vt 1.36425197 0.0179750305
vt 1.36425197 0.248549506
vt 1.42321599 0.0179750305
vt 1.41732001 0.248549506
vt 1.41732001 0.0179750305
vt 1.41732001 0.248549506
vt 1.41142404 0.0179750305
vt 1.41732001 0.0179750305
vt 1.40552795 0.248549506
vt 1.41142404 0.0179750305
vt 1.41142404 0.248549506
vt 1.39963198 0.248549506
vt 1.40552902 0.0179750305
vt 1.40552795 0.248549506
vt 1.39963198 0.248549506
vt 1.393736 0.0179750305
vt 1.39963198 0.0179750305
vt 1.38783896 0.248549506
vt 1.393736 0.0179750305
vt 1.393736 0.248549506
vt 1.38194299 0.248549506
vt 1.38784003 0.0179750305
vt 1.38783896 0.248549506
vt 1.37604594 0.248549506
vt 1.38194299 0.0179750305
vt 1.38194299 0.248549506
vt 1.37604594 0.248549506
vt 1.37014902 0.0179750305
vt 1.37604594 0.0179750305
vt 1.36425197 0.248549506
vt 1.37014902 0.0179750305
vt 1.37014902 0.248549506
vt 1.42910004 0.248549506
vt 1.42321599 0.0179750305
vt 1.42910004 0.0179750305
vt 1.35836697 0.248549506
vt 1.36425197 0.0179750305
vt 1.36425197 0.248549506
vt 1.42321599 0.0179750305
vt 1.41732001 0.248549506
vt 1.41732001 0.0179750305
vt 1.41732001 0.248549506
vt 1.41142404 0.0179750305
vt 1.41732001 0.0179750305
vt 1.40552795 0.248549506
vt 1.41142404 0.0179750305
vt 1.41142404 0.248549506
vt 1.40552795 0.248549506
vt 1.39963198 0.0179750305
vt 1.40552902 0.0179750305
vt 1.393736 0.248549506
vt 1.39963198 0.0179750305
vt 1.39963198 0.248549506
vt 1.38783896 0.248549506
vt 1.393736 0.0179750305
vt 1.393736 0.248549506
vt 1.38194299 0.248549506
vt 1.38784003 0.0179750305
vt 1.38783896 0.248549506
vt 1.38194299 0.248549506
vt 1.37604594 0.0179750305
vt 1.38194299 0.0179750305
vt 1.37604594 0.248549506
vt 1.37014902 0.0179750305
vt 1.37604594 0.0179750305
vt 1.36425197 0.248549506
vt 1.37014902 0.0179750305
vt 1.37014902 0.248549506
vt 1.42910004 0.248549506
vt 1.42321599 0.0179750305
vt 1.42910004 0.0179750305
vt 1.35836697 0.248549506
vt 1.36425197 0.0179750305
vt 1.36425197 0.248549506
vt 1.42321599 0.0179750305
vt 1.41732001 0.248549506
vt 1.41732001 0.0179750305
vt 1.41732001 0.248549506
vt 1.41142404 0.0179750305
vt 1.41732001 0.0179750305
vt 1.40552795 0.248549506
vt 1.41142404 0.0179750305
vt 1.41142404 0.248549506
vt 1.40552795 0.248549506
vt 1.39963198 0.0179750305
vt 1.40552902 0.0179750305
vt 1.39963198 0.248549506
vt 1.393736 0.0179750305
vt 1.39963198 0.0179750305
vt 1.38783896 0.248549506
vt 1.393736 0.0179750305
vt 1.393736 0.248549506
vt 1.38194299 0.248549506
vt 1.38784003 0.0179750305
vt 1.38783896 0.248549506
vt 1.37604594 0.248549506
vt 1.38194299 0.0179750305
vt 1.38194299 0.248549506
vt 1.37014902 0.248549506
vt 1.37604594 0.0179750305
vt 1.37604594 0.248549506
vt 1.36425197 0.248549506
vt 1.37014902 0.0179750305
vt 1.37014902 0.248549506
vt 1.42910004 0.248549506
vt 1.42321599 0.0179750305
vt 1.42910004 0.0179750305
vt 1.35836697 0.248549506
vt 1.36425197 0.0179750305
vt 1.36425197 0.248549506
vt 1.42321599 0.0179750305
vt 1.41732001 0.248549506
vt 1.41732001 0.0179750305
vt 1.41732001 0.248549506
vt 1.41142404 0.0179750305
vt 1.41732001 0.0179750305
vt 1.40552795 0.248549506
vt 1.41142404 0.0179750305
vt 1.41142404 0.248549506
vt 1.40552795 0.248549506
vt 1.39963198 0.0179750305
vt 1.40552902 0.0179750305
vt 1.39963198 0.248549506
vt 1.393736 0.0179750305
vt 1.39963198 0.0179750305
vt 1.38783896 0.248549506
vt 1.393736 0.0179750305
vt 1.393736 0.248549506
vt 1.38783896 0.248549506
vt 1.38194299 0.0179750305
vt 1.38784003 0.0179750305
vt 1.37604594 0.248549506
vt 1.38194299 0.0179750305
vt 1.38194299 0.248549506
vt 1.37014902 0.248549506
vt 1.37604594 0.0179750305
vt 1.37604594 0.248549506
vt 1.36425197 0.248549506
vt 1.37014902 0.0179750305
vt 1.37014902 0.248549506
vt 1.42910004 0.248549506
vt 1.42321599 0.0179750305
vt 1.42910004 0.0179750305
vt 1.35836697 0.248549506
vt 1.36425197 0.0179750305
vt 1.36425197 0.248549506
vt 1.42321599 0.0179750305
vt 1.41732001 0.248549506
vt 1.41732001 0.0179750305
vt 1.41142404 0.248549506
vt 1.41732001 0.0179750305
vt 1.41732001 0.248549506
vt 1.40552795 0.248549506
vt 1.41142404 0.0179750305
vt 1.41142404 0.248549506
vt 1.40552795 0.248549506
vt 1.39963198 0.0179750305
vt 1.40552902 0.0179750305
vt 1.393736 0.248549506
vt 1.39963198 0.0179750305
vt 1.39963198 0.248549506
vt 1.38783896 0.248549506
vt 1.393736 0.0179750305
vt 1.393736 0.248549506
vt 1.38783896 0.248549506
vt 1.38194299 0.0179750305
vt 1.38784003 0.0179750305
vt 1.37604594 0.248549506
vt 1.38194299 0.0179750305
vt 1.38194299 0.248549506
vt 1.37014902 0.248549506
vt 1.37604594 0.0179750305
vt 1.37604594 0.248549506
vt 1.36425197 0.248549506
vt 1.37014902 0.0179750305
vt 1.37014902 0.248549506
vt 1.42910004 0.248549506
vt 1.42321599 0.0179750305
vt 1.42910004 0.0179750305
vt 1.35836697 0.248549506
vt 1.36425197 0.0179750305
vt 1.36425197 0.248549506
vt 1.42321599 0.0179750305
vt 1.41732001 0.248549506
vt 1.41732001 0.0179750305
vt 1.41732001 0.248549506
vt 1.41142404 0.0179750305
vt 1.41732001 0.0179750305
vt 1.41142404 0.248549506
vt 1.40552902 0.0179750305
vt 1.41142404 0.0179750305
vt 1.40552795 0.248549506
vt 1.39963198 0.0179750305
vt 1.40552902 0.0179750305
vt 1.393736 0.248549506
vt 1.39963198 0.0179750305
vt 1.39963198 0.248549506
vt 1.38783896 0.248549506
vt 1.393736 0.0179750305
vt 1.393736 0.248549506
vt 1.38194299 0.248549506
vt 1.38784003 0.0179750305
vt 1.38783896 0.248549506
vt 1.38194299 0.248549506
vt 1.37604594 0.0179750305
vt 1.38194299 0.0179750305
vt 1.37014902 0.248549506
vt 1.37604594 0.0179750305
vt 1.37604594 0.248549506
vt 1.36425197 0.248549506
vt 1.37014902 0.0179750305
vt 1.37014902 0.248549506
vt 1.42910004 0.248549506
vt 1.42321599 0.0179750305
vt 1.42910004 0.0179750305
vt 1.35836697 0.248549506
vt 1.36425197 0.0179750305
vt 1.36425197 0.248549506
vt 1.42321599 0.248549506
vt 1.41732001 0.0179750305
vt 1.42321599 0.0179750305
vt 1.41142404 0.248549506
vt 1.41732001 0.0179750305
vt 1.41732001 0.248549506
vt 1.41142404 0.248549506
vt 1.40552902 0.0179750305
vt 1.41142404 0.0179750305
vt 1.40552795 0.248549506
vt 1.39963198 0.0179750305
vt 1.40552902 0.0179750305
vt 1.39963198 0.248549506
vt 1.393736 0.0179750305
vt 1.39963198 0.0179750305
vt 1.38783896 0.248549506
vt 1.393736 0.0179750305
vt 1.393736 0.248549506
vt 1.38783896 0.248549506
vt 1.38194299 0.0179750305
vt 1.38784003 0.0179750305
vt 1.38194299 0.248549506
vt 1.37604594 0.0179750305
vt 1.38194299 0.0179750305
vt 1.37604594 0.248549506
vt 1.37014902 0.0179750305
vt 1.37604594 0.0179750305
vt 1.36425197 0.248549506
vt 1.37014902 0.0179750305
vt 1.37014902 0.248549506
vt 1.42910004 0.0179750305
vt 1.42321599 0.248549506
vt 1.42321599 0.0179750305
vt 1.36425197 0.248549506
vt 1.35836697 0.0179750305
vt 1.36425197 0.0179750305
vt 1.42321599 0.0179750305
vt 1.41732001 0.248549506
vt 1.41732001 0.0179750305
vt 1.41142404 0.248549506
vt 1.41732001 0.0179750305
vt 1.41732001 0.248549506
vt 1.40552795 0.248549506
vt 1.41142404 0.0179750305
vt 1.41142404 0.248549506
vt 1.40552795 0.248549506
vt 1.39963198 0.0179750305
vt 1.40552902 0.0179750305
vt 1.39963198 0.248549506
vt 1.393736 0.0179750305
vt 1.39963198 0.0179750305
vt 1.38783896 0.248549506
vt 1.393736 0.0179750305
vt 1.393736 0.248549506
vt 1.38783896 0.248549506
vt 1.38194299 0.0179750305
vt 1.38784003 0.0179750305
vt 1.37604594 0.248549506
vt 1.38194299 0.0179750305
vt 1.38194299 0.248549506
vt 1.37604594 0.248549506
vt 1.37014902 0.0179750305
vt 1.37604594 0.0179750305
vt 1.36425197 0.248549506
vt 1.37014902 0.0179750305
vt 1.37014902 0.248549506
vt 1.42910004 0.0179750305
vt 1.42321599 0.248549506
vt 1.42321599 0.0179750305
vt 1.35836697 0.248549506
vt 1.35836697 0.0179750305
vt 1.36425197 0.0179750305
vt 1.42321599 0.0179750305
vt 1.42321599 0.248549506
vt 1.41732001 0.248549506
vt 1.41732001 0.248549506
vt 1.41142404 0.248549506
vt 1.41142404 0.0179750305
vt 1.40552795 0.248549506
vt 1.40552902 0.0179750305
vt 1.41142404 0.0179750305
vt 1.39963198 0.248549506
vt 1.39963198 0.0179750305
vt 1.40552902 0.0179750305
vt 1.39963198 0.248549506
vt 1.393736 0.248549506
vt 1.393736 0.0179750305
vt 1.393736 0.248549506
vt 1.38783896 0.248549506
vt 1.38784003 0.0179750305
vt 1.38194299 0.248549506
vt 1.38194299 0.0179750305
vt 1.38784003 0.0179750305
vt 1.37604594 0.248549506
vt 1.37604594 0.0179750305
vt 1.38194299 0.0179750305
vt 1.37604594 0.248549506
vt 1.37014902 0.248549506
vt 1.37014902 0.0179750305
vt 1.36425197 0.248549506
vt 1.36425197 0.0179750305
vt 1.37014902 0.0179750305
vt 1.42910004 0.248549506
vt 1.42321599 0.248549506
vt 1.42321599 0.0179750305
vt 1.35836697 0.248549506
vt 1.35836697 0.0179750305
vt 1.36425197 0.0179750305
vt 1.42321599 0.248549506
vt 1.41732001 0.248549506
vt 1.41732001 0.0179750305
vt 1.41142404 0.248549506
vt 1.41142404 0.0179750305
vt 1.41732001 0.0179750305
vt 1.40552795 0.248549506
vt 1.40552902 0.0179750305
vt 1.41142404 0.0179750305
vt 1.40552795 0.248549506
vt 1.39963198 0.248549506
vt 1.39963198 0.0179750305
vt 1.393736 0.248549506
vt 1.393736 0.0179750305
vt 1.39963198 0.0179750305
vt 1.393736 0.248549506
vt 1.38783896 0.248549506
vt 1.38784003 0.0179750305
vt 1.38194299 0.248549506
vt 1.38194299 0.0179750305
vt 1.38784003 0.0179750305
vt 1.38194299 0.248549506
vt 1.37604594 0.248549506
vt 1.37604594 0.0179750305
vt 1.37014902 0.248549506
vt 1.37014902 0.0179750305
vt 1.37604594 0.0179750305
vt 1.36425197 0.248549506
vt 1.36425197 0.0179750305
vt 1.37014902 0.0179750305
vt 1.42910004 0.0179750305
vt 1.42910004 0.248549506
vt 1.42321599 0.248549506
vt 1.35836697 0.248549506
vt 1.35836697 0.0179750305
vt 1.36425197 0.0179750305
vt 1.42321599 0.248549506
vt 1.41732001 0.248549506
vt 1.41732001 0.0179750305
vt 1.41142404 0.248549506
vt 1.41142404 0.0179750305
vt 1.41732001 0.0179750305
vt 1.40552795 0.248549506
vt 1.40552902 0.0179750305
vt 1.41142404 0.0179750305
vt 1.39963198 0.248549506
vt 1.39963198 0.0179750305
vt 1.40552902 0.0179750305
vt 1.39963198 0.248549506
vt 1.393736 0.248549506
vt 1.393736 0.0179750305
vt 1.393736 0.248549506
vt 1.38783896 0.248549506
vt 1.38784003 0.0179750305
vt 1.38194299 0.248549506
vt 1.38194299 0.0179750305
vt 1.38784003 0.0179750305
vt 1.37604594 0.248549506
vt 1.37604594 0.0179750305
vt 1.38194299 0.0179750305
vt 1.37014902 0.248549506
vt 1.37014902 0.0179750305
vt 1.37604594 0.0179750305
vt 1.36425197 0.248549506
vt 1.36425197 0.0179750305
vt 1.37014902 0.0179750305
vt 1.42910004 0.248549506
vt 1.42321599 0.248549506
vt 1.42321599 0.0179750305
vt 1.35836697 0.248549506
vt 1.35836697 0.0179750305
vt 1.36425197 0.0179750305
vt 1.42321599 0.0179750305
vt 1.42321599 0.248549506
vt 1.41732001 0.248549506
vt 1.41732001 0.248549506
vt 1.41142404 0.248549506
vt 1.41142404 0.0179750305
vt 1.40552795 0.248549506
vt 1.40552902 0.0179750305
vt 1.41142404 0.0179750305
vt 1.39963198 0.248549506
vt 1.39963198 0.0179750305
vt 1.40552902 0.0179750305
vt 1.393736 0.248549506
vt 1.393736 0.0179750305
vt 1.39963198 0.0179750305
vt 1.38783896 0.248549506
vt 1.38784003 0.0179750305
vt 1.393736 0.0179750305
vt 1.38783896 0.248549506
vt 1.38194299 0.248549506
vt 1.38194299 0.0179750305
vt 1.38194299 0.248549506
vt 1.37604594 0.248549506
vt 1.37604594 0.0179750305
vt 1.37604594 0.248549506
vt 1.37014902 0.248549506
vt 1.37014902 0.0179750305
vt 1.36425197 0.248549506
vt 1.36425197 0.0179750305
vt 1.37014902 0.0179750305
vt 1.42910004 0.248549506
vt 1.42321599 0.248549506
vt 1.42321599 0.0179750305
vt 1.35836697 0.248549506
vt 1.35836697 0.0179750305
vt 1.36425197 0.0179750305
vt 1.42321599 0.0179750305
vt 1.42321599 0.248549506
vt 1.41732001 0.248549506
vt 1.41732001 0.248549506
vt 1.41142404 0.248549506
vt 1.41142404 0.0179750305
vt 1.40552795 0.248549506
vt 1.40552902 0.0179750305
vt 1.41142404 0.0179750305
vt 1.39963198 0.248549506
vt 1.39963198 0.0179750305
vt 1.40552902 0.0179750305
vt 1.39963198 0.248549506
vt 1.393736 0.248549506
vt 1.393736 0.0179750305
vt 1.38783896 0.248549506
vt 1.38784003 0.0179750305
vt 1.393736 0.0179750305
vt 1.38194299 0.248549506
vt 1.38194299 0.0179750305
vt 1.38784003 0.0179750305
vt 1.37604594 0.248549506
vt 1.37604594 0.0179750305
vt 1.38194299 0.0179750305
vt 1.37604594 0.248549506
vt 1.37014902 0.248549506
vt 1.37014902 0.0179750305
vt 1.36425197 0.248549506
vt 1.36425197 0.0179750305
vt 1.37014902 0.0179750305
vt 1.42910004 0.248549506
vt 1.42321599 0.248549506
vt 1.42321599 0.0179750305
vt 1.35836697 0.248549506
vt 1.35836697 0.0179750305
vt 1.36425197 0.0179750305
vt 1.42321599 0.0179750305
vt 1.42321599 0.248549506
vt 1.41732001 0.248549506
vt 1.41732001 0.248549506
vt 1.41142404 0.248549506
vt 1.41142404 0.0179750305
vt 1.40552795 0.248549506
vt 1.40552902 0.0179750305
vt 1.41142404 0.0179750305
vt 1.40552795 0.248549506
vt 1.39963198 0.248549506
vt 1.39963198 0.0179750305
vt 1.393736 0.248549506
vt 1.393736 0.0179750305
vt 1.39963198 0.0179750305
vt 1.38783896 0.248549506
vt 1.38784003 0.0179750305
vt 1.393736 0.0179750305
vt 1.38194299 0.248549506
vt 1.38194299 0.0179750305
vt 1.38784003 0.0179750305
vt 1.38194299 0.248549506
vt 1.37604594 0.248549506
vt 1.37604594 0.0179750305
vt 1.37604594 0.248549506
vt 1.37014902 0.248549506
vt 1.37014902 0.0179750305
vt 1.36425197 0.248549506
vt 1.36425197 0.0179750305
vt 1.37014902 0.0179750305
vt 1.42910004 0.248549506
vt 1.42321599 0.248549506
vt 1.42321599 0.0179750305
vt 1.35836697 0.248549506
vt 1.35836697 0.0179750305
vt 1.36425197 0.0179750305
vt 1.42321599 0.0179750305
vt 1.42321599 0.248549506
vt 1.41732001 0.248549506
vt 1.41732001 0.248549506
vt 1.41142404 0.248549506
vt 1.41142404 0.0179750305
vt 1.40552795 0.248549506
vt 1.40552902 0.0179750305
vt 1.41142404 0.0179750305
vt 1.40552795 0.248549506
vt 1.39963198 0.248549506
vt 1.39963198 0.0179750305
vt 1.39963198 0.248549506
vt 1.393736 0.248549506
vt 1.393736 0.0179750305
vt 1.38783896 0.248549506
vt 1.38784003 0.0179750305
vt 1.393736 0.0179750305
vt 1.38194299 0.248549506
vt 1.38194299 0.0179750305
vt 1.38784003 0.0179750305
vt 1.37604594 0.248549506
vt 1.37604594 0.0179750305
vt 1.38194299 0.0179750305
vt 1.37014902 0.248549506
vt 1.37014902 0.0179750305
vt 1.37604594 0.0179750305
vt 1.36425197 0.248549506
vt 1.36425197 0.0179750305
vt 1.37014902 0.0179750305
vt 1.42910004 0.248549506
vt 1.42321599 0.248549506
vt 1.42321599 0.0179750305
vt 1.35836697 0.248549506
vt 1.35836697 0.0179750305
vt 1.36425197 0.0179750305
vt 1.42321599 0.0179750305
vt 1.42321599 0.248549506
vt 1.41732001 0.248549506
vt 1.41732001 0.248549506
vt 1.41142404 0.248549506
vt 1.41142404 0.0179750305
vt 1.40552795 0.248549506
vt 1.40552902 0.0179750305
vt 1.41142404 0.0179750305
vt 1.40552795 0.248549506
vt 1.39963198 0.248549506
vt 1.39963198 0.0179750305
vt 1.39963198 0.248549506
vt 1.393736 0.248549506
vt 1.393736 0.0179750305
vt 1.38783896 0.248549506
vt 1.38784003 0.0179750305
vt 1.393736 0.0179750305
vt 1.38783896 0.248549506
vt 1.38194299 0.248549506
vt 1.38194299 0.0179750305
vt 1.37604594 0.248549506
vt 1.37604594 0.0179750305
vt 1.38194299 0.0179750305
vt 1.37014902 0.248549506
vt 1.37014902 0.0179750305
vt 1.37604594 0.0179750305
vt 1.36425197 0.248549506
vt 1.36425197 0.0179750305
vt 1.37014902 0.0179750305
vt 1.42910004 0.248549506
vt 1.42321599 0.248549506
vt 1.42321599 0.0179750305
vt 1.35836697 0.248549506
vt 1.35836697 0.0179750305
vt 1.36425197 0.0179750305
vt 1.42321599 0.0179750305
vt 1.42321599 0.248549506
vt 1.41732001 0.248549506
vt 1.41142404 0.248549506
vt 1.41142404 0.0179750305
vt 1.41732001 0.0179750305
vt 1.40552795 0.248549506
vt 1.40552902 0.0179750305
vt 1.41142404 0.0179750305
vt 1.40552795 0.248549506
vt 1.39963198 0.248549506
vt 1.39963198 0.0179750305
vt 1.393736 0.248549506
vt 1.393736 0.0179750305
vt 1.39963198 0.0179750305
vt 1.38783896 0.248549506
vt 1.38784003 0.0179750305
vt 1.393736 0.0179750305
vt 1.38783896 0.248549506
vt 1.38194299 0.248549506
vt 1.38194299 0.0179750305
vt 1.37604594 0.248549506
vt 1.37604594 0.0179750305
vt 1.38194299 0.0179750305
vt 1.37014902 0.248549506
vt 1.37014902 0.0179750305
vt 1.37604594 0.0179750305
vt 1.36425197 0.248549506
vt 1.36425197 0.0179750305
vt 1.37014902 0.0179750305
vt 1.42910004 0.248549506
vt 1.42321599 0.248549506
vt 1.42321599 0.0179750305
vt 1.35836697 0.248549506
vt 1.35836697 0.0179750305
vt 1.36425197 0.0179750305
vt 1.42321599 0.0179750305
vt 1.42321599 0.248549506
vt 1.41732001 0.248549506
vt 1.41732001 0.248549506
vt 1.41142404 0.248549506
vt 1.41142404 0.0179750305
vt 1.41142404 0.248549506
vt 1.40552795 0.248549506
vt 1.40552902 0.0179750305
vt 1.40552795 0.248549506
vt 1.39963198 0.248549506
vt 1.39963198 0.0179750305
vt 1.393736 0.248549506
vt 1.393736 0.0179750305
vt 1.39963198 0.0179750305
vt 1.38783896 0.248549506
vt 1.38784003 0.0179750305
vt 1.393736 0.0179750305
vt 1.38194299 0.248549506
vt 1.38194299 0.0179750305
vt 1.38784003 0.0179750305
vt 1.38194299 0.248549506
vt 1.37604594 0.248549506
vt 1.37604594 0.0179750305
vt 1.37014902 0.248549506
vt 1.37014902 0.0179750305
vt 1.37604594 0.0179750305
vt 1.36425197 0.248549506
vt 1.36425197 0.0179750305
vt 1.37014902 0.0179750305
vt 1.42910004 0.248549506
vt 1.42321599 0.248549506
vt 1.42321599 0.0179750305
vt 1.35836697 0.248549506
vt 1.35836697 0.0179750305
vt 1.36425197 0.0179750305
vt 1.42321599 0.248549506
vt 1.41732001 0.248549506
vt 1.41732001 0.0179750305
vt 1.41142404 0.248549506
vt 1.41142404 0.0179750305
vt 1.41732001 0.0179750305
vt 1.41142404 0.248549506
vt 1.40552795 0.248549506
vt 1.40552902 0.0179750305
vt 1.40552795 0.248549506
vt 1.39963198 0.248549506
vt 1.39963198 0.0179750305
vt 1.39963198 0.248549506
vt 1.393736 0.248549506
vt 1.393736 0.0179750305
vt 1.38783896 0.248549506
vt 1.38784003 0.0179750305
vt 1.393736 0.0179750305
vt 1.38783896 0.248549506
vt 1.38194299 0.248549506
vt 1.38194299 0.0179750305
vt 1.38194299 0.248549506
vt 1.37604594 0.248549506
vt 1.37604594 0.0179750305
vt 1.37604594 0.248549506
vt 1.37014902 0.248549506
vt 1.37014902 0.0179750305
vt 1.36425197 0.248549506
vt 1.36425197 0.0179750305
vt 1.37014902 0.0179750305
vt 1.42910004 0.0179750305
vt 1.42910004 0.248549506
vt 1.42321599 0.248549506
vt 1.36425197 0.248549506
vt 1.35836697 0.248549506
vt 1.35836697 0.0179750305
vt 1.42321599 0.0179750305
vt 1.42321599 0.248549506
vt 1.41732001 0.248549506
vt 1.41142404 0.248549506
vt 1.41142404 0.0179750305
vt 1.41732001 0.0179750305
vt 1.40552795 0.248549506
vt 1.40552902 0.0179750305
vt 1.41142404 0.0179750305
vt 1.40552795 0.248549506
vt 1.39963198 0.248549506
vt 1.39963198 0.0179750305
vt 1.39963198 0.248549506
vt 1.393736 0.248549506
vt 1.393736 0.0179750305
vt 1.38783896 0.248549506
vt 1.38784003 0.0179750305
vt 1.393736 0.0179750305
vt 1.38783896 0.248549506
vt 1.38194299 0.248549506
vt 1.38194299 0.0179750305
vt 1.37604594 0.248549506
vt 1.37604594 0.0179750305
vt 1.38194299 0.0179750305
vt 1.37604594 0.248549506
vt 1.37014902 0.248549506
vt 1.37014902 0.0179750305
vt 1.36425197 0.248549506
vt 1.36425197 0.0179750305
vt 1.37014902 0.0179750305
vt 1.42910004 0.0179750305
vt 1.42910004 0.248549506
vt 1.42321599 0.248549506
vn 2.74670001e-05 0.0760437623 0.0649411082
vn -2.74675986e-05 -0.0707106367 -0.0707107335
vn -2.74675003e-05 -0.0649392381 -0.0760453641
vn -2.44154999e-05 -0.0453975499 -0.0891014263
vn -2.13634012e-05 -0.015641015 -0.0987692252
vn -1.52596003e-05 0.0156411454 -0.0987692028
vn -9.15582041e-06 0.0453976691 -0.0891013667
vn 0 0.0707107261 -0.0707106367
vn 9.15582041e-06 0.0891014263 -0.0453975536
vn 1.52596003e-05 0.0987692252 -0.015641015
vn 2.13634012e-05 0.0987692028 0.0156411435
vn 2.44154999e-05 0.0891013667 0.0453976691
vn 2.74675003e-05 0.0760452822 0.0649393424
vn 2.7467102e-05 0.0891001299 0.0454000868
vn 6.10388042e-06 0.0891014263 -0.0453975536
vn -6.10380039e-06 0.0454000905 -0.0891001299
vn -2.13633011e-05 -0.0156439841 -0.0987687558
vn -2.74675003e-05 -0.0453975499 -0.0891014263
vn -2.74669001e-05 -0.0649377331 -0.0760466382
vn 6.10380039e-06 0.0891001895 -0.0453999713
vn 2.13633011e-05 0.0987687334 0.0156441145
vn 2.74675003e-05 0.0891013667 0.0453976691
vn 2.44155999e-05 0.0707106367 0.0707107335
vn 2.44154999e-05 0.0760480687 0.0649360642
vn 0 0.070712246 -0.0707091093
vn 2.74675986e-05 0.0707106367 0.0707107335
vn -2.74670001e-05 -0.0707091093 -0.0707122535
vn -2.74670001e-05 -0.064940989 -0.0760438442
vn -2.7467102e-05 -0.0453999713 -0.0891001895
vn 1.52595003e-05 0.0987687483 -0.0156439859
vn 2.74669001e-05 0.0760465562 0.06493783
vn -9.15569035e-06 0.0454000905 -0.0891001299
vn -2.44155999e-05 -0.0707106367 -0.0707107335
vn -2.44152016e-05 -0.0453999713 -0.0891001895
vn -1.83115008e-05 0.0156411454 -0.0987692028
vn -2.74670001e-05 -0.070712246 0.0707091093
vn -2.74669001e-05 -0.0760466456 0.0649377331
vn 2.44155999e-05 0.0707107261 -0.0707106367
vn 2.74675003e-05 0.0649393424 -0.0760452822
vn 2.7467102e-05 0.0454000905 -0.0891001299
vn 2.13634012e-05 0.0156411454 -0.0987692028
vn 1.52596003e-05 -0.015641015 -0.0987692252
vn 9.15569035e-06 -0.0453999713 -0.0891001895
vn 0 -0.0707091093 -0.0707122535
vn -6.10380039e-06 -0.0891001299 -0.0454000868
vn -1.52596003e-05 -0.0987692103 -0.0156411435
vn -2.13633011e-05 -0.0987687483 0.0156439859
vn -2.74667e-05 -0.0891020522 0.0453963205
vn -2.44155999e-05 -0.0707107261 0.0707106367
vn -2.74674003e-05 -0.0760481581 0.0649359599
vn 0 -0.0707106367 -0.0707107335
vn 2.74675003e-05 0.0453976691 -0.0891013667
vn -2.74675986e-05 -0.0707107261 0.0707106367
vn -2.74675003e-05 -0.0760453716 0.0649392381
vn 1.52595003e-05 -0.0156439841 -0.0987687558
vn 6.10380039e-06 -0.0453999713 -0.0891001895
vn -2.44152016e-05 -0.0987687483 0.0156439859
vn -2.7467102e-05 -0.0891032815 0.0453938916
vn -2.74675003e-05 -0.0891014263 0.0453975536
vn -1.52595003e-05 -0.0987687334 -0.0156441145
vn -9.15569035e-06 -0.0891001299 -0.0454000868
vn 0 -0.0707121566 -0.0707091987
vn 2.74675986e-05 0.0707107261 -0.0707106367
vn 2.44154999e-05 0.0453976691 -0.0891013667
vn 6.10388042e-06 -0.0453975499 -0.0891014263
vn -2.7467102e-05 -0.0891001895 0.0453999713
vn -9.15582041e-06 -0.0891013667 -0.0453976691
vn 2.44155999e-05 0.0649393424 -0.0760452822
vn 2.44152016e-05 0.0454000905 -0.0891001299
vn -1.22077008e-05 -0.0987692103 -0.0156411435
vn -2.13634012e-05 -0.0987692177 0.015641015
vn 2.74670001e-05 0.0649410933 -0.0760437623
vn 2.13633011e-05 0.0156441145 -0.0987687334
vn -6.10388042e-06 -0.0891013667 -0.0453976691
vn -2.44154999e-05 -0.0891014263 0.0453975536
vn -2.74670001e-05 -0.0707091987 0.0707121566
vn 2.74670001e-05 0.0707091093 0.0707122535
vn 2.44150997e-05 0.0707091093 0.0707122535
vn 3.05188987e-05 0.0707091093 0.0707122535
vn 2.44152016e-05 0.0891001299 0.0454000868
vn -6.10388042e-06 0.0453976691 -0.0891013667
vn 3.0519499e-05 0.0707106367 0.0707107335
vn 2.74670001e-05 0.0707121566 0.0707091987
vn -2.74670001e-05 -0.0707121566 -0.0707091987
vn -2.44152016e-05 -0.0891001895 0.0453999713
vn 2.74675986e-05 0.0707137734 -0.0707075894
vn 2.74670001e-05 0.070712246 -0.0707091093
vn 2.74670001e-05 0.0707091987 -0.0707121566
vn 3.0519499e-05 0.0707107261 -0.0707106367
f 10/1/78 11/2/1 3/3/13
f 19/4/19 9/5/4 17/6/18
f 9/7/4 16/8/17 17/9/18
f 8/10/6 16/11/17 289/12/5
f 288/13/7 292/14/6 8/15/6
f 288/16/7 15/17/8 291/18/16
f 287/19/8 14/20/15 15/21/8
f 6/22/10 14/23/15 7/24/9
f 5/25/11 13/26/10 6/27/10
f 5/28/11 290/29/14 12/30/11
f 3/31/13 290/32/14 4/33/12
f 2/34/2 19/35/19 20/36/2
f 33/37/23 293/38/1 23/39/24
f 21/40/3 294/41/29 43/42/3
f 31/43/5 294/44/29 32/45/18
f 30/46/6 41/47/17 31/48/5
f 30/49/6 39/50/16 40/51/6
f 28/52/8 39/53/16 29/54/16
f 28/55/8 37/56/20 38/57/25
f 26/58/10 37/59/20 27/60/20
f 26/61/10 35/62/11 36/63/10
f 24/64/22 35/65/11 25/66/21
f 23/67/24 34/68/14 24/69/22
f 44/70/2 21/71/3 43/72/3
f 57/73/79 295/74/13 47/75/24
f 45/76/28 298/77/29 65/78/3
f 55/79/5 298/80/29 56/81/29
f 54/82/6 63/83/5 55/84/5
f 53/85/7 62/86/6 54/87/6
f 53/88/7 60/89/8 61/90/81
f 52/91/8 59/92/20 60/93/8
f 50/94/10 59/95/20 51/96/15
f 49/97/21 297/98/30 50/99/10
f 48/100/22 296/101/11 49/102/21
f 47/103/24 58/104/80 48/105/22
f 46/106/27 65/107/3 66/108/2
f 76/109/26 77/110/13 69/111/31
f 86/112/3 75/113/29 84/114/4
f 75/115/29 303/116/5 84/117/4
f 74/118/6 303/119/5 301/120/5
f 300/121/7 302/122/6 74/123/6
f 299/124/8 83/125/16 300/126/7
f 73/127/15 82/128/8 299/129/8
f 73/130/15 80/131/10 81/132/15
f 72/133/10 79/134/11 80/135/10
f 71/136/21 78/137/14 79/138/11
f 69/139/31 78/140/14 70/141/22
f 68/142/2 86/143/3 87/144/2
f 98/145/82 99/146/13 90/147/31
f 108/148/3 97/149/4 106/150/18
f 97/151/4 307/152/5 106/153/18
f 95/154/6 307/155/5 96/156/5
f 305/157/32 105/158/6 95/159/6
f 305/160/32 103/161/8 104/162/16
f 94/163/15 103/164/8 304/165/8
f 93/166/10 102/167/20 94/168/15
f 92/169/21 101/170/10 93/171/10
f 92/172/21 306/173/22 100/174/11
f 90/175/31 306/176/22 91/177/22
f 89/178/2 108/179/3 109/180/2
f 119/181/26 120/182/13 112/183/31
f 129/184/3 118/185/34 127/186/18
f 118/187/34 312/188/5 127/189/18
f 117/190/35 312/191/5 310/192/5
f 117/193/35 125/194/16 126/195/6
f 308/196/8 125/197/16 309/198/7
f 116/199/20 124/200/8 308/201/8
f 115/202/10 123/203/20 116/204/20
f 115/205/10 121/206/11 122/207/10
f 114/208/21 311/209/14 121/210/11
f 112/211/31 311/212/14 113/213/12
f 111/214/33 129/215/3 130/216/84
f 143/217/49 144/218/37 133/219/50
f 155/220/39 142/221/40 153/222/52
f 142/223/40 152/224/41 153/225/52
f 140/226/42 152/227/41 141/228/41
f 140/229/42 150/230/65 151/231/42
f 139/232/43 149/233/51 150/234/65
f 137/235/45 149/236/51 138/237/44
f 136/238/46 148/239/74 137/240/45
f 135/241/47 147/242/46 136/243/46
f 134/244/48 146/245/47 135/246/47
f 133/247/50 145/248/85 134/249/48
f 132/250/38 155/251/39 156/252/86
f 169/253/53 170/254/54 159/255/50
f 181/256/39 168/257/52 179/258/52
f 168/259/52 178/260/41 179/261/52
f 166/262/55 178/263/41 167/264/41
f 166/265/55 176/266/65 177/267/42
f 165/268/56 175/269/62 176/270/65
f 163/271/45 175/272/62 164/273/51
f 163/274/45 173/275/60 174/276/61
f 161/277/57 173/278/60 162/279/46
f 160/280/58 172/281/47 161/282/57
f 159/283/50 171/284/59 160/285/58
f 158/286/63 181/287/39 182/288/87
f 195/289/53 196/290/37 185/291/37
f 207/292/39 194/293/64 205/294/52
f 193/295/41 205/296/52 194/297/64
f 192/298/55 204/299/41 193/300/41
f 192/301/55 202/302/65 203/303/42
f 190/304/51 202/305/65 191/306/65
f 189/307/61 201/308/51 190/309/51
f 189/310/61 199/311/60 200/312/67
f 187/313/47 199/314/60 188/315/46
f 186/316/59 198/317/47 187/318/47
f 185/319/37 197/320/66 186/321/59
f 184/322/63 207/323/39 208/324/87
f 221/325/53 222/326/54 211/327/54
f 233/328/72 220/329/69 231/330/40
f 220/331/69 230/332/41 231/333/40
f 219/334/41 229/335/42 230/336/41
f 218/337/42 228/338/65 229/339/42
f 216/340/51 228/341/65 217/342/43
f 215/343/45 227/344/51 216/345/51
f 214/346/70 226/347/67 215/348/45
f 214/349/70 224/350/47 225/351/46
f 212/352/59 224/353/47 213/354/71
f 211/355/54 223/356/66 212/357/59
f 210/358/63 233/359/72 234/360/63
f 247/361/53 248/362/54 237/363/37
f 235/364/39 257/365/40 259/366/72
f 245/367/73 257/368/40 246/369/64
f 245/370/73 255/371/42 256/372/41
f 244/373/42 254/374/56 255/375/42
f 243/376/43 253/377/51 254/378/56
f 241/379/74 253/380/51 242/381/51
f 241/382/74 251/383/60 252/384/45
f 240/385/46 250/386/47 251/387/60
f 239/388/47 249/389/85 250/390/47
f 237/391/37 249/392/85 238/393/75
f 260/394/63 235/395/39 259/396/72
f 263/397/54 284/398/53 274/399/54
f 285/400/39 272/401/69 283/402/52
f 271/403/73 283/404/52 272/405/69
f 270/406/42 282/407/41 271/408/73
f 270/409/42 280/410/56 281/411/42
f 269/412/43 279/413/51 280/414/56
f 267/415/45 279/416/51 268/417/51
f 267/418/45 277/419/60 278/420/45
f 265/421/47 277/422/60 266/423/46
f 265/424/47 275/425/75 276/426/71
f 263/427/54 275/428/75 264/429/75
f 286/430/88 261/431/39 285/432/39
f 10/433/78 18/434/77 11/435/1
f 19/436/19 1/437/3 9/438/4
f 9/439/4 289/440/5 16/441/17
f 8/442/6 292/443/6 16/444/17
f 288/445/7 291/446/16 292/447/6
f 288/448/7 287/449/8 15/450/8
f 287/451/8 7/452/9 14/453/15
f 6/454/10 13/455/10 14/456/15
f 5/457/11 12/458/11 13/459/10
f 5/460/11 4/461/12 290/462/14
f 3/463/13 11/464/1 290/465/14
f 2/466/2 1/467/3 19/468/19
f 33/469/23 42/470/77 293/471/1
f 21/472/3 32/473/18 294/474/29
f 31/475/5 41/476/17 294/477/29
f 30/478/6 40/479/6 41/480/17
f 30/481/6 29/482/16 39/483/16
f 28/484/8 38/485/25 39/486/16
f 28/487/8 27/488/20 37/489/20
f 26/490/10 36/491/10 37/492/20
f 26/493/10 25/494/21 35/495/11
f 24/496/22 34/497/14 35/498/11
f 23/499/24 293/500/1 34/501/14
f 44/502/2 22/503/2 21/504/3
f 57/505/79 64/506/26 295/507/13
f 45/508/28 56/509/29 298/510/29
f 55/511/5 63/512/5 298/513/29
f 54/514/6 62/515/6 63/516/5
f 53/517/7 61/518/81 62/519/6
f 53/520/7 52/521/8 60/522/8
f 52/523/8 51/524/15 59/525/20
f 50/526/10 297/527/30 59/528/20
f 49/529/21 296/530/11 297/531/30
f 48/532/22 58/533/80 296/534/11
f 47/535/24 295/536/13 58/537/80
f 46/538/27 45/539/28 65/540/3
f 76/541/26 85/542/26 77/543/13
f 86/544/3 67/545/3 75/546/29
f 75/547/29 301/548/5 303/549/5
f 74/550/6 302/551/6 303/552/5
f 300/553/7 83/554/16 302/555/6
f 299/556/8 82/557/8 83/558/16
f 73/559/15 81/560/15 82/561/8
f 73/562/15 72/563/10 80/564/10
f 72/565/10 71/566/21 79/567/11
f 71/568/21 70/569/22 78/570/14
f 69/571/31 77/572/13 78/573/14
f 68/574/2 67/575/3 86/576/3
f 98/577/82 107/578/26 99/579/13
f 108/580/3 88/581/3 97/582/4
f 97/583/4 96/584/5 307/585/5
f 95/586/6 105/587/6 307/588/5
f 305/589/32 104/590/16 105/591/6
f 305/592/32 304/593/8 103/594/8
f 94/595/15 102/596/20 103/597/8
f 93/598/10 101/599/10 102/600/20
f 92/601/21 100/602/11 101/603/10
f 92/604/21 91/605/22 306/606/22
f 90/607/31 99/608/13 306/609/22
f 89/610/2 88/611/3 108/612/3
f 119/613/26 128/614/83 120/615/13
f 129/616/3 110/617/3 118/618/34
f 118/619/34 310/620/5 312/621/5
f 117/622/35 126/623/6 312/624/5
f 117/625/35 309/626/7 125/627/16
f 308/628/8 124/629/8 125/630/16
f 116/631/20 123/632/20 124/633/8
f 115/634/10 122/635/10 123/636/20
f 115/637/10 114/638/21 121/639/11
f 114/640/21 113/641/12 311/642/14
f 112/643/31 120/644/13 311/645/14
f 111/646/33 110/647/3 129/648/3
f 143/649/49 154/650/36 144/651/37
f 155/652/39 131/653/39 142/654/40
f 142/655/40 141/656/41 152/657/41
f 140/658/42 151/659/42 152/660/41
f 140/661/42 139/662/43 150/663/65
f 139/664/43 138/665/44 149/666/51
f 137/667/45 148/668/74 149/669/51
f 136/670/46 147/671/46 148/672/74
f 135/673/47 146/674/47 147/675/46
f 134/676/48 145/677/85 146/678/47
f 133/679/50 144/680/37 145/681/85
f 132/682/38 131/683/39 155/684/39
f 169/685/53 180/686/53 170/687/54
f 181/688/39 157/689/39 168/690/52
f 168/691/52 167/692/41 178/693/41
f 166/694/55 177/695/42 178/696/41
f 166/697/55 165/698/56 176/699/65
f 165/700/56 164/701/51 175/702/62
f 163/703/45 174/704/61 175/705/62
f 163/706/45 162/707/46 173/708/60
f 161/709/57 172/710/47 173/711/60
f 160/712/58 171/713/59 172/714/47
f 159/715/50 170/716/54 171/717/59
f 158/718/63 157/719/39 181/720/39
f 195/721/53 206/722/53 196/723/37
f 207/724/39 183/725/39 194/726/64
f 193/727/41 204/728/41 205/729/52
f 192/730/55 203/731/42 204/732/41
f 192/733/55 191/734/65 202/735/65
f 190/736/51 201/737/51 202/738/65
f 189/739/61 200/740/67 201/741/51
f 189/742/61 188/743/46 199/744/60
f 187/745/47 198/746/47 199/747/60
f 186/748/59 197/749/66 198/750/47
f 185/751/37 196/752/37 197/753/66
f 184/754/63 183/755/39 207/756/39
f 221/757/53 232/758/36 222/759/54
f 233/760/72 209/761/68 220/762/69
f 220/763/69 219/764/41 230/765/41
f 219/766/41 218/767/42 229/768/42
f 218/769/42 217/770/43 228/771/65
f 216/772/51 227/773/51 228/774/65
f 215/775/45 226/776/67 227/777/51
f 214/778/70 225/779/46 226/780/67
f 214/781/70 213/782/71 224/783/47
f 212/784/59 223/785/66 224/786/47
f 211/787/54 222/788/54 223/789/66
f 210/790/63 209/791/68 233/792/72
f 247/793/53 258/794/36 248/795/54
f 235/796/39 246/797/64 257/798/40
f 245/799/73 256/800/41 257/801/40
f 245/802/73 244/803/42 255/804/42
f 244/805/42 243/806/43 254/807/56
f 243/808/43 242/809/51 253/810/51
f 241/811/74 252/812/45 253/813/51
f 241/814/74 240/815/46 251/816/60
f 240/817/46 239/818/47 250/819/47
f 239/820/47 238/821/75 249/822/85
f 237/823/37 248/824/54 249/825/85
f 260/826/63 236/827/88 235/828/39
f 263/829/54 273/830/76 284/831/53
f 285/832/39 261/833/39 272/834/69
f 271/835/73 282/836/41 283/837/52
f 270/838/42 281/839/42 282/840/41
f 270/841/42 269/842/43 280/843/56
f 269/844/43 268/845/51 279/846/51
f 267/847/45 278/848/45 279/849/51
f 267/850/45 266/851/46 277/852/60
f 265/853/47 276/854/71 277/855/60
f 265/856/47 264/857/75 275/858/75
f 263/859/54 274/860/54 275/861/75
f 286/862/88 262/863/89 261/864/39
