v -3.77454326 0.256128967 2.55367863
v -3.77451656 0.349476397 2.49974376
v -3.72764299 0.349476397 2.49548215
v -3.72768257 0.159101069 2.57039005
v -3.77455471 0.159101069 2.57465166
v -3.72768257 -0.886879861 2.57038951
v -3.77455471 -0.886878967 2.57465106
v -3.72314451 -0.970562279 2.5505504
v -3.77001713 -0.970562279 2.55481189
v -3.72764204 -1.05932522 2.49548143
v -3.77451418 -1.0593242 2.49974304
v -3.56729458 0.349476397 2.46339291
v -3.56732319 0.270336807 2.51732773
v -3.5673332 0.159101069 2.53830057
v -3.56733272 -0.886879861 2.53830004
v -3.56279514 -0.971456885 2.51846093
v -3.56729458 -1.05932522 2.46339226
v -3.50498722 0.271001995 2.51085156
v -3.50499962 0.159101546 2.53182453
v -3.50499819 -0.886879623 2.53182393
v -3.50249622 -0.972351313 2.51198381
v -3.44412992 0.256129026 2.5168106
v -3.44413994 0.159101486 2.53778332
v -3.44413994 -0.886879683 2.53778291
v -3.43960426 -0.970562041 2.5179438
v -3.43957136 -1.05581832 2.45459449
v -3.50246761 -1.05581832 2.45450008
v -3.50495861 0.350857735 2.45449936
v -3.44409798 0.350857735 2.45459288
v -3.3849921 0.256128967 2.53895038
v -3.3849983 0.159101486 2.55005085
v -3.38499687 -0.886879683 2.55041862
v -3.38046787 -0.9705621 2.5438602
v -3.38044451 -1.05581832 2.49760211
v -3.38497112 0.350857735 2.49759883
v -3.33278225 0.256128967 2.57383114
v -3.33278129 0.159101486 2.57085776
v -3.33278129 -0.886879683 2.57208806
v -3.32825945 -0.9705621 2.58102161
v -3.32824943 -1.05581838 2.56067705
v -3.33277462 0.350857675 2.55985856
v -3.31003044 -1.05581838 2.59672964
v -3.3145561 0.350857675 2.59556454
v -2.94765327 0.333511949 2.27015728
v -2.97774742 0.333511949 2.27015728
v -2.97774742 0.535545707 2.2701574
v -2.94765327 0.535545707 2.2701574
v -2.94765327 0.333511829 2.51612306
v -2.94765327 0.535545588 2.51612318
v -2.97774742 0.535545588 2.51612318
v -2.97774742 0.333511829 2.51612318
v -2.92052982 -1.39644051 2.98491251
v -2.92053173 -1.39579499 0.899405479
v -2.92052982 -1.10269588 2.67593074
v -2.92052982 -1.10269535 1.4639518
v -2.92053221 0.687991619 2.98491395
v -2.92053221 0.397843182 2.67593139
v -2.92053221 0.687991977 0.89872694
v -2.92053221 0.130395561 1.20564735
v -2.92053221 -0.84386608 1.20590997
v -2.97771547 -0.80037272 1.29499072
v -2.9777169 0.0930581093 1.29509389
v -2.97771595 0.309029758 2.58821797
v -2.97771547 -1.01802003 2.58896625
v -2.97771547 -1.01746476 1.50902104
v -2.92053221 0.397843778 1.47345015
v -2.97771595 0.308436871 1.50944421
v -2.97771595 0.308634937 2.26636964
v -2.92053221 0.397843421 2.2661508
v -2.97771595 0.308832288 2.52548462
v -2.92053221 0.397843301 2.52546799
v -2.92053221 0.542917311 2.52546811
v -2.92053221 0.54291743 2.26615089
v -2.9777169 0.542664111 2.2663697
v -2.9777169 0.542861581 2.52548468
v -3.33360145 0.309029281 2.58821756
v -3.33360145 -1.01802027 2.58896577
v -3.78026722 -0.800373346 1.29499096
v -3.78026722 0.0930576622 1.29509419
v -3.78026722 -1.01746535 1.50902125
v -3.78026579 -1.01802069 2.58896649
v -3.78026722 0.308436275 1.50944445
v -3.78026722 0.309028864 2.58821827
v -2.77545927 0.597864628 0.893652797
v -2.77545927 0.704584837 0.997231007
v -2.77545927 0.703013897 0.998801768
v -2.77545927 0.599435449 0.892081857
v -2.88420341 0.704584837 0.997231007
v -2.88420341 0.703013897 0.998801768
v -2.88420484 0.599435449 0.892081857
v -2.88420484 0.597864628 0.893652797
v 2.96709426 0.597394347 0.894125819
v 2.96709426 0.702822924 0.99899441
v 2.96709426 0.702542901 0.999275088
v 2.96709426 0.597675145 0.893845797
v 2.03847112 0.702822924 0.998994708
v 2.03847112 0.702542901 0.999275506
v 2.03847112 0.597674489 0.893845797
v 2.03847112 0.597394347 0.894125819
v 1.87633409 0.70993185 0.991886795
v 1.87633314 0.695434928 1.00638318
v 1.87633314 0.590285778 0.901233792
v 1.87633314 0.60478276 0.886737823
v 1.15615012 0.709930897 0.991886795
v 1.15615108 0.695433855 1.00638342
v 1.15615012 0.604781866 0.886737823
v 1.15615012 0.590284944 0.901234865
v 1.98304011 0.597868443 0.893651724
v 1.98304011 0.704587936 0.997230053
v 1.98304011 0.703016877 0.998800933
v 1.98304011 0.599438846 0.892080784
v 1.87429514 0.704587936 0.997230053
v 1.87429514 0.703016877 0.998801231
v 1.87429514 0.599438846 0.892080784
v 1.87429514 0.597868443 0.893651724
v 1.161716 0.597867489 0.893651724
v 1.161716 0.704587936 0.997230411
v 1.161716 0.703016877 0.998801231
v 1.161716 0.59943831 0.892081857
v 1.05297115 0.704587936 0.997230411
v 1.05297115 0.703016877 0.998801231
v 1.05297115 0.59943831 0.892081857
v 1.05297115 0.597867489 0.893651724
v 1.86235406 0.58476603 0.913134813
v 1.86235406 0.698030949 0.997406662
v 1.86235406 0.683533907 1.01190317
v 1.86235406 0.599262416 0.898637772
v 1.17013003 0.698029876 0.99740684
v 1.17013003 0.683532834 1.01190335
v 1.17013003 0.599262238 0.898637772
v 1.17013003 0.584765315 0.913134813
v 0.998656055 0.597392857 0.894125819
v 0.998657009 0.702822924 0.998994887
v 0.998656055 0.702541828 0.999275506
v 0.998656055 0.597673893 0.893845797
v 0.0700338091 0.702821851 0.998995125
v 0.0700338091 0.702541828 0.999275565
v 0.0700338091 0.597673297 0.893845797
v 0.0700330939 0.597392857 0.894126773
v -0.0926031862 0.709929943 0.991886973
v -0.0926031862 0.695432901 1.0063836
v -0.0926031862 0.590284348 0.901234865
v -0.0926031862 0.60478133 0.886737823
v -0.812785605 0.709929943 0.991887093
v -0.812785605 0.695432901 1.00638378
v -0.812785605 0.604780912 0.886737823
v -0.812785605 0.59028399 0.901234865
v 0.0141039099 0.597866714 0.893651724
v 0.0141039099 0.704586864 0.997230589
v 0.0141039099 0.703016877 0.998801231
v 0.0141039099 0.599437356 0.892081857
v -0.0946409498 0.70458591 0.997230589
v -0.0946409498 0.703015804 0.998801589
v -0.0946409498 0.599437356 0.892081857
v -0.0946409498 0.597866714 0.893651724
v -0.807219485 0.597866535 0.893651724
v -0.807219962 0.70458591 0.997230828
v -0.807219962 0.703015804 0.998801589
v -0.807219485 0.599437118 0.892081857
v -0.915965537 0.70458591 0.997230828
v -0.915965537 0.703015804 0.998801589
v -0.915965537 0.599437118 0.892081857
v -0.915965537 0.597866178 0.893651724
v -0.106582144 0.584764361 0.913134813
v -0.106582144 0.698028922 0.997407019
v -0.106582144 0.683532834 1.01190352
v -0.106582144 0.599261105 0.898638844
v -0.79880617 0.698028922 0.997407436
v -0.79880617 0.68353188 1.01190382
v -0.79880617 0.599261105 0.898638844
v -0.79880617 0.584764183 0.913134813
v -2.06084202 0.70992887 0.991887152
v -2.06084345 0.695431828 1.00638396
v -2.06084345 0.590283036 0.901234865
v -2.06084345 0.604779661 0.886737823
v -2.78102444 0.70992887 0.991887391
v -2.78102444 0.695431828 1.00638396
v -2.78102444 0.604779482 0.886737823
v -2.78102444 0.590282619 0.901234865
v -1.95413635 0.597865939 0.893651724
v -1.95413635 0.70458591 0.997230828
v -1.95413635 0.703014851 0.998801589
v -1.95413635 0.599436164 0.892081857
v -2.0628805 0.70458591 0.997230828
v -2.0628805 0.703014851 0.998801768
v -2.0628805 0.599436164 0.892081857
v -2.0628805 0.597865939 0.893651724
v -2.0748205 0.584763229 0.913135767
v -2.0748205 0.698027849 0.997407615
v -2.0748205 0.68353188 1.01190394
v -2.0748205 0.599260151 0.898638844
v -2.767045 0.698027849 0.997407794
v -2.767045 0.683530807 1.0119043
v -2.767045 0.599259734 0.898638844
v -2.767045 0.584762931 0.913135767
v -0.970000247 0.597391307 0.894126773
v -0.970000247 0.702820897 0.998995304
v -0.970000247 0.702540874 0.999275684
v -0.970000247 0.59767276 0.89384675
v -1.89862202 0.702820897 0.998995483
v -1.89862202 0.702539921 0.999275863
v -1.89862202 0.597671688 0.89384675
v -1.89862345 0.597391307 0.894126773
v -2.88486717 -1.30125523 0.889535546
v -2.88486717 -1.40668416 0.994404554
v -2.88486717 -1.40640426 0.994684994
v -2.88486717 -1.30153584 0.889255524
v -1.95624493 -1.40668416 0.994404137
v -1.95624493 -1.40640426 0.994684815
v -1.95624493 -1.30153507 0.889255524
v -1.95624493 -1.30125451 0.889535546
v -1.79410694 -1.41379213 0.987296224
v -1.79410694 -1.39929509 1.00179303
v -1.79410646 -1.294146 0.896643519
v -1.79410694 -1.30864292 0.882146597
v -1.07392309 -1.41379118 0.987296045
v -1.07392309 -1.39929509 1.00179279
v -1.07392309 -1.30864263 0.882146597
v -1.07392309 -1.29414582 0.896643519
v -1.90081356 -1.30172896 0.88906157
v -1.90081356 -1.40844917 0.992639601
v -1.90081356 -1.40687823 0.994210303
v -1.90081356 -1.30330008 0.887490511
v -1.79206751 -1.40844917 0.992639601
v -1.79206751 -1.40687823 0.994210482
v -1.79206751 -1.30329984 0.887490511
v -1.79206751 -1.30172867 0.88906157
v -1.07948921 -1.30172849 0.88906157
v -1.07948921 -1.40844917 0.992639363
v -1.07948921 -1.40687823 0.994210064
v -1.07948921 -1.30329931 0.887490511
v -0.970744589 -1.4084481 0.992639363
v -0.970744589 -1.40687823 0.994210064
v -0.970744589 -1.30329931 0.887490511
v -0.970744589 -1.30172896 0.88906157
v -1.7801275 -1.28862649 0.90854454
v -1.7801275 -1.40189111 0.99281621
v -1.7801275 -1.38739514 1.00731289
v -1.7801275 -1.30312312 0.894047499
v -1.08790348 -1.40189111 0.99281621
v -1.08790348 -1.38739419 1.00731289
v -1.08790348 -1.30312264 0.894047499
v -1.08790348 -1.28862596 0.90854454
v -0.916428069 -1.30125409 0.889535546
v -0.916429022 -1.40668321 0.994403958
v -0.916429022 -1.40640318 0.994684637
v -0.916428069 -1.30153447 0.889255524
v 0.0121939387 -1.40668321 0.99440378
v 0.0121939387 -1.40640223 0.994684637
v 0.0121939387 -1.3015343 0.88925457
v 0.0121939387 -1.30125356 0.889535546
v 0.17482998 -1.41379118 0.987296045
v 0.17482998 -1.39929414 1.00179249
v 0.17482998 -1.29414493 0.896643519
v 0.17482998 -1.30864161 0.882146597
v 0.895013114 -1.41379118 0.987295687
v 0.895012161 -1.39929414 1.00179231
v 0.895013114 -1.30864197 0.882146597
v 0.895013114 -1.29414558 0.896643519
v 0.0681243147 -1.30172825 0.889060616
v 0.0681243147 -1.4084481 0.992639184
v 0.0681243147 -1.40687716 0.994209886
v 0.0681243147 -1.30329871 0.887490511
v 0.176868936 -1.4084481 0.992639184
v 0.176868936 -1.40687716 0.994210064
v 0.176868936 -1.30329853 0.887490511
v 0.176868936 -1.30172807 0.88906157
v 0.889446041 -1.30172777 0.889060616
v 0.889446041 -1.40844715 0.992639184
v 0.889446041 -1.40687716 0.994209886
v 0.889446041 -1.30329818 0.887490511
v 0.998191139 -1.40844715 0.992639184
v 0.998191139 -1.40687716 0.994209886
v 0.998192092 -1.30329818 0.887489557
v 0.998192092 -1.30172777 0.889060616
v 0.188808938 -1.288625 0.90854454
v 0.188808938 -1.40189016 0.99281621
v 0.188808938 -1.38739419 1.00731272
v 0.188808938 -1.30312157 0.894047499
v 0.881032964 -1.40189016 0.992816031
v 0.881032964 -1.38739419 1.00731272
v 0.881032964 -1.30312151 0.894047499
v 0.881032964 -1.28862458 0.90854454
v 2.14306917 -1.41379011 0.987295449
v 2.14307012 -1.39929318 1.00179201
v 2.14307012 -1.29414493 0.896643519
v 2.14307012 -1.30864102 0.882146597
v 2.86325111 -1.41378915 0.98729527
v 2.86325111 -1.39929318 1.00179189
v 2.86325111 -1.30864066 0.882146597
v 2.86325111 -1.29414427 0.896642566
v 2.03636207 -1.30172712 0.889060616
v 2.03636207 -1.40844715 0.992639005
v 2.03636207 -1.40687621 0.994209886
v 2.03636207 -1.30329722 0.887489557
v 2.14510812 -1.40844607 0.992639005
v 2.14510812 -1.40687621 0.994209886
v 2.14510812 -1.30329722 0.887489557
v 2.14510812 -1.30172712 0.889060616
v 2.85768606 -1.30172616 0.889060616
v 2.85768606 -1.40844607 0.992639005
v 2.85768606 -1.40687621 0.994209707
v 2.85768606 -1.3032968 0.887489557
v 2.96642997 -1.40844607 0.992638826
v 2.96642997 -1.40687621 0.994209528
v 2.96643092 -1.3032968 0.887489557
v 2.96643092 -1.30172616 0.889060616
v 2.15704813 -1.28862405 0.908543587
v 2.15704813 -1.40188909 0.992815852
v 2.15704813 -1.38739324 1.00731236
v 2.15704813 -1.30312103 0.894046545
v 2.84927311 -1.40188909 0.992815614
v 2.84927311 -1.38739324 1.00731236
v 2.84927311 -1.30312008 0.894046545
v 2.84927311 -1.28862345 0.908543587
v 1.05222799 -1.30125278 0.889535546
v 1.05222704 -1.40668321 0.994403601
v 1.05222704 -1.40640223 0.994684339
v 1.05222704 -1.30153352 0.88925457
v 1.98084917 -1.40668225 0.994403601
v 1.98084917 -1.40640223 0.994684339
v 1.98085012 -1.30153352 0.88925457
v 1.98085012 -1.30125231 0.889535546
vt 0.694295526 0.947027981
vt 0.726463199 0.710550189
vt 0.726463199 0.947027981
vt 0.694375515 0.965947211
vt 0.726463199 0.947027981
vt 0.726543188 0.965947211
vt 0.694295526 0.986014903
vt 0.726543188 0.965947211
vt 0.726463199 0.986014903
vt 0.836502016 0.710550189
vt 0.836502016 0.685401499
vt 0.879281402 0.710550189
vt 0.879281402 0.947027981
vt 0.836502016 0.710550189
vt 0.879281402 0.710550189
vt 0.879281402 0.947027981
vt 0.836581886 0.966149628
vt 0.836502016 0.947027981
vt 0.735913873 0.362500787
vt 0.694144428 0.384437203
vt 0.694144011 0.359138101
vt 0.735913873 0.384437203
vt 0.694144428 0.620915115
vt 0.694144428 0.384437203
vt 0.735913873 0.620915115
vt 0.692827106 0.640238881
vt 0.694144428 0.620915115
vt 0.736426294 0.659109116
vt 0.692827106 0.640238881
vt 0.735993922 0.639834285
vt 0.735913873 0.341084301
vt 0.694144011 0.359138101
vt 0.69414413 0.341084301
vt 0.776508808 0.362500787
vt 0.735913873 0.384437203
vt 0.735913873 0.362500787
vt 0.776508808 0.384437203
vt 0.735913873 0.620915115
vt 0.735913873 0.384437203
vt 0.776508808 0.620915115
vt 0.735993922 0.639834285
vt 0.735913873 0.620915115
vt 0.77702111 0.659109116
vt 0.735993922 0.639834285
vt 0.776588798 0.639834285
vt 0.776508808 0.341084301
vt 0.735913873 0.362500787
vt 0.735913873 0.341084301
vt 0.812353611 0.362500787
vt 0.776508808 0.384437203
vt 0.776508808 0.362500787
vt 0.812353611 0.384437203
vt 0.776508808 0.620915115
vt 0.776508808 0.384437203
vt 0.812353611 0.620915115
vt 0.776588798 0.639834285
vt 0.776508808 0.620915115
vt 0.812865913 0.659109116
vt 0.776588798 0.639834285
vt 0.812433302 0.639834285
vt 0.812353611 0.341084301
vt 0.776508808 0.362500787
vt 0.776508808 0.341084301
vt 0.884644926 0.447284698
vt 0.984147072 0.433914095
vt 0.984147072 0.447284788
vt 0.855651379 0.31393221
vt 0.884644926 0.433914095
vt 0.855651319 0.433914095
vt 0.998428702 0.31393221
vt 0.984147072 0.433914095
vt 0.984147191 0.31393221
vt 0.984147072 0.433914095
vt 0.884644985 0.31393221
vt 0.984147191 0.31393221
vt 0.508021116 0.416331112
vt 0.208978102 0.445011914
vt 0.195004195 0.416415602
vt 0.640559018 0.756769717
vt 0.593948722 0.502300203
vt 0.687169373 0.317804694
vt 0.111846 0.888315797
vt 0.565319419 0.860158324
vt 0.593948722 0.888315797
vt 0.111846 0.499251306
vt 0.139082 0.860398829
vt 0.111846 0.888315797
vt 0.208978102 0.445011914
vt 0.111846 0.499251306
vt 0.195004195 0.416415602
vt 0.565319419 0.513854802
vt 0.508021116 0.416331112
vt 0.593948722 0.502300203
vt 0.565319419 0.513854802
vt 0.593948722 0.756769717
vt 0.565319419 0.756839871
vt 0.593948722 0.840014517
vt 0.565319419 0.860158324
vt 0.565319419 0.840020001
vt 0.574721098 0.313370794
vt 0.633590102 0.300528109
vt 0.633608103 0.313514292
vt 0.640477479 0.756839871
vt 0.565319419 0.840020001
vt 0.565319419 0.756839871
vt 0.541776896 0.313267797
vt 0.574748993 0.30038479
vt 0.574721098 0.313370794
vt 0.666551888 0.313322693
vt 0.633590102 0.300528109
vt 0.686734021 0.300218791
vt 0.139082 0.860398829
vt 0.565319419 0.701534927
vt 0.565319419 0.860158324
vt 0.6015113 0.0123187304
vt 0.362643391 0.295765311
vt 0.362643391 0.0123187304
vt 0.30460161 0.0123187304
vt 0.362643391 0.295765311
vt 0.30460161 0.295765311
vt 0.6015113 0.0123187304
vt 0.692800224 0.295765311
vt 0.6015113 0.295765311
vt 0.984147191 0.31393221
vt 0.884644985 0.303266495
vt 0.984147191 0.303266495
vt 0.836502016 0.710550189
vt 0.726463199 0.947027981
vt 0.726463199 0.710550189
vt 0.843799472 0.341084301
vt 0.812353611 0.384437203
vt 0.812353611 0.362500787
vt 0.694295526 0.688613772
vt 0.694295526 0.667509615
vt 0.726463199 0.667509615
vt 0.88379091 0.548669577
vt 0.849815011 0.548669577
vt 0.88379091 0.548669577
vt 0.849815011 0.566243112
vt 0.849815011 0.548669577
vt 0.849815011 0.566243112
vt 0.883790672 0.566243112
vt 0.849815011 0.566243112
vt 0.849815011 0.566243112
vt 0.88379091 0.548669577
vt 0.883790672 0.566243112
vt 0.88379091 0.548669577
vt 0.88379091 0.548669577
vt 0.849815011 0.566243112
vt 0.883790672 0.566243112
vt 0.561411917 0.527279317
vt 0.561411917 0.601790607
vt 0.561411917 0.527279317
vt 0.143901795 0.601790607
vt 0.561411917 0.601790607
vt 0.143901795 0.601790607
vt 0.143901795 0.527279198
vt 0.143901795 0.601790607
vt 0.143901795 0.527279198
vt 0.561411917 0.527279317
vt 0.143901795 0.527279198
vt 0.561411917 0.527279317
vt 0.143901795 0.601790607
vt 0.561411917 0.527279317
vt 0.561411917 0.601790607
vt 0.884553671 0.567486107
vt 0.849585116 0.567485929
vt 0.884553671 0.567486107
vt 0.849585116 0.678102195
vt 0.849585116 0.567485929
vt 0.849585116 0.678102195
vt 0.884553671 0.678102195
vt 0.849585116 0.678102195
vt 0.849585116 0.678102195
vt 0.884553671 0.567486107
vt 0.884553671 0.678102195
vt 0.884553671 0.567486107
vt 0.884553671 0.567486107
vt 0.849585116 0.678102195
vt 0.884553671 0.678102374
vt 0.883790672 0.548669577
vt 0.849815011 0.548669577
vt 0.849815011 0.548669577
vt 0.849815011 0.566243112
vt 0.849815011 0.548669577
vt 0.849815011 0.566243112
vt 0.883790672 0.566243112
vt 0.849815011 0.566243112
vt 0.883790672 0.566243112
vt 0.883790672 0.548669577
vt 0.883790672 0.566243112
vt 0.883790672 0.548669577
vt 0.849815011 0.548669577
vt 0.883790672 0.566243112
vt 0.883790672 0.548669577
vt 0.88379091 0.548669577
vt 0.849815011 0.548669577
vt 0.88379091 0.548669577
vt 0.849815011 0.566243112
vt 0.849815011 0.548669577
vt 0.849815011 0.566243112
vt 0.883790672 0.566243112
vt 0.849815011 0.566243112
vt 0.849815011 0.566243112
vt 0.88379091 0.548669577
vt 0.883790672 0.566243112
vt 0.88379091 0.548669577
vt 0.849815011 0.548669577
vt 0.883790672 0.566243112
vt 0.88379091 0.548669577
vt 0.145470202 0.605749011
vt 0.145469695 0.69234103
vt 0.145470202 0.69234103
vt 0.558433414 0.69234103
vt 0.145470202 0.69234103
vt 0.145469695 0.69234103
vt 0.558433414 0.605749011
vt 0.558433414 0.69234103
vt 0.558433414 0.69234103
vt 0.145470202 0.605749011
vt 0.558433414 0.605749011
vt 0.145470202 0.605749011
vt 0.145470202 0.605749011
vt 0.558433414 0.69234103
vt 0.558433414 0.605749011
vt 0.561411917 0.527279317
vt 0.561411917 0.601790607
vt 0.561411917 0.527279317
vt 0.143901795 0.601790607
vt 0.561411917 0.601790607
vt 0.561411917 0.601790607
vt 0.143901795 0.601790607
vt 0.143901795 0.527279198
vt 0.143901795 0.527279198
vt 0.561411917 0.527279317
vt 0.143901795 0.527279198
vt 0.561411917 0.527279317
vt 0.143901795 0.601790607
vt 0.561411917 0.527279317
vt 0.561411917 0.601790607
vt 0.884553671 0.567486107
vt 0.849585116 0.567485929
vt 0.884553671 0.567486107
vt 0.849585116 0.567485929
vt 0.849585116 0.678102195
vt 0.849585116 0.678102195
vt 0.884553671 0.678102195
vt 0.849585116 0.678102195
vt 0.849585116 0.678102195
vt 0.884553671 0.567486107
vt 0.884553671 0.678102195
vt 0.884553671 0.567486107
vt 0.884553671 0.567486107
vt 0.849585116 0.678102195
vt 0.884553671 0.678102374
vt 0.883790672 0.548669577
vt 0.849815011 0.548669577
vt 0.883790672 0.548669577
vt 0.849815011 0.566243112
vt 0.849815011 0.548669577
vt 0.849815011 0.548669577
vt 0.883790672 0.566243112
vt 0.849815011 0.566243112
vt 0.883790672 0.566243112
vt 0.883790672 0.548669577
vt 0.883790672 0.566243112
vt 0.883790672 0.548669577
vt 0.849815011 0.548669577
vt 0.883790672 0.566243112
vt 0.883790672 0.548669577
vt 0.88379091 0.548669577
vt 0.849815011 0.548669577
vt 0.849815011 0.548669577
vt 0.849815011 0.566243112
vt 0.849815011 0.548669577
vt 0.849815011 0.566243112
vt 0.883790672 0.566243112
vt 0.849815011 0.566243112
vt 0.849815011 0.566243112
vt 0.88379091 0.548669577
vt 0.883790672 0.566243112
vt 0.88379091 0.548669577
vt 0.849815011 0.548669577
vt 0.883790672 0.566243112
vt 0.88379091 0.548669577
vt 0.145470202 0.605749011
vt 0.145470202 0.69234103
vt 0.145470202 0.605749011
vt 0.558433414 0.69234103
vt 0.145469695 0.69234103
vt 0.558433414 0.69234103
vt 0.558433414 0.605749011
vt 0.558433414 0.69234103
vt 0.558433414 0.69234103
vt 0.145470202 0.605749011
vt 0.558433414 0.605749011
vt 0.145470202 0.605749011
vt 0.145470202 0.605749011
vt 0.558433414 0.69234103
vt 0.558433414 0.605749011
vt 0.884553671 0.567486107
vt 0.849585116 0.567485929
vt 0.849585116 0.567485929
vt 0.849585116 0.567485929
vt 0.849585116 0.678102195
vt 0.849585116 0.678102195
vt 0.884553671 0.678102195
vt 0.849585116 0.678102195
vt 0.849585116 0.678102195
vt 0.884553671 0.567486107
vt 0.884553671 0.678102195
vt 0.884553671 0.567486107
vt 0.884553671 0.567486107
vt 0.849585116 0.678102195
vt 0.884553671 0.678102374
vt 0.883790672 0.548669577
vt 0.849815011 0.548669577
vt 0.849815011 0.548669577
vt 0.849815011 0.566243112
vt 0.849815011 0.548669577
vt 0.849815011 0.566243112
vt 0.883790672 0.566243112
vt 0.849815011 0.566243112
vt 0.883790672 0.566243112
vt 0.883790672 0.548669577
vt 0.883790672 0.566243112
vt 0.883790672 0.548669577
vt 0.849815011 0.548669577
vt 0.883790672 0.566243112
vt 0.883790672 0.548669577
vt 0.145470202 0.605749011
vt 0.145470202 0.69234103
vt 0.145470202 0.605749011
vt 0.558433414 0.69234103
vt 0.145470202 0.69234103
vt 0.145469695 0.69234103
vt 0.558433414 0.605749011
vt 0.558433414 0.69234103
vt 0.558433414 0.69234103
vt 0.145470202 0.605749011
vt 0.558433414 0.605749011
vt 0.145470202 0.605749011
vt 0.145470202 0.605749011
vt 0.558433414 0.69234103
vt 0.558433414 0.605749011
vt 0.561411917 0.527279317
vt 0.561411917 0.601790607
vt 0.561411917 0.527279317
vt 0.143901795 0.601790607
vt 0.561411917 0.601790607
vt 0.143901795 0.601790607
vt 0.143901795 0.527279198
vt 0.143901795 0.601790607
vt 0.143901795 0.527279198
vt 0.561411917 0.527279317
vt 0.143901795 0.527279198
vt 0.561411917 0.527279317
vt 0.143901795 0.601790607
vt 0.561411917 0.527279317
vt 0.561411917 0.601790607
vt 0.143901795 0.601790607
vt 0.561411917 0.601790607
vt 0.143901795 0.601790607
vt 0.143901795 0.527279198
vt 0.143901795 0.601790607
vt 0.143901795 0.527279198
vt 0.561411917 0.527279317
vt 0.143901795 0.527279198
vt 0.561411917 0.527279317
vt 0.143901795 0.601790607
vt 0.561411917 0.527279317
vt 0.561411917 0.601790607
vt 0.884553671 0.567486107
vt 0.849585116 0.567485929
vt 0.884553671 0.567486107
vt 0.849585116 0.567485929
vt 0.849585116 0.678102195
vt 0.849585116 0.678102195
vt 0.884553671 0.678102195
vt 0.849585116 0.678102195
vt 0.849585116 0.678102195
vt 0.884553671 0.567486107
vt 0.884553671 0.678102195
vt 0.884553671 0.567486107
vt 0.884553671 0.567486107
vt 0.849585116 0.678102195
vt 0.884553671 0.678102374
vt 0.883790672 0.548669577
vt 0.849815011 0.548669577
vt 0.883790672 0.548669577
vt 0.849815011 0.566243112
vt 0.849815011 0.548669577
vt 0.849815011 0.548669577
vt 0.883790672 0.566243112
vt 0.849815011 0.566243112
vt 0.849815011 0.566243112
vt 0.883790672 0.548669577
vt 0.883790672 0.566243112
vt 0.883790672 0.548669577
vt 0.849815011 0.548669577
vt 0.883790672 0.566243112
vt 0.883790672 0.548669577
vt 0.88379091 0.548669577
vt 0.849815011 0.548669577
vt 0.88379091 0.548669577
vt 0.849815011 0.566243112
vt 0.849815011 0.548669577
vt 0.849815011 0.548669577
vt 0.883790672 0.566243112
vt 0.849815011 0.566243112
vt 0.883790672 0.566243112
vt 0.88379091 0.548669577
vt 0.883790672 0.566243112
vt 0.88379091 0.548669577
vt 0.88379091 0.548669577
vt 0.849815011 0.566243112
vt 0.883790672 0.566243112
vt 0.145470202 0.605749011
vt 0.145469695 0.69234103
vt 0.145470202 0.69234103
vt 0.558433414 0.69234103
vt 0.145469695 0.69234103
vt 0.558433414 0.69234103
vt 0.558433414 0.605749011
vt 0.558433414 0.69234103
vt 0.558433414 0.69234103
vt 0.145470202 0.605749011
vt 0.558433414 0.605749011
vt 0.145470202 0.605749011
vt 0.145470202 0.605749011
vt 0.558433414 0.69234103
vt 0.558433414 0.605749011
vt 0.561411917 0.527279317
vt 0.561411917 0.601790607
vt 0.561411917 0.601790607
vt 0.143901795 0.601790607
vt 0.561411917 0.601790607
vt 0.143901795 0.601790607
vt 0.143901795 0.601790607
vt 0.143901795 0.527279198
vt 0.143901795 0.527279198
vt 0.561411917 0.527279317
vt 0.143901795 0.527279198
vt 0.561411917 0.527279317
vt 0.143901795 0.601790607
vt 0.561411917 0.527279317
vt 0.561411917 0.601790607
vt 0.884553671 0.567486107
vt 0.849585116 0.567485929
vt 0.884553671 0.567486107
vt 0.849585116 0.678102195
vt 0.849585116 0.567485929
vt 0.849585116 0.678102195
vt 0.884553671 0.678102374
vt 0.849585116 0.678102195
vt 0.884553671 0.678102195
vt 0.884553671 0.567486107
vt 0.884553671 0.678102195
vt 0.884553671 0.567486107
vt 0.884553671 0.567486107
vt 0.849585116 0.678102195
vt 0.884553671 0.678102374
vt 0.883790672 0.548669577
vt 0.849815011 0.548669577
vt 0.849815011 0.548669577
vt 0.849815011 0.566243112
vt 0.849815011 0.548669577
vt 0.849815011 0.548669577
vt 0.883790672 0.566243112
vt 0.849815011 0.566243112
vt 0.883790672 0.566243112
vt 0.883790672 0.548669577
vt 0.883790672 0.566243112
vt 0.883790672 0.548669577
vt 0.849815011 0.548669577
vt 0.883790672 0.566243112
vt 0.883790672 0.548669577
vt 0.88379091 0.548669577
vt 0.849815011 0.548669577
vt 0.849815011 0.548669577
vt 0.849815011 0.566243112
vt 0.849815011 0.548669577
vt 0.849815011 0.566243112
vt 0.883790672 0.566243112
vt 0.849815011 0.566243112
vt 0.883790672 0.566243112
vt 0.88379091 0.548669577
vt 0.883790672 0.566243112
vt 0.883790672 0.566243112
vt 0.88379091 0.548669577
vt 0.849815011 0.566243112
vt 0.883790672 0.566243112
vt 0.145470202 0.605749011
vt 0.145469695 0.69234103
vt 0.145470202 0.69234103
vt 0.558433414 0.69234103
vt 0.145469695 0.69234103
vt 0.558433414 0.69234103
vt 0.558433414 0.605749011
vt 0.558433414 0.69234103
vt 0.558433414 0.605749011
vt 0.145470202 0.605749011
vt 0.558433414 0.605749011
vt 0.145470202 0.605749011
vt 0.145470202 0.69234103
vt 0.558433414 0.605749011
vt 0.145470202 0.605749011
vt 0.884553671 0.567486107
vt 0.849585116 0.567485929
vt 0.849585116 0.567485929
vt 0.849585116 0.567485929
vt 0.849585116 0.678102195
vt 0.849585116 0.678102195
vt 0.884553671 0.678102374
vt 0.849585116 0.678102195
vt 0.884553671 0.678102195
vt 0.884553671 0.567486107
vt 0.884553671 0.678102195
vt 0.884553671 0.567486107
vt 0.884553671 0.567486107
vt 0.849585116 0.678102195
vt 0.884553671 0.678102374
vt 0.883790672 0.548669577
vt 0.849815011 0.548669577
vt 0.849815011 0.548669577
vt 0.849815011 0.566243112
vt 0.849815011 0.548669577
vt 0.849815011 0.548669577
vt 0.883790672 0.566243112
vt 0.849815011 0.566243112
vt 0.883790672 0.566243112
vt 0.883790672 0.548669577
vt 0.883790672 0.566243112
vt 0.883790672 0.548669577
vt 0.883790672 0.548669577
vt 0.849815011 0.566243112
vt 0.883790672 0.566243112
vt 0.88379091 0.548669577
vt 0.849815011 0.548669577
vt 0.849815011 0.548669577
vt 0.849815011 0.566243112
vt 0.849815011 0.548669577
vt 0.849815011 0.566243112
vt 0.883790672 0.566243112
vt 0.849815011 0.566243112
vt 0.883790672 0.566243112
vt 0.88379091 0.548669577
vt 0.883790672 0.566243112
vt 0.88379091 0.548669577
vt 0.88379091 0.548669577
vt 0.849815011 0.566243112
vt 0.883790672 0.566243112
vt 0.145470202 0.605749011
vt 0.145469695 0.69234103
vt 0.145470202 0.69234103
vt 0.558433414 0.69234103
vt 0.145470202 0.69234103
vt 0.145469695 0.69234103
vt 0.558433414 0.605749011
vt 0.558433414 0.69234103
vt 0.558433414 0.605749011
vt 0.145470202 0.605749011
vt 0.558433414 0.605749011
vt 0.145470202 0.605749011
vt 0.145470202 0.605749011
vt 0.558433414 0.69234103
vt 0.558433414 0.605749011
vt 0.561411917 0.527279317
vt 0.561411917 0.601790607
vt 0.561411917 0.527279317
vt 0.143901795 0.601790607
vt 0.561411917 0.601790607
vt 0.143901795 0.601790607
vt 0.143901795 0.601790607
vt 0.143901795 0.527279198
vt 0.143901795 0.527279198
vt 0.561411917 0.527279317
vt 0.143901795 0.527279198
vt 0.561411917 0.527279317
vt 0.143901795 0.601790607
vt 0.561411917 0.527279317
vt 0.561411917 0.601790607
vt 0.561411917 0.527279317
vt 0.561411917 0.601790607
vt 0.561411917 0.601790607
vt 0.304488689 0.175594002
vt 0.0159973502 0.295765311
vt 0.0159974005 0.0123187304
vt 0.98122108 0.1415499
vt 0.692800224 0.295765311
vt 0.895171821 0.0123187304
vt 0.836502016 0.947027981
vt 0.726543188 0.965947211
vt 0.726463199 0.947027981
vt 0.111846 0.499251306
vt 0.0174700599 0.987503886
vt 0.0176768303 0.318022698
vt 0.836581886 0.966149628
vt 0.726463199 0.986014903
vt 0.726543188 0.965947211
vt 0.694295526 0.947027981
vt 0.694295526 0.710550189
vt 0.726463199 0.710550189
vt 0.694375515 0.965947211
vt 0.694295526 0.947027981
vt 0.726463199 0.947027981
vt 0.694295526 0.986014903
vt 0.694375515 0.965947211
vt 0.726543188 0.965947211
vt 0.836502016 0.710550189
vt 0.726463199 0.710550189
vt 0.836502016 0.685401499
vt 0.694295526 0.710550189
vt 0.694295526 0.688613772
vt 0.726463199 0.710550189
vt 0.836502016 0.685401499
vt 0.879280984 0.685251117
vt 0.879281402 0.710550189
vt 0.726463199 0.710550189
vt 0.694295526 0.688613772
vt 0.836502016 0.685401499
vt 0.879281402 0.947027981
vt 0.836502016 0.947027981
vt 0.836502016 0.710550189
vt 0.879281402 0.947027981
vt 0.877964079 0.966351926
vt 0.836581886 0.966149628
vt 0.735913873 0.362500787
vt 0.735913873 0.384437203
vt 0.694144428 0.384437203
vt 0.735913873 0.384437203
vt 0.735913873 0.620915115
vt 0.694144428 0.620915115
vt 0.735913873 0.620915115
vt 0.735993922 0.639834285
vt 0.692827106 0.640238881
vt 0.736426294 0.659109116
vt 0.693259418 0.659109116
vt 0.692827106 0.640238881
vt 0.735913873 0.341084301
vt 0.735913873 0.362500787
vt 0.694144011 0.359138101
vt 0.776508808 0.362500787
vt 0.776508808 0.384437203
vt 0.735913873 0.384437203
vt 0.776508808 0.384437203
vt 0.776508808 0.620915115
vt 0.735913873 0.620915115
vt 0.776508808 0.620915115
vt 0.776588798 0.639834285
vt 0.735993922 0.639834285
vt 0.77702111 0.659109116
vt 0.736426294 0.659109116
vt 0.735993922 0.639834285
vt 0.776508808 0.341084301
vt 0.776508808 0.362500787
vt 0.735913873 0.362500787
vt 0.812353611 0.362500787
vt 0.812353611 0.384437203
vt 0.776508808 0.384437203
vt 0.812353611 0.384437203
vt 0.812353611 0.620915115
vt 0.776508808 0.620915115
vt 0.812353611 0.620915115
vt 0.812433302 0.639834285
vt 0.776588798 0.639834285
vt 0.812865913 0.659109116
vt 0.77702111 0.659109116
vt 0.776588798 0.639834285
vt 0.812353611 0.341084301
vt 0.812353611 0.362500787
vt 0.776508808 0.362500787
vt 0.884644926 0.447284698
vt 0.884644926 0.433914095
vt 0.984147072 0.433914095
vt 0.855651379 0.31393221
vt 0.884644985 0.31393221
vt 0.884644926 0.433914095
vt 0.998428702 0.31393221
vt 0.998428702 0.433914095
vt 0.984147072 0.433914095
vt 0.984147072 0.433914095
vt 0.884644926 0.433914095
vt 0.884644985 0.31393221
vt 0.508021116 0.416331112
vt 0.496025205 0.445044994
vt 0.208978102 0.445011914
vt 0.0174700599 0.987503886
vt 0.111846 0.888315797
vt 0.687169313 0.987503886
vt 0.593948722 0.888315797
vt 0.593948722 0.840014517
vt 0.640559018 0.840014517
vt 0.640559018 0.756769717
vt 0.593948722 0.756769717
vt 0.593948722 0.502300203
vt 0.195004195 0.416415602
vt 0.111846 0.499251306
vt 0.0176768303 0.318022698
vt 0.687169313 0.987503886
vt 0.111846 0.888315797
vt 0.593948722 0.888315797
vt 0.687169313 0.987503886
vt 0.593948722 0.888315797
vt 0.640559018 0.840014517
vt 0.195004195 0.416415602
vt 0.0176768303 0.318022698
vt 0.508021116 0.416331112
vt 0.508021116 0.416331112
vt 0.0176768303 0.318022698
vt 0.687169373 0.317804694
vt 0.687169373 0.317804694
vt 0.687169313 0.987503886
vt 0.640559018 0.756769717
vt 0.687169313 0.987503886
vt 0.640559018 0.840014517
vt 0.640559018 0.756769717
vt 0.593948722 0.502300203
vt 0.508021116 0.416331112
vt 0.687169373 0.317804694
vt 0.111846 0.888315797
vt 0.139082 0.860398829
vt 0.565319419 0.860158324
vt 0.111846 0.499251306
vt 0.139082 0.513719201
vt 0.139082 0.860398829
vt 0.208978102 0.445011914
vt 0.139082 0.513719201
vt 0.111846 0.499251306
vt 0.565319419 0.513854802
vt 0.496025205 0.445044994
vt 0.508021116 0.416331112
vt 0.565319419 0.513854802
vt 0.593948722 0.502300203
vt 0.593948722 0.756769717
vt 0.593948722 0.840014517
vt 0.593948722 0.888315797
vt 0.565319419 0.860158324
vt 0.574721098 0.313370794
vt 0.574748993 0.30038479
vt 0.633590102 0.300528109
vt 0.640477479 0.756839871
vt 0.640540898 0.840020001
vt 0.565319419 0.840020001
vt 0.541776896 0.313267797
vt 0.521604419 0.300218791
vt 0.574748993 0.30038479
vt 0.666551888 0.313322693
vt 0.633608103 0.313514292
vt 0.633590102 0.300528109
vt 0.139082 0.860398829
vt 0.139082 0.701534927
vt 0.565319419 0.701534927
vt 0.6015113 0.0123187304
vt 0.6015113 0.295765311
vt 0.362643391 0.295765311
vt 0.30460161 0.0123187304
vt 0.362643391 0.0123187304
vt 0.362643391 0.295765311
vt 0.6015113 0.0123187304
vt 0.692800224 0.0123187304
vt 0.692800224 0.295765311
vt 0.984147191 0.31393221
vt 0.884644985 0.31393221
vt 0.884644985 0.303266495
vt 0.836502016 0.710550189
vt 0.836502016 0.947027981
vt 0.726463199 0.947027981
vt 0.844311893 0.659109116
vt 0.812865913 0.659109116
vt 0.812433302 0.639834285
vt 0.812433302 0.639834285
vt 0.812353611 0.620915115
vt 0.844311893 0.659109116
vt 0.812353611 0.362500787
vt 0.812353611 0.341084301
vt 0.843799472 0.341084301
vt 0.812353611 0.620915115
vt 0.812353611 0.384437203
vt 0.844311893 0.659109116
vt 0.843799472 0.341084301
vt 0.844311893 0.659109116
vt 0.812353611 0.384437203
vt 0.726463199 0.667509615
vt 0.836502016 0.667509675
vt 0.836502016 0.685401499
vt 0.836502016 0.685401499
vt 0.694295526 0.688613772
vt 0.726463199 0.667509615
vt 0.88379091 0.548669577
vt 0.849815011 0.548669577
vt 0.849815011 0.548669577
vt 0.849815011 0.566243112
vt 0.849815011 0.548669577
vt 0.849815011 0.548669577
vt 0.883790672 0.566243112
vt 0.883790672 0.566243112
vt 0.849815011 0.566243112
vt 0.88379091 0.548669577
vt 0.883790672 0.566243112
vt 0.883790672 0.566243112
vt 0.88379091 0.548669577
vt 0.849815011 0.548669577
vt 0.849815011 0.566243112
vt 0.561411917 0.527279317
vt 0.561411917 0.601790607
vt 0.561411917 0.601790607
vt 0.143901795 0.601790607
vt 0.561411917 0.601790607
vt 0.561411917 0.601790607
vt 0.143901795 0.527279198
vt 0.143901795 0.601790607
vt 0.143901795 0.601790607
vt 0.561411917 0.527279317
vt 0.143901795 0.527279198
vt 0.143901795 0.527279198
vt 0.143901795 0.601790607
vt 0.143901795 0.527279198
vt 0.561411917 0.527279317
vt 0.884553671 0.567486107
vt 0.849585116 0.567485929
vt 0.849585116 0.567485929
vt 0.849585116 0.678102195
vt 0.849585116 0.567485929
vt 0.849585116 0.567485929
vt 0.884553671 0.678102195
vt 0.884553671 0.678102374
vt 0.849585116 0.678102195
vt 0.884553671 0.567486107
vt 0.884553671 0.678102374
vt 0.884553671 0.678102195
vt 0.884553671 0.567486107
vt 0.849585116 0.567485929
vt 0.849585116 0.678102195
vt 0.883790672 0.548669577
vt 0.883790672 0.548669577
vt 0.849815011 0.548669577
vt 0.849815011 0.566243112
vt 0.849815011 0.548669577
vt 0.849815011 0.548669577
vt 0.883790672 0.566243112
vt 0.849815011 0.566243112
vt 0.849815011 0.566243112
vt 0.883790672 0.548669577
vt 0.883790672 0.566243112
vt 0.883790672 0.566243112
vt 0.849815011 0.548669577
vt 0.849815011 0.566243112
vt 0.883790672 0.566243112
vt 0.88379091 0.548669577
vt 0.849815011 0.548669577
vt 0.849815011 0.548669577
vt 0.849815011 0.566243112
vt 0.849815011 0.548669577
vt 0.849815011 0.548669577
vt 0.883790672 0.566243112
vt 0.883790672 0.566243112
vt 0.849815011 0.566243112
vt 0.88379091 0.548669577
vt 0.883790672 0.566243112
vt 0.883790672 0.566243112
vt 0.849815011 0.548669577
vt 0.849815011 0.566243112
vt 0.883790672 0.566243112
vt 0.145470202 0.605749011
vt 0.145470202 0.605749011
vt 0.145469695 0.69234103
vt 0.558433414 0.69234103
vt 0.558433414 0.69234103
vt 0.145470202 0.69234103
vt 0.558433414 0.605749011
vt 0.558433414 0.605749011
vt 0.558433414 0.69234103
vt 0.145470202 0.605749011
vt 0.558433414 0.605749011
vt 0.558433414 0.605749011
vt 0.145470202 0.605749011
vt 0.145470202 0.69234103
vt 0.558433414 0.69234103
vt 0.561411917 0.527279317
vt 0.561411917 0.601790607
vt 0.561411917 0.601790607
vt 0.143901795 0.601790607
vt 0.143901795 0.601790607
vt 0.561411917 0.601790607
vt 0.143901795 0.601790607
vt 0.143901795 0.601790607
vt 0.143901795 0.527279198
vt 0.561411917 0.527279317
vt 0.143901795 0.527279198
vt 0.143901795 0.527279198
vt 0.143901795 0.601790607
vt 0.143901795 0.527279198
vt 0.561411917 0.527279317
vt 0.884553671 0.567486107
vt 0.849585116 0.567485929
vt 0.849585116 0.567485929
vt 0.849585116 0.567485929
vt 0.849585116 0.567485929
vt 0.849585116 0.678102195
vt 0.884553671 0.678102195
vt 0.884553671 0.678102374
vt 0.849585116 0.678102195
vt 0.884553671 0.567486107
vt 0.884553671 0.678102374
vt 0.884553671 0.678102195
vt 0.884553671 0.567486107
vt 0.849585116 0.567485929
vt 0.849585116 0.678102195
vt 0.883790672 0.548669577
vt 0.849815011 0.548669577
vt 0.849815011 0.548669577
vt 0.849815011 0.566243112
vt 0.849815011 0.566243112
vt 0.849815011 0.548669577
vt 0.883790672 0.566243112
vt 0.849815011 0.566243112
vt 0.849815011 0.566243112
vt 0.883790672 0.548669577
vt 0.883790672 0.566243112
vt 0.883790672 0.566243112
vt 0.849815011 0.548669577
vt 0.849815011 0.566243112
vt 0.883790672 0.566243112
vt 0.88379091 0.548669577
vt 0.88379091 0.548669577
vt 0.849815011 0.548669577
vt 0.849815011 0.566243112
vt 0.849815011 0.548669577
vt 0.849815011 0.548669577
vt 0.883790672 0.566243112
vt 0.883790672 0.566243112
vt 0.849815011 0.566243112
vt 0.88379091 0.548669577
vt 0.883790672 0.566243112
vt 0.883790672 0.566243112
vt 0.849815011 0.548669577
vt 0.849815011 0.566243112
vt 0.883790672 0.566243112
vt 0.145470202 0.605749011
vt 0.145469695 0.69234103
vt 0.145470202 0.69234103
vt 0.558433414 0.69234103
vt 0.145470202 0.69234103
vt 0.145469695 0.69234103
vt 0.558433414 0.605749011
vt 0.558433414 0.605749011
vt 0.558433414 0.69234103
vt 0.145470202 0.605749011
vt 0.558433414 0.605749011
vt 0.558433414 0.605749011
vt 0.145470202 0.605749011
vt 0.145470202 0.69234103
vt 0.558433414 0.69234103
vt 0.884553671 0.567486107
vt 0.884553671 0.567486107
vt 0.849585116 0.567485929
vt 0.849585116 0.567485929
vt 0.849585116 0.567485929
vt 0.849585116 0.678102195
vt 0.884553671 0.678102195
vt 0.884553671 0.678102374
vt 0.849585116 0.678102195
vt 0.884553671 0.567486107
vt 0.884553671 0.678102374
vt 0.884553671 0.678102195
vt 0.884553671 0.567486107
vt 0.849585116 0.567485929
vt 0.849585116 0.678102195
vt 0.883790672 0.548669577
vt 0.883790672 0.548669577
vt 0.849815011 0.548669577
vt 0.849815011 0.566243112
vt 0.849815011 0.548669577
vt 0.849815011 0.548669577
vt 0.883790672 0.566243112
vt 0.849815011 0.566243112
vt 0.849815011 0.566243112
vt 0.883790672 0.548669577
vt 0.883790672 0.566243112
vt 0.883790672 0.566243112
vt 0.849815011 0.548669577
vt 0.849815011 0.566243112
vt 0.883790672 0.566243112
vt 0.145470202 0.605749011
vt 0.145469695 0.69234103
vt 0.145470202 0.69234103
vt 0.558433414 0.69234103
vt 0.558433414 0.69234103
vt 0.145470202 0.69234103
vt 0.558433414 0.605749011
vt 0.558433414 0.605749011
vt 0.558433414 0.69234103
vt 0.145470202 0.605749011
vt 0.558433414 0.605749011
vt 0.558433414 0.605749011
vt 0.145470202 0.605749011
vt 0.145470202 0.69234103
vt 0.558433414 0.69234103
vt 0.561411917 0.527279317
vt 0.561411917 0.601790607
vt 0.561411917 0.601790607
vt 0.143901795 0.601790607
vt 0.561411917 0.601790607
vt 0.561411917 0.601790607
vt 0.143901795 0.527279198
vt 0.143901795 0.601790607
vt 0.143901795 0.601790607
vt 0.561411917 0.527279317
vt 0.143901795 0.527279198
vt 0.143901795 0.527279198
vt 0.143901795 0.601790607
vt 0.143901795 0.527279198
vt 0.561411917 0.527279317
vt 0.143901795 0.601790607
vt 0.561411917 0.601790607
vt 0.561411917 0.601790607
vt 0.143901795 0.527279198
vt 0.143901795 0.601790607
vt 0.143901795 0.601790607
vt 0.561411917 0.527279317
vt 0.143901795 0.527279198
vt 0.143901795 0.527279198
vt 0.143901795 0.601790607
vt 0.143901795 0.527279198
vt 0.561411917 0.527279317
vt 0.884553671 0.567486107
vt 0.849585116 0.567485929
vt 0.849585116 0.567485929
vt 0.849585116 0.567485929
vt 0.849585116 0.567485929
vt 0.849585116 0.678102195
vt 0.884553671 0.678102195
vt 0.884553671 0.678102374
vt 0.849585116 0.678102195
vt 0.884553671 0.567486107
vt 0.884553671 0.678102374
vt 0.884553671 0.678102195
vt 0.884553671 0.567486107
vt 0.849585116 0.567485929
vt 0.849585116 0.678102195
vt 0.883790672 0.548669577
vt 0.849815011 0.548669577
vt 0.849815011 0.548669577
vt 0.849815011 0.566243112
vt 0.849815011 0.566243112
vt 0.849815011 0.548669577
vt 0.883790672 0.566243112
vt 0.883790672 0.566243112
vt 0.849815011 0.566243112
vt 0.883790672 0.548669577
vt 0.883790672 0.566243112
vt 0.883790672 0.566243112
vt 0.849815011 0.548669577
vt 0.849815011 0.566243112
vt 0.883790672 0.566243112
vt 0.88379091 0.548669577
vt 0.849815011 0.548669577
vt 0.849815011 0.548669577
vt 0.849815011 0.566243112
vt 0.849815011 0.566243112
vt 0.849815011 0.548669577
vt 0.883790672 0.566243112
vt 0.849815011 0.566243112
vt 0.849815011 0.566243112
vt 0.88379091 0.548669577
vt 0.883790672 0.566243112
vt 0.883790672 0.566243112
vt 0.88379091 0.548669577
vt 0.849815011 0.548669577
vt 0.849815011 0.566243112
vt 0.145470202 0.605749011
vt 0.145470202 0.605749011
vt 0.145469695 0.69234103
vt 0.558433414 0.69234103
vt 0.145470202 0.69234103
vt 0.145469695 0.69234103
vt 0.558433414 0.605749011
vt 0.558433414 0.605749011
vt 0.558433414 0.69234103
vt 0.145470202 0.605749011
vt 0.558433414 0.605749011
vt 0.558433414 0.605749011
vt 0.145470202 0.605749011
vt 0.145470202 0.69234103
vt 0.558433414 0.69234103
vt 0.561411917 0.527279317
vt 0.561411917 0.527279317
vt 0.561411917 0.601790607
vt 0.143901795 0.601790607
vt 0.561411917 0.601790607
vt 0.561411917 0.601790607
vt 0.143901795 0.601790607
vt 0.143901795 0.601790607
vt 0.143901795 0.527279198
vt 0.561411917 0.527279317
vt 0.143901795 0.527279198
vt 0.143901795 0.527279198
vt 0.143901795 0.601790607
vt 0.143901795 0.527279198
vt 0.561411917 0.527279317
vt 0.884553671 0.567486107
vt 0.849585116 0.567485929
vt 0.849585116 0.567485929
vt 0.849585116 0.678102195
vt 0.849585116 0.567485929
vt 0.849585116 0.567485929
vt 0.884553671 0.678102374
vt 0.849585116 0.678102195
vt 0.849585116 0.678102195
vt 0.884553671 0.567486107
vt 0.884553671 0.678102374
vt 0.884553671 0.678102195
vt 0.884553671 0.567486107
vt 0.849585116 0.567485929
vt 0.849585116 0.678102195
vt 0.883790672 0.548669577
vt 0.883790672 0.548669577
vt 0.849815011 0.548669577
vt 0.849815011 0.566243112
vt 0.849815011 0.566243112
vt 0.849815011 0.548669577
vt 0.883790672 0.566243112
vt 0.849815011 0.566243112
vt 0.849815011 0.566243112
vt 0.883790672 0.548669577
vt 0.883790672 0.566243112
vt 0.883790672 0.566243112
vt 0.849815011 0.548669577
vt 0.849815011 0.566243112
vt 0.883790672 0.566243112
vt 0.88379091 0.548669577
vt 0.88379091 0.548669577
vt 0.849815011 0.548669577
vt 0.849815011 0.566243112
vt 0.849815011 0.548669577
vt 0.849815011 0.548669577
vt 0.883790672 0.566243112
vt 0.849815011 0.566243112
vt 0.849815011 0.566243112
vt 0.88379091 0.548669577
vt 0.88379091 0.548669577
vt 0.883790672 0.566243112
vt 0.88379091 0.548669577
vt 0.849815011 0.548669577
vt 0.849815011 0.566243112
vt 0.145470202 0.605749011
vt 0.145470202 0.605749011
vt 0.145469695 0.69234103
vt 0.558433414 0.69234103
vt 0.145470202 0.69234103
vt 0.145469695 0.69234103
vt 0.558433414 0.605749011
vt 0.558433414 0.69234103
vt 0.558433414 0.69234103
vt 0.145470202 0.605749011
vt 0.558433414 0.605749011
vt 0.558433414 0.605749011
vt 0.145470202 0.69234103
vt 0.558433414 0.69234103
vt 0.558433414 0.605749011
vt 0.884553671 0.567486107
vt 0.884553671 0.567486107
vt 0.849585116 0.567485929
vt 0.849585116 0.567485929
vt 0.849585116 0.567485929
vt 0.849585116 0.678102195
vt 0.884553671 0.678102374
vt 0.849585116 0.678102195
vt 0.849585116 0.678102195
vt 0.884553671 0.567486107
vt 0.884553671 0.678102374
vt 0.884553671 0.678102195
vt 0.884553671 0.567486107
vt 0.849585116 0.567485929
vt 0.849585116 0.678102195
vt 0.883790672 0.548669577
vt 0.883790672 0.548669577
vt 0.849815011 0.548669577
vt 0.849815011 0.566243112
vt 0.849815011 0.566243112
vt 0.849815011 0.548669577
vt 0.883790672 0.566243112
vt 0.849815011 0.566243112
vt 0.849815011 0.566243112
vt 0.883790672 0.548669577
vt 0.883790672 0.566243112
vt 0.883790672 0.566243112
vt 0.883790672 0.548669577
vt 0.849815011 0.548669577
vt 0.849815011 0.566243112
vt 0.88379091 0.548669577
vt 0.88379091 0.548669577
vt 0.849815011 0.548669577
vt 0.849815011 0.566243112
vt 0.849815011 0.548669577
vt 0.849815011 0.548669577
vt 0.883790672 0.566243112
vt 0.849815011 0.566243112
vt 0.849815011 0.566243112
vt 0.88379091 0.548669577
vt 0.883790672 0.566243112
vt 0.883790672 0.566243112
vt 0.88379091 0.548669577
vt 0.849815011 0.548669577
vt 0.849815011 0.566243112
vt 0.145470202 0.605749011
vt 0.145470202 0.605749011
vt 0.145469695 0.69234103
vt 0.558433414 0.69234103
vt 0.558433414 0.69234103
vt 0.145470202 0.69234103
vt 0.558433414 0.605749011
vt 0.558433414 0.69234103
vt 0.558433414 0.69234103
vt 0.145470202 0.605749011
vt 0.558433414 0.605749011
vt 0.558433414 0.605749011
vt 0.145470202 0.605749011
vt 0.145470202 0.69234103
vt 0.558433414 0.69234103
vt 0.561411917 0.527279317
vt 0.561411917 0.601790607
vt 0.561411917 0.601790607
vt 0.143901795 0.601790607
vt 0.561411917 0.601790607
vt 0.561411917 0.601790607
vt 0.143901795 0.601790607
vt 0.143901795 0.601790607
vt 0.143901795 0.527279198
vt 0.561411917 0.527279317
vt 0.143901795 0.527279198
vt 0.143901795 0.527279198
vt 0.143901795 0.601790607
vt 0.143901795 0.527279198
vt 0.561411917 0.527279317
vt 0.561411917 0.527279317
vt 0.561411917 0.527279317
vt 0.561411917 0.601790607
vt 0.0159974005 0.0123187304
vt 0.30460161 0.0123187304
vt 0.304488689 0.175594002
vt 0.304488689 0.175594002
vt 0.30460161 0.295765311
vt 0.0159973502 0.295765311
vt 0.895171821 0.0123187304
vt 0.96444881 0.0123187304
vt 0.98122108 0.1415499
vt 0.98122108 0.1415499
vt 0.981221199 0.295765311
vt 0.692800224 0.295765311
vt 0.96444881 0.0123187304
vt 0.981221199 0.0123187304
vt 0.98122108 0.1415499
vt 0.692800224 0.295765311
vt 0.692800224 0.0123187304
vt 0.895171821 0.0123187304
vt 0.836502016 0.947027981
vt 0.836581886 0.966149628
vt 0.726543188 0.965947211
vt 0.111846 0.499251306
vt 0.111846 0.888315797
vt 0.0174700599 0.987503886
vt 0.836581886 0.966149628
vt 0.836502016 0.986014903
vt 0.726463199 0.986014903
vn -0.00899689738 0.0110630747 -0.0989781171
vn -0.0140936403 -0.010907406 -0.0983991921
vn -0.0141303707 0.0110998843 -0.0983723849
vn -0.00838062074 0.0378257893 -0.0921898857
vn -0.0133185005 0.037724629 -0.0916486233
vn -0.00768461218 0.052843228 -0.0845490471
vn -0.0121893696 0.0528410152 -0.0840193331
vn -0.0149695696 -0.00922277756 -0.0984421372
vn -0.0143653899 -0.0319138914 -0.0936757103
vn -0.000683617487 -0.00977510214 -0.0995187461
vn -0.000387585111 0.0114537049 -0.0993411541
vn -0.0152777405 0.03294212 -0.0931740776
vn -0.0150062395 0.0110327145 -0.0982501581
vn 0.0204385109 -0.0338759236 -0.0918405652
vn -0.00330520212 -0.0336043797 -0.0941266343
vn 0.0164434593 -0.00889917649 -0.0982365385
vn 0.0151007697 0.011804794 -0.0981458873
vn 0.00111395109 0.03604028 -0.0932730287
vn 0.0239329208 0.0568231829 -0.078729555
vn 0.0237652604 0.0378560089 -0.0894546583
vn 0.0228315797 -0.0544954501 -0.0806781575
vn 0.000125122009 -0.0576562472 -0.08170522
vn 0.0469424017 -0.0207625143 -0.0858215094
vn 0.0307173021 -0.00318000605 -0.0951122344
vn 0.0316086225 0.00686380453 -0.0946244374
vn 0.0571015589 0.0434625447 -0.0696449578
vn 0.0501863435 0.0198286045 -0.0841912106
vn 0.0583440028 -0.0378470942 -0.0718580261
vn 0.0644810125 -0.00371718709 -0.0763438419
vn 0.0602152422 0.000882063585 -0.0798332542
vn 0.0580810905 0.000705044833 -0.0814008117
vn 0.0779827759 0.0206615701 -0.0590913594
vn 0.0542728305 0.000442583434 -0.0839896724
vn 0.0788532421 -0.0152078206 -0.0595893413
vn 0 -1.79657995e-08 0.100000001
vn 0 -0.100000001 -6.5168301e-08
vn 0 0.100000001 6.5168301e-08
vn 0.100000001 0 0
vn 0.0841567889 1.45370987e-05 0.054015141
vn 0.100000001 -3.89530982e-07 -2.53850733e-13
vn 0.0837699696 1.32707441e-07 -0.0546131097
vn 0.0828716233 0.0559669323 3.64726986e-08
vn 0.0853826925 0.0367532261 0.0368645862
vn 0.0840466022 -0.0383414067 0.0382897668
vn 0.0841885433 -0.0539656393 1.41262317e-05
vn 0.0841332674 -0.0540515147 0.000170088271
vn 0.00044293399 -0.0999990329 -6.51676686e-08
vn 0.100000001 5.03254e-07 3.27962077e-13
vn -2.9138002e-05 6.5168301e-08 -0.100000001
vn 0.000382739323 -2.15409255e-08 0.0999992713
vn 1.59797011e-07 -5.63879366e-05 -0.0999999866
vn 3.69676023e-08 -1.15507682e-05 0.100000001
vn -3.11832018e-08 0.0702067539 0.07121104
vn 6.2570102e-08 -0.0705412403 0.0708797127
vn 0 6.5168301e-08 -0.100000001
vn 0.0869274065 -0.00527365506 -0.0491509326
vn -0.0123663004 -0.0351883583 -0.0927839205
vn -0.00784650352 -0.0498714857 -0.086320743
vn -0.0112738302 -0.0500882082 -0.085814178
vn 0 0.0707086548 0.0707127079
vn -0.100000001 -5.05183061e-06 7.255627e-07
vn 0 -0.0707135946 -0.0707077682
vn 0 -0.0707100853 0.0707112774
vn 2.02344008e-08 0.0708072633 0.0706139654
vn -0.100000001 0 0
vn 5.62941018e-08 -0.0705867484 -0.0708344132
vn 4.14373993e-08 -0.0707109123 0.0707104504
vn 0.100000001 1.25129998e-06 8.15450951e-13
vn -1.12305997e-07 0.0707096159 0.0707117468
vn -0.100000001 -4.37946255e-06 3.28925717e-06
vn 7.76392071e-08 -0.0707082078 -0.0707131699
vn 1.78102013e-07 -0.0707105547 0.0707108155
vn 0.100000001 5.41285033e-07 3.52746234e-13
vn 0 0.0707120001 0.0707093626
vn -0.100000001 -1.15479997e-05 -7.5256355e-12
vn 0 -0.0707237199 -0.0706976578
vn 0 -0.0707107857 0.0707105696
vn 0 0.0707054511 0.0707159117
vn -0.100000001 -5.23240033e-06 -3.40986636e-12
vn 0 -0.0706963316 -0.0707250386
vn 0 -0.0707107261 0.0707106367
vn 0.100000001 -4.99542011e-07 -3.25543032e-13
vn -5.04000006e-08 0.0707097277 0.0707116276
vn 3.06092005e-08 -0.0707114264 -0.0707099363
vn 7.89063037e-08 -0.0707110539 0.0707102939
vn -5.0517702e-08 0.0706634894 0.070757851
vn -0.0999991223 0.000367671368 -0.000203239659
vn 3.46354021e-08 -0.0705659762 -0.070855096
vn 0 -0.0707107931 0.0707105696
vn 3.22952012e-08 0.0707097724 0.0707115978
vn -0.100000001 6.25631003e-07 4.07713089e-13
vn 3.07448005e-08 -0.0707109943 -0.0707103759
vn 5.34305009e-08 -0.070710659 0.0707107037
vn -6.17040996e-07 0.0707251951 0.0706961676
vn 0 -0.0707106665 0.0707106963
vn 0.100000001 5.41432973e-06 5.44035515e-07
vn 0 0.0707251951 0.0706961676
vn -0.100000001 -1.80488007e-06 -1.17620963e-12
vn 0 -0.0707007721 -0.0707205981
vn 3.34556006e-07 -0.0707106665 0.0707106963
vn 5.04000006e-08 0.0707097426 0.0707116276
vn -0.100000001 -3.33027003e-07 -2.17028029e-13
vn 0 -0.070709087 -0.0707122833
vn 3.94531021e-08 -0.0707112476 0.0707101226
vn 0.100000001 -3.12819179e-06 2.63140782e-06
vn 3.22955991e-08 0.070709981 0.0707113817
vn -0.100000001 1.8769e-06 1.22314387e-12
vn 2.34464004e-08 -0.0707114711 -0.0707098916
vn 3.56202001e-08 -0.070710659 0.0707107037
vn 0.100000001 8.29916007e-06 5.40842154e-12
vn 0 0.0707133487 0.0707080215
vn 0 -0.070703961 -0.0707174018
vn 0 -0.0707109645 0.0707104057
vn 3.36011006e-08 0.07071165 0.0707097203
vn -0.100000001 -6.66052017e-07 -4.34054756e-13
vn 5.20064027e-08 -0.0707109645 -0.0707103834
vn 1.97264995e-08 -0.0707108825 0.0707104802
vn 0 0.0706469342 0.0707743764
vn -0.0999998301 0.000129491091 -0.000136154718
vn 6.73159022e-08 -0.0705452487 -0.0708757266
vn 8.28745002e-08 -0.0707104206 0.0707109347
vn 0 -0.0707833171 0.0706379712
vn 0.099999927 0.000129449298 8.43599079e-11
vn -5.02693993e-08 0.0706696883 -0.0707516447
vn 1.38123992e-08 0.0707109123 0.0707104579
vn -0.100000001 5.00499755e-06 3.40285328e-06
vn 3.2296299e-08 -0.0707127526 0.0707086027
vn 0.100000001 -1.25129998e-06 -8.15450951e-13
vn -2.87360002e-08 0.0707106665 -0.0707107037
vn -1.78101001e-08 0.0707107037 0.070710659
vn -0.100000001 -2.30934002e-05 -1.50495762e-11
vn 0 -0.0707075149 0.070713833
vn 0.100000001 1.80416998e-06 1.17574689e-12
vn -8.02829021e-08 0.0707060397 -0.0707153231
vn -1.19129005e-07 0.0707104057 0.070710972
vn 6.16851992e-07 -0.0707075149 0.070713833
vn 0 0.0707139224 -0.0707074255
vn 2.35900004e-07 0.0707106367 0.0707107335
vn -0.100000001 6.66077028e-07 4.34071073e-13
vn 1.67999001e-08 -0.0707102567 0.0707111061
vn 0.100000001 3.33027003e-07 2.17028029e-13
vn -5.38535012e-08 0.0707115009 -0.0707098618
vn -5.91795981e-08 0.0707106739 0.0707106888
vn -0.100000001 3.79211015e-05 -5.4361027e-07
vn 0 -0.0706624687 0.0707588643
vn 0.0999999866 6.10292009e-05 3.97716929e-11
vn -1.08356005e-07 0.070628196 -0.0707930624
vn -8.28745996e-08 0.0707106069 0.0707107633
vn 3.22953007e-08 -0.0707096532 0.0707116947
vn 2.87363999e-08 0.0707116276 -0.0707097352
vn 7.12405992e-08 0.0707106441 0.0707107186
vn -0.100000001 5.7737102e-06 3.76262866e-12
vn 0 -0.0706993714 0.0707219839
vn -8.03254991e-08 0.0707001165 -0.0707212463
vn -7.08887001e-07 0.0707108378 0.0707105249
vn -0.100000001 7.58079977e-06 4.94027865e-12
vn 0 -0.0707272589 0.0706940964
vn 0.100000001 -1.15487001e-05 4.53403459e-07
vn -8.63657021e-07 0.0707258955 -0.0706954598
vn 0 0.0707107559 0.0707106069
vn -0.100000001 6.6608203e-07 4.34074326e-13
vn 3.36007986e-08 -0.0707124248 0.0707089454
vn 0.100000001 -1.33208994e-06 -8.68100405e-13
vn 0 0.0707115307 -0.070709832
vn -4.42007e-08 0.0707103163 0.070711039
vn -0.100000001 2.97177803e-06 3.28924193e-06
vn 0 -0.070711948 0.0707094148
vn 0.100000001 6.25669031e-07 4.07737863e-13
vn -4.78947975e-08 0.0707125738 -0.0707087815
vn 1.78101995e-08 0.0707108453 0.0707105249
vn -0.100000001 -6.31465036e-06 -4.11515006e-12
vn 6.16743023e-07 -0.0707041845 0.0707171783
vn 0.100000001 1.15493003e-05 7.52648291e-12
vn 0 0.0707260221 -0.0706953406
vn 0 0.0707106963 0.0707106665
vn -0.100000001 1.08288009e-06 7.05694509e-13
vn 1.23406011e-07 -0.0707267299 0.0706946328
vn 0.100000001 -2.65977914e-13 4.08140039e-07
vn 0 0.0707176998 -0.0707036629
vn 0 0.0707102865 0.0707110763
vn -0.100000001 -8.32594026e-07 -5.42587351e-13
vn 5.04015034e-08 -0.070712015 0.0707093552
vn -8.01472027e-08 0.0707110167 -0.0707103461
vn -5.91790013e-08 0.0707104206 0.0707109421
vn -0.0999996141 0.000193792366 0.000203228032
vn 7.37450065e-08 -0.070807308 0.0706139207
vn 0.100000001 -1.27313006e-05 4.53731701e-07
vn 0 0.0707398355 -0.0706815049
vn 0 0.0707104802 0.0707108974
vn -0.100000001 3.48986032e-05 2.2742825e-11
vn -7.7227206e-08 0.0999999866 5.14200729e-05
vn -4.44455036e-05 -0.0999999717 7.33546331e-05
vn 0.100000001 3.99167021e-07 -3.66412429e-08
vn -0.00900312047 -0.0105137462 -0.0990374014
vn 0.000122070305 0.0567194521 -0.0823583081
vn 3.13707005e-07 -6.5168301e-08 0.100000001
vn 0.0842544362 -5.93660161e-06 0.0538626909
vn 0.100000001 1.42150924e-07 1.04390097e-07
vn 0.100000001 5.50479228e-07 -3.91571632e-07
vn 0.100000001 8.36285921e-08 -1.43234956e-07
vn 0.100000001 3.44901991e-07 2.24766766e-13
vn 0.100000001 -3.24272266e-13 4.97591998e-07
vn 0.100000001 6.18259151e-08 1.33112039e-07
vn 0.100000001 8.06670982e-07 5.25693746e-13
vn 0.100000001 -8.11198959e-07 -5.28644565e-13
vn 0.100000001 1.31876007e-07 8.5941352e-14
vn 0.0835402459 -3.09354837e-05 -0.0549638681
vn 0.0830477476 0.0557052083 2.86388022e-05
vn 0.0849126875 0.0370821841 0.037613105
vn 0.08433263 -0.037909057 0.0380908363
vn 0.0842428207 -0.0538808592 -3.51132385e-08
vn 0.0840791836 -0.0541358702 -3.52794274e-08
vn 9.74156064e-05 -0.099999927 7.61385309e-05
vn 0.100000001 1.40355993e-07 9.14676185e-14
vn -2.90747012e-05 2.41855993e-08 -0.100000001
vn 0.000382584316 -6.51678249e-08 0.0999992713
vn 1.29236e-07 -5.6384135e-05 -0.0999999866
vn 3.19211004e-08 -1.15453686e-05 0.100000001
vn -2.25853007e-08 0.0702067465 0.0712110475
vn 7.85434011e-08 -0.0705412701 0.0708796829
vn 0.0858170241 0.00858814362 -0.0506130829
vn -0.0163157489 -0.0555577353 -0.08152996
vn 0.100000001 9.38196081e-06 6.11406412e-12
vn 0 0.0707096457 0.070711717
vn -0.100000001 -4.72821435e-13 7.25538996e-07
vn 0 -0.0707140863 -0.0707072765
vn 0 -0.0707110837 0.0707102865
vn 0.100000001 -2.65299013e-06 -1.72890857e-12
vn 3.03619991e-08 0.0707832649 0.0706380233
vn -0.100000001 4.48479987e-05 2.92266801e-11
vn 0 -0.0707111284 -0.0707102492
vn 0 -0.0707110539 0.0707103163
vn 0.100000001 -2.65897188e-06 2.83577833e-06
vn -6.45907008e-08 0.0707086772 0.0707126781
vn -0.100000001 1.25126962e-06 4.53488838e-07
vn -3.22951017e-08 -0.070711039 -0.0707103238
vn 1.01197998e-07 -0.070710808 0.0707105547
vn 1.23362994e-07 0.0707115009 0.0707098618
vn -0.100000001 8.83995017e-06 5.76084536e-12
vn 0 -0.0707277879 -0.0706935748
vn 2.35901013e-07 -0.0707110837 0.0707102865
vn 0.100000001 -2.88684009e-06 -1.88130457e-12
vn 0 0.0707095265 0.0707118362
vn 0 -0.0706921294 -0.0707292408
vn 0 -0.0707104951 0.0707108751
vn -9.86551996e-08 0.0707091764 0.0707121864
vn 6.71994016e-08 -0.0707114264 -0.0707099363
vn 1.03250002e-07 -0.0707109123 0.0707104504
vn 0.099999629 -0.000214672109 0.000169300867
vn 0 0.0707712024 0.0706501082
vn -7.07284045e-08 -0.070763275 -0.070658043
vn 6.90623025e-08 -0.070710659 0.0707107037
vn 0.100000001 -1.25127997e-06 -8.15437886e-13
vn 0 0.0707100704 0.0707112998
vn 4.84427005e-08 -0.0707109943 -0.0707103759
vn 1.78101995e-08 -0.0707107335 0.0707106292
vn 0.100000001 -2.52693007e-06 -1.64675738e-12
vn -4.98368991e-07 0.0707292259 0.0706921294
vn -0.100000001 3.97051008e-06 2.58751397e-12
vn 0 -0.070700027 -0.0707213432
vn 9.4360206e-07 -0.0707107857 0.0707105696
vn 0.100000001 -3.54753417e-13 5.44365037e-07
vn 0 0.0707291439 0.0706922188
vn -0.100000001 -2.30987007e-05 -1.505303e-11
vn 2.46778995e-07 -0.0706884265 -0.0707329363
vn 0 -0.0707106665 0.0707106963
vn -6.72021017e-08 0.0707118511 0.0707095191
vn 1.68002998e-08 -0.070708558 -0.0707128048
vn 1.03250002e-07 -0.0707106665 0.0707106963
vn 0.100000001 2.50253015e-06 -3.62781378e-07
vn 0 0.0707102939 0.0707110688
vn 4.84427005e-08 -0.0707109571 -0.0707104057
vn 0 -0.0707107782 0.0707105994
vn 0 0.0707052127 0.0707161576
vn -0.100000001 3.96893029e-06 2.58648441e-12
vn 0 -0.0707037225 -0.0707176402
vn 1.17951004e-07 -0.0707111433 0.0707102269
vn -7.82946046e-08 0.0707097873 0.0707115754
vn 3.35997008e-08 -0.0707114413 -0.0707099289
vn 1.56973996e-07 -0.0707104057 0.0707109571
vn 0.100000001 2.73142014e-05 1.78002005e-11
vn -4.04896028e-08 0.0707711875 0.0706501305
vn -0.100000001 1.26169998e-05 3.63240218e-07
vn 0 -0.0706588104 -0.0707625151
vn 0 -0.0707109421 0.0707104206
vn 3.03672003e-08 -0.0707713142 0.0706499964
vn 0.100000001 -1.76965004e-05 -1.15325085e-11
vn -6.07326029e-08 0.0706489533 -0.0707723498
vn -5.52782993e-08 0.07071051 0.0707108676
vn -0.100000001 -1.25126996e-06 -8.15431381e-13
vn 1.10000997e-07 -0.0707102492 0.0707111135
vn -3.22949028e-08 0.0707105994 -0.0707107633
vn 0 0.0707107261 0.0707106367
vn -0.100000001 5.4125203e-06 3.5272475e-12
vn -1.23348002e-07 -0.070704259 0.0707170963
vn -1.23345004e-07 0.0707062855 -0.0707150698
vn -1.17949007e-07 0.0707108155 0.0707105547
vn -0.100000001 5.41316012e-06 3.52766449e-12
vn 0.100000001 -1.48002e-05 -9.64503911e-12
vn 2.46745998e-07 0.0707218349 -0.0706995353
vn 0 0.0707102865 0.0707110912
vn 8.4002302e-08 -0.0707121789 0.0707091987
vn -5.03992013e-08 0.0707109272 -0.0707104355
vn -1.13923001e-07 0.0707105175 0.0707108527
vn -0.099999927 -0.000129491003 -5.44687396e-07
vn 9.10859015e-08 -0.0707833543 0.0706379339
vn 0.099999927 -0.000129151304 -8.41657091e-11
vn -4.04009022e-08 0.0707604885 -0.0706608444
vn -4.14589998e-08 0.0707108527 0.07071051
vn -0.100000001 -1.25125996e-06 -8.15424876e-13
vn 0 -0.0707099512 0.0707114041
vn 0.100000001 3.75383752e-06 3.74276237e-06
vn 6.45907008e-08 0.0707116574 -0.0707096979
vn 1.78101001e-08 0.0707105771 0.0707107931
vn -1.23362994e-07 -0.07071165 0.0707097128
vn 0.100000001 -3.24752e-06 -2.11635353e-12
vn 3.70119011e-07 0.0707218349 -0.0706995353
vn -1.17951004e-07 0.0707105771 0.0707107931
vn 0 -0.0707230642 0.0706982911
vn 0.100000001 5.77584979e-06 4.53400759e-07
vn 0 0.070704557 -0.0707168058
vn 0 0.0707105771 0.0707107931
vn 0 -0.0707114711 0.0707098916
vn 0.100000001 3.3303499e-07 2.17033246e-13
vn -3.35997008e-08 0.0707115307 -0.070709832
vn 0 0.0707102343 0.070711121
vn -0.100000001 2.95521962e-13 -4.53475025e-07
vn 1.26159009e-07 -0.070709385 0.0707119703
vn 0.100000001 -4.6924302e-07 -3.05797705e-13
vn -1.45336003e-07 0.0707102641 -0.0707110986
vn 3.5620598e-08 0.0707107782 0.0707105845
vn 0 -0.0707316995 0.0706896558
vn 0.100000001 -1.44384001e-06 -9.40926048e-13
vn 0 0.0707298443 -0.0706915036
vn 0 0.0707108155 0.0707105473
vn -0.100000001 -5.77367018e-06 -3.76260264e-12
vn 1.23406011e-07 -0.0707268268 0.0706945285
vn 0.100000001 -3.61003259e-07 4.07978774e-07
vn 2.35903016e-07 0.0707104504 0.0707109123
vn 0 -0.0707124919 0.0707088709
vn 0.100000001 -4.16295023e-07 -2.71292374e-13
vn -6.71993021e-08 0.0707115754 -0.0707097948
vn 0 0.07071051 0.0707108676
vn -0.100000001 -1.18548996e-05 -7.72563697e-12
vn 0 -0.0707037821 0.0707175881
vn 0.0999999866 -6.47040069e-05 4.52883825e-07
vn -3.02741014e-08 0.0706984252 -0.0707229376
vn -3.45490001e-08 0.070710361 0.0707110018
vn -9.59969952e-08 0.100000001 5.14208696e-05
vn -5.3664202e-08 0.100000001 5.14093663e-05
vn -4.19271018e-05 -0.0999999717 7.61749325e-05
vn 9.61666089e-08 -0.0999999866 5.49405304e-05
vn 1.33583001e-07 -0.0999995098 0.000314665231
vn 7.72473996e-08 -0.100000001 2.61585337e-05
vn -0.0166419297 0.0529746749 -0.0831668898
f 7/1/1 4/2/2 6/3/3
f 9/4/4 6/5/3 8/6/5
f 11/7/6 8/8/5 10/9/7
f 14/10/8 13/11/9 19/12/10
f 20/13/11 14/14/8 19/15/10
f 20/16/11 16/17/12 15/18/13
f 22/19/14 19/20/10 18/21/15
f 23/22/16 20/23/11 19/24/10
f 24/25/17 21/26/18 20/27/11
f 26/28/19 21/29/18 25/30/20
f 29/31/21 18/32/15 28/33/22
f 30/34/23 23/35/16 22/36/14
f 31/37/24 24/38/17 23/39/16
f 32/40/25 25/41/20 24/42/17
f 34/43/26 25/44/20 33/45/27
f 35/46/28 22/47/14 29/48/21
f 36/49/29 31/50/24 30/51/23
f 37/52/30 32/53/25 31/54/24
f 38/55/31 33/56/27 32/57/25
f 40/58/32 33/59/27 39/60/33
f 41/61/34 30/62/23 35/63/28
f 51/64/35 49/65/35 50/66/35
f 45/67/36 48/68/36 51/69/36
f 49/70/37 46/71/37 50/72/37
f 49/73/38 44/74/38 47/75/38
f 59/76/39 61/77/39 60/78/39
f 73/79/40 66/80/40 58/81/40
f 54/82/41 63/83/41 57/84/41
f 55/85/42 64/86/42 54/87/42
f 61/88/43 55/89/43 60/90/43
f 67/91/44 59/92/44 66/93/44
f 67/94/45 69/95/45 68/96/45
f 71/97/46 63/98/46 70/99/46
f 72/100/47 74/101/47 73/102/47
f 74/103/48 70/104/48 68/105/48
f 71/106/49 75/107/49 72/108/49
f 69/109/50 74/110/50 68/111/50
f 64/112/51 76/113/51 63/114/51
f 62/115/52 78/116/52 61/117/52
f 65/118/53 78/119/53 80/120/53
f 62/121/54 82/122/54 79/123/54
f 47/124/55 45/125/55 46/126/55
f 14/127/8 6/128/3 4/129/2
f 43/130/56 37/131/30 36/132/29
f 1/133/57 2/134/58 3/135/59
f 87/136/38 86/137/38 84/138/38
f 89/139/60 85/140/60 88/141/60
f 90/142/61 89/143/61 88/144/61
f 84/145/62 90/146/62 87/147/62
f 84/148/63 89/149/63 91/150/63
f 95/151/38 94/152/38 92/153/38
f 97/154/64 93/155/64 96/156/64
f 99/157/65 96/158/65 98/159/65
f 92/160/66 98/161/66 95/162/66
f 97/163/67 92/164/67 94/165/67
f 103/166/68 101/167/68 102/168/68
f 105/169/69 100/170/69 104/171/69
f 106/172/70 105/173/70 104/174/70
f 102/175/71 106/176/71 103/177/71
f 102/178/72 105/179/72 107/180/72
f 108/181/73 109/182/73 110/183/73
f 113/184/74 109/185/74 112/186/74
f 115/187/75 112/188/75 114/189/75
f 108/190/76 114/191/76 111/192/76
f 110/193/77 115/194/77 108/195/77
f 119/196/38 118/197/38 116/198/38
f 121/199/78 117/200/78 120/201/78
f 122/202/79 121/203/79 120/204/79
f 116/205/80 122/206/80 119/207/80
f 118/208/81 123/209/81 116/210/81
f 124/211/82 125/212/82 126/213/82
f 128/214/83 126/215/83 125/216/83
f 130/217/65 129/218/65 128/219/65
f 124/220/84 130/221/84 127/222/84
f 124/223/85 129/224/85 131/225/85
f 135/226/38 134/227/38 132/228/38
f 136/229/86 134/230/86 133/231/86
f 137/232/87 138/233/87 139/234/87
f 132/235/88 138/236/88 135/237/88
f 137/238/89 132/239/89 134/240/89
f 143/241/38 141/242/38 142/243/38
f 141/244/90 144/245/90 145/246/90
f 146/247/91 145/248/91 144/249/91
f 142/250/92 146/251/92 143/252/92
f 142/253/93 145/254/93 147/255/93
f 151/256/38 150/257/38 148/258/38
f 152/259/94 150/260/94 149/261/94
f 155/262/65 152/263/65 154/264/65
f 148/265/80 154/266/80 151/267/80
f 150/268/95 155/269/95 148/270/95
f 156/271/96 157/272/96 158/273/96
f 161/274/97 157/275/97 160/276/97
f 162/277/98 161/278/98 160/279/98
f 156/280/99 162/281/99 159/282/99
f 158/283/100 163/284/100 156/285/100
f 167/286/38 166/287/38 164/288/38
f 169/289/101 165/290/101 168/291/101
f 170/292/102 169/293/102 168/294/102
f 164/295/103 170/296/103 167/297/103
f 164/298/104 169/299/104 171/300/104
f 174/301/105 172/302/105 173/303/105
f 173/304/106 176/305/106 177/306/106
f 178/307/107 177/308/107 176/309/107
f 174/310/108 178/311/108 175/312/108
f 174/313/109 177/314/109 179/315/109
f 180/316/110 181/317/110 182/318/110
f 185/319/111 181/320/111 184/321/111
f 187/322/65 184/323/65 186/324/65
f 180/325/112 186/326/112 183/327/112
f 182/328/113 187/329/113 180/330/113
f 191/331/38 190/332/38 188/333/38
f 192/334/114 190/335/114 189/336/114
f 194/337/115 193/338/115 192/339/115
f 188/340/116 194/341/116 191/342/116
f 188/343/117 193/344/117 195/345/117
f 199/346/38 198/347/38 196/348/38
f 201/349/118 197/350/118 200/351/118
f 203/352/119 200/353/119 202/354/119
f 196/355/120 202/356/120 199/357/120
f 201/358/121 196/359/121 198/360/121
f 209/361/122 205/362/122 208/363/122
f 211/364/123 208/365/123 210/366/123
f 204/367/124 210/368/124 207/369/124
f 209/370/125 204/371/125 206/372/125
f 215/373/126 213/374/126 214/375/126
f 213/376/127 216/377/127 217/378/127
f 218/379/128 217/380/128 216/381/128
f 214/382/129 218/383/129 215/384/129
f 214/385/130 217/386/130 219/387/130
f 223/388/131 222/389/131 220/390/131
f 224/391/132 222/392/132 221/393/132
f 226/394/133 225/395/133 224/396/133
f 220/397/134 226/398/134 223/399/134
f 222/400/135 227/401/135 220/402/135
f 231/403/65 230/404/65 228/405/65
f 232/406/136 230/407/136 229/408/136
f 235/409/38 232/410/38 234/411/38
f 228/412/137 234/413/137 231/414/137
f 228/415/138 233/416/138 235/417/138
f 236/418/139 237/419/139 238/420/139
f 241/421/140 237/422/140 240/423/140
f 242/424/141 241/425/141 240/426/141
f 236/427/142 242/428/142 239/429/142
f 236/430/143 241/431/143 243/432/143
f 244/433/144 245/434/144 246/435/144
f 249/436/145 245/437/145 248/438/145
f 249/439/146 250/440/146 251/441/146
f 244/442/147 250/443/147 247/444/147
f 249/445/148 244/446/148 246/447/148
f 255/448/65 253/449/65 254/450/65
f 257/451/149 252/452/149 256/453/149
f 259/454/38 256/455/38 258/456/38
f 254/457/150 258/458/150 255/459/150
f 254/460/151 257/461/151 259/462/151
f 260/463/152 261/464/152 262/465/152
f 264/466/153 262/467/153 261/468/153
f 267/469/38 264/470/38 266/471/38
f 260/472/154 266/473/154 263/474/154
f 262/475/155 267/476/155 260/477/155
f 268/478/156 269/479/156 270/480/156
f 273/481/157 269/482/157 272/483/157
f 275/484/158 272/485/158 274/486/158
f 271/487/159 275/488/159 274/489/159
f 268/490/160 273/491/160 275/492/160
f 276/493/161 277/494/161 278/495/161
f 281/496/162 277/497/162 280/498/162
f 283/499/163 280/500/163 282/501/163
f 276/502/164 282/503/164 279/504/164
f 278/505/165 283/506/165 276/507/165
f 286/508/166 284/509/166 285/510/166
f 285/511/167 288/512/167 289/513/167
f 291/514/168 288/515/168 290/516/168
f 286/517/169 290/518/169 287/519/169
f 286/520/170 289/521/170 291/522/170
f 292/523/171 293/524/171 294/525/171
f 296/526/172 294/527/172 293/528/172
f 299/529/173 296/530/173 298/531/173
f 292/532/174 298/533/174 295/534/174
f 292/535/175 297/536/175 299/537/175
f 300/538/176 301/539/176 302/540/176
f 305/541/177 301/542/177 304/543/177
f 307/544/178 304/545/178 306/546/178
f 300/547/179 306/548/179 303/549/179
f 300/550/180 305/551/180 307/552/180
f 308/553/181 309/554/181 310/555/181
f 312/556/182 310/557/182 309/558/182
f 315/559/38 312/560/38 314/561/38
f 308/562/183 314/563/183 311/564/183
f 308/565/184 313/566/184 315/567/184
f 319/568/185 318/569/185 316/570/185
f 321/571/186 317/572/186 320/573/186
f 321/574/187 322/575/187 323/576/187
f 316/577/188 322/578/188 319/579/188
f 321/580/189 316/581/189 318/582/189
f 204/583/190 205/584/190 206/585/190
f 77/586/191 65/587/191 80/588/191
f 76/589/192 82/590/192 68/591/192
f 15/592/13 8/593/5 6/594/3
f 55/595/193 52/596/193 53/597/193
f 16/598/12 10/599/7 8/600/5
f 7/601/1 5/602/194 4/603/2
f 9/604/4 7/605/1 6/606/3
f 11/607/6 9/608/4 8/609/5
f 14/610/8 4/611/2 13/612/9
f 5/613/194 1/614/57 4/615/2
f 13/616/9 18/617/15 19/618/10
f 4/619/2 1/620/57 13/621/9
f 20/622/11 15/623/13 14/624/8
f 20/625/11 21/626/18 16/627/12
f 22/628/14 23/629/16 19/630/10
f 23/631/16 24/632/17 20/633/11
f 24/634/17 25/635/20 21/636/18
f 26/637/19 27/638/195 21/639/18
f 29/640/21 22/641/14 18/642/15
f 30/643/23 31/644/24 23/645/16
f 31/646/24 32/647/25 24/648/17
f 32/649/25 33/650/27 25/651/20
f 34/652/26 26/653/19 25/654/20
f 35/655/28 30/656/23 22/657/14
f 36/658/29 37/659/30 31/660/24
f 37/661/30 38/662/31 32/663/25
f 38/664/31 39/665/33 33/666/27
f 40/667/32 34/668/26 33/669/27
f 41/670/34 36/671/29 30/672/23
f 51/673/196 48/674/196 49/675/196
f 45/676/36 44/677/36 48/678/36
f 49/679/37 47/680/37 46/681/37
f 49/682/38 48/683/38 44/684/38
f 59/685/197 62/686/197 61/687/197
f 52/688/198 54/689/198 56/690/198
f 57/691/38 71/692/38 72/693/38
f 73/694/38 69/695/38 66/696/38
f 60/697/199 55/698/199 53/699/199
f 56/700/200 54/701/200 57/702/200
f 56/703/201 57/704/201 72/705/201
f 60/706/202 53/707/202 59/708/202
f 59/709/203 53/710/203 58/711/203
f 58/712/204 56/713/204 73/714/204
f 56/715/205 72/716/205 73/717/205
f 66/718/206 59/719/206 58/720/206
f 54/721/207 64/722/207 63/723/207
f 55/724/208 65/725/208 64/726/208
f 61/727/209 65/728/209 55/729/209
f 67/730/210 62/731/210 59/732/210
f 67/733/211 66/734/211 69/735/211
f 71/736/212 57/737/212 63/738/212
f 72/739/213 75/740/213 74/741/213
f 74/742/214 75/743/214 70/744/214
f 71/745/215 70/746/215 75/747/215
f 69/748/216 73/749/216 74/750/216
f 64/751/217 77/752/217 76/753/217
f 62/754/218 79/755/218 78/756/218
f 65/757/219 61/758/219 78/759/219
f 62/760/220 67/761/220 82/762/220
f 47/763/55 44/764/55 45/765/55
f 14/766/8 15/767/13 6/768/3
f 42/769/221 40/770/32 39/771/33
f 39/772/33 38/773/31 42/774/221
f 36/775/29 41/776/34 43/777/56
f 38/778/31 37/779/30 42/780/221
f 43/781/56 42/782/221 37/783/30
f 3/784/59 12/785/222 13/786/9
f 13/787/9 1/788/57 3/789/59
f 87/790/223 85/791/223 86/792/223
f 89/793/224 86/794/224 85/795/224
f 90/796/225 91/797/225 89/798/225
f 84/799/226 91/800/226 90/801/226
f 84/802/227 86/803/227 89/804/227
f 95/805/228 93/806/228 94/807/228
f 97/808/229 94/809/229 93/810/229
f 99/811/230 97/812/230 96/813/230
f 92/814/231 99/815/231 98/816/231
f 97/817/232 99/818/232 92/819/232
f 103/820/233 100/821/233 101/822/233
f 105/823/234 101/824/234 100/825/234
f 106/826/235 107/827/235 105/828/235
f 102/829/236 107/830/236 106/831/236
f 102/832/237 101/833/237 105/834/237
f 108/835/38 111/836/38 109/837/38
f 113/838/238 110/839/238 109/840/238
f 115/841/239 113/842/239 112/843/239
f 108/844/240 115/845/240 114/846/240
f 110/847/241 113/848/241 115/849/241
f 119/850/242 117/851/242 118/852/242
f 121/853/243 118/854/243 117/855/243
f 122/856/65 123/857/65 121/858/65
f 116/859/244 123/860/244 122/861/244
f 118/862/245 121/863/245 123/864/245
f 124/865/38 127/866/38 125/867/38
f 128/868/246 129/869/246 126/870/246
f 130/871/65 131/872/65 129/873/65
f 124/874/247 131/875/247 130/876/247
f 124/877/248 126/878/248 129/879/248
f 135/880/249 133/881/249 134/882/249
f 136/883/250 137/884/250 134/885/250
f 137/886/65 136/887/65 138/888/65
f 132/889/251 139/890/251 138/891/251
f 137/892/252 139/893/252 132/894/252
f 143/895/253 140/896/253 141/897/253
f 141/898/254 140/899/254 144/900/254
f 146/901/65 147/902/65 145/903/65
f 142/904/255 147/905/255 146/906/255
f 142/907/256 141/908/256 145/909/256
f 151/910/257 149/911/257 150/912/257
f 152/913/258 153/914/258 150/915/258
f 155/916/259 153/917/259 152/918/259
f 148/919/260 155/920/260 154/921/260
f 150/922/261 153/923/261 155/924/261
f 156/925/262 159/926/262 157/927/262
f 161/928/263 158/929/263 157/930/263
f 162/931/264 163/932/264 161/933/264
f 156/934/265 163/935/265 162/936/265
f 158/937/266 161/938/266 163/939/266
f 167/940/38 165/941/38 166/942/38
f 169/943/267 166/944/267 165/945/267
f 170/946/65 171/947/65 169/948/65
f 164/949/268 171/950/268 170/951/268
f 164/952/269 166/953/269 169/954/269
f 174/955/270 175/956/270 172/957/270
f 173/958/271 172/959/271 176/960/271
f 178/961/65 179/962/65 177/963/65
f 174/964/272 179/965/272 178/966/272
f 174/967/273 173/968/273 177/969/273
f 180/970/38 183/971/38 181/972/38
f 185/973/274 182/974/274 181/975/274
f 187/976/275 185/977/275 184/978/275
f 180/979/276 187/980/276 186/981/276
f 182/982/277 185/983/277 187/984/277
f 191/985/38 189/986/38 190/987/38
f 192/988/278 193/989/278 190/990/278
f 194/991/65 195/992/65 193/993/65
f 188/994/279 195/995/279 194/996/279
f 188/997/280 190/998/280 193/999/280
f 199/1000/281 197/1001/281 198/1002/281
f 201/1003/282 198/1004/282 197/1005/282
f 203/1006/283 201/1007/283 200/1008/283
f 196/1009/284 203/1010/284 202/1011/284
f 201/1012/285 203/1013/285 196/1014/285
f 209/1015/286 206/1016/286 205/1017/286
f 211/1018/287 209/1019/287 208/1020/287
f 204/1021/288 211/1022/288 210/1023/288
f 209/1024/289 211/1025/289 204/1026/289
f 215/1027/290 212/1028/290 213/1029/290
f 213/1030/291 212/1031/291 216/1032/291
f 218/1033/38 219/1034/38 217/1035/38
f 214/1036/292 219/1037/292 218/1038/292
f 214/1039/293 213/1040/293 217/1041/293
f 223/1042/294 221/1043/294 222/1044/294
f 224/1045/295 225/1046/295 222/1047/295
f 226/1048/38 227/1049/38 225/1050/38
f 220/1051/296 227/1052/296 226/1053/296
f 222/1054/297 225/1055/297 227/1056/297
f 231/1057/298 229/1058/298 230/1059/298
f 232/1060/157 233/1061/157 230/1062/157
f 235/1063/299 233/1064/299 232/1065/299
f 228/1066/300 235/1067/300 234/1068/300
f 228/1069/301 230/1070/301 233/1071/301
f 236/1072/65 239/1073/65 237/1074/65
f 241/1075/302 238/1076/302 237/1077/302
f 242/1078/38 243/1079/38 241/1080/38
f 236/1081/303 243/1082/303 242/1083/303
f 236/1084/304 238/1085/304 241/1086/304
f 244/1087/305 247/1088/305 245/1089/305
f 249/1090/306 246/1091/306 245/1092/306
f 249/1093/307 248/1094/307 250/1095/307
f 244/1096/308 251/1097/308 250/1098/308
f 249/1099/309 251/1100/309 244/1101/309
f 255/1102/310 252/1103/310 253/1104/310
f 257/1105/311 253/1106/311 252/1107/311
f 259/1108/312 257/1109/312 256/1110/312
f 254/1111/313 259/1112/313 258/1113/313
f 254/1114/314 253/1115/314 257/1116/314
f 260/1117/65 263/1118/65 261/1119/65
f 264/1120/315 265/1121/315 262/1122/315
f 267/1123/316 265/1124/316 264/1125/316
f 260/1126/317 267/1127/317 266/1128/317
f 262/1129/318 265/1130/318 267/1131/318
f 268/1132/65 271/1133/65 269/1134/65
f 273/1135/319 270/1136/319 269/1137/319
f 275/1138/320 273/1139/320 272/1140/320
f 271/1141/321 268/1142/321 275/1143/321
f 268/1144/322 270/1145/322 273/1146/322
f 276/1147/65 279/1148/65 277/1149/65
f 281/1150/323 278/1151/323 277/1152/323
f 283/1153/324 281/1154/324 280/1155/324
f 276/1156/325 283/1157/325 282/1158/325
f 278/1159/326 281/1160/326 283/1161/326
f 286/1162/327 287/1163/327 284/1164/327
f 285/1165/328 284/1166/328 288/1167/328
f 291/1168/329 289/1169/329 288/1170/329
f 286/1171/330 291/1172/330 290/1173/330
f 286/1174/331 285/1175/331 289/1176/331
f 292/1177/65 295/1178/65 293/1179/65
f 296/1180/332 297/1181/332 294/1182/332
f 299/1183/333 297/1184/333 296/1185/333
f 292/1186/334 299/1187/334 298/1188/334
f 292/1189/335 294/1190/335 297/1191/335
f 300/1192/336 303/1193/336 301/1194/336
f 305/1195/337 302/1196/337 301/1197/337
f 307/1198/338 305/1199/338 304/1200/338
f 300/1201/179 307/1202/179 306/1203/179
f 300/1204/339 302/1205/339 305/1206/339
f 308/1207/65 311/1208/65 309/1209/65
f 312/1210/340 313/1211/340 310/1212/340
f 315/1213/341 313/1214/341 312/1215/341
f 308/1216/342 315/1217/342 314/1218/342
f 308/1219/343 310/1220/343 313/1221/343
f 319/1222/344 317/1223/344 318/1224/344
f 321/1225/345 318/1226/345 317/1227/345
f 321/1228/346 320/1229/346 322/1230/346
f 316/1231/347 323/1232/347 322/1233/347
f 321/1234/348 323/1235/348 316/1236/348
f 204/1237/65 207/1238/65 205/1239/65
f 80/1240/349 81/1241/349 77/1242/349
f 77/1243/350 64/1244/350 65/1245/350
f 68/1246/351 70/1247/351 76/1248/351
f 76/1249/352 83/1250/352 82/1251/352
f 70/1252/353 63/1253/353 76/1254/353
f 82/1255/354 67/1256/354 68/1257/354
f 15/1258/13 16/1259/12 8/1260/5
f 55/1261/38 54/1262/38 52/1263/38
f 16/1264/12 17/1265/355 10/1266/7
